<?xml version="1.0" encoding="utf-8" standalone="no"?>
<!DOCTYPE svg PUBLIC "-//W3C//DTD SVG 1.1//EN"
  "http://www.w3.org/Graphics/SVG/1.1/DTD/svg11.dtd">
<svg xmlns:xlink="http://www.w3.org/1999/xlink" width="899.28pt" height="755.28pt" viewBox="0 0 899.28 755.28" xmlns="http://www.w3.org/2000/svg" version="1.1">
 <metadata>
  <rdf:RDF xmlns:dc="http://purl.org/dc/elements/1.1/" xmlns:cc="http://creativecommons.org/ns#" xmlns:rdf="http://www.w3.org/1999/02/22-rdf-syntax-ns#">
   <cc:Work>
    <dc:type rdf:resource="http://purl.org/dc/dcmitype/StillImage"/>
    <dc:date>2024-06-28T12:31:51.885777</dc:date>
    <dc:format>image/svg+xml</dc:format>
    <dc:creator>
     <cc:Agent>
      <dc:title>Matplotlib v3.7.2, https://matplotlib.org/</dc:title>
     </cc:Agent>
    </dc:creator>
   </cc:Work>
  </rdf:RDF>
 </metadata>
 <defs>
  <style type="text/css">*{stroke-linejoin: round; stroke-linecap: butt}</style>
 </defs>
 <g id="figure_1">
  <g id="patch_1">
   <path d="M 0 755.28 
L 899.28 755.28 
L 899.28 0 
L 0 0 
z
" style="fill: #ffffff; stroke: #000000; stroke-width: 2; stroke-linejoin: miter"/>
  </g>
  <g id="axes_1">
   <g id="patch_2">
    <path d="M 82.44 336.44 
L 408.84 336.44 
L 408.84 64.44 
L 82.44 64.44 
L 82.44 336.44 
z
" clip-path="url(#pa768bc50b6)" style="fill: none; stroke-dasharray: 7.4,3.2; stroke-dashoffset: 0; stroke: #dcdcdc; stroke-width: 2; stroke-linejoin: miter"/>
   </g>
  </g>
  <g id="axes_2">
   <g id="patch_3">
    <path d="M 490.44 336.44 
L 816.84 336.44 
L 816.84 64.44 
L 490.44 64.44 
z
" style="fill: #ffffff"/>
   </g>
   <g id="matplotlib.axis_1">
    <g id="xtick_1">
     <g id="line2d_1">
      <path d="M 490.44 336.44 
L 490.44 64.44 
" clip-path="url(#pecd93d4b4d)" style="fill: none; stroke: #b0b0b0; stroke-width: 0.8; stroke-linecap: square"/>
     </g>
     <g id="line2d_2">
      <defs>
       <path id="m71ab1bd1f7" d="M 0 0 
L 0 3.5 
" style="stroke: #000000; stroke-width: 0.8"/>
      </defs>
      <g>
       <use xlink:href="#m71ab1bd1f7" x="490.44" y="336.44" style="stroke: #000000; stroke-width: 0.8"/>
      </g>
     </g>
     <g id="text_1">
      <!-- 0 -->
      <g transform="translate(487.25875 351.038437) scale(0.1 -0.1)">
       <defs>
        <path id="DejaVuSans-30" d="M 2034 4250 
Q 1547 4250 1301 3770 
Q 1056 3291 1056 2328 
Q 1056 1369 1301 889 
Q 1547 409 2034 409 
Q 2525 409 2770 889 
Q 3016 1369 3016 2328 
Q 3016 3291 2770 3770 
Q 2525 4250 2034 4250 
z
M 2034 4750 
Q 2819 4750 3233 4129 
Q 3647 3509 3647 2328 
Q 3647 1150 3233 529 
Q 2819 -91 2034 -91 
Q 1250 -91 836 529 
Q 422 1150 422 2328 
Q 422 3509 836 4129 
Q 1250 4750 2034 4750 
z
" transform="scale(0.015625)"/>
       </defs>
       <use xlink:href="#DejaVuSans-30"/>
      </g>
     </g>
    </g>
    <g id="xtick_2">
     <g id="line2d_3">
      <path d="M 557.052245 336.44 
L 557.052245 64.44 
" clip-path="url(#pecd93d4b4d)" style="fill: none; stroke: #b0b0b0; stroke-width: 0.8; stroke-linecap: square"/>
     </g>
     <g id="line2d_4">
      <g>
       <use xlink:href="#m71ab1bd1f7" x="557.052245" y="336.44" style="stroke: #000000; stroke-width: 0.8"/>
      </g>
     </g>
     <g id="text_2">
      <!-- 50 -->
      <g transform="translate(550.689745 351.038437) scale(0.1 -0.1)">
       <defs>
        <path id="DejaVuSans-35" d="M 691 4666 
L 3169 4666 
L 3169 4134 
L 1269 4134 
L 1269 2991 
Q 1406 3038 1543 3061 
Q 1681 3084 1819 3084 
Q 2600 3084 3056 2656 
Q 3513 2228 3513 1497 
Q 3513 744 3044 326 
Q 2575 -91 1722 -91 
Q 1428 -91 1123 -41 
Q 819 9 494 109 
L 494 744 
Q 775 591 1075 516 
Q 1375 441 1709 441 
Q 2250 441 2565 725 
Q 2881 1009 2881 1497 
Q 2881 1984 2565 2268 
Q 2250 2553 1709 2553 
Q 1456 2553 1204 2497 
Q 953 2441 691 2322 
L 691 4666 
z
" transform="scale(0.015625)"/>
       </defs>
       <use xlink:href="#DejaVuSans-35"/>
       <use xlink:href="#DejaVuSans-30" x="63.623047"/>
      </g>
     </g>
    </g>
    <g id="xtick_3">
     <g id="line2d_5">
      <path d="M 623.66449 336.44 
L 623.66449 64.44 
" clip-path="url(#pecd93d4b4d)" style="fill: none; stroke: #b0b0b0; stroke-width: 0.8; stroke-linecap: square"/>
     </g>
     <g id="line2d_6">
      <g>
       <use xlink:href="#m71ab1bd1f7" x="623.66449" y="336.44" style="stroke: #000000; stroke-width: 0.8"/>
      </g>
     </g>
     <g id="text_3">
      <!-- 100 -->
      <g transform="translate(614.12074 351.038437) scale(0.1 -0.1)">
       <defs>
        <path id="DejaVuSans-31" d="M 794 531 
L 1825 531 
L 1825 4091 
L 703 3866 
L 703 4441 
L 1819 4666 
L 2450 4666 
L 2450 531 
L 3481 531 
L 3481 0 
L 794 0 
L 794 531 
z
" transform="scale(0.015625)"/>
       </defs>
       <use xlink:href="#DejaVuSans-31"/>
       <use xlink:href="#DejaVuSans-30" x="63.623047"/>
       <use xlink:href="#DejaVuSans-30" x="127.246094"/>
      </g>
     </g>
    </g>
    <g id="xtick_4">
     <g id="line2d_7">
      <path d="M 690.276735 336.44 
L 690.276735 64.44 
" clip-path="url(#pecd93d4b4d)" style="fill: none; stroke: #b0b0b0; stroke-width: 0.8; stroke-linecap: square"/>
     </g>
     <g id="line2d_8">
      <g>
       <use xlink:href="#m71ab1bd1f7" x="690.276735" y="336.44" style="stroke: #000000; stroke-width: 0.8"/>
      </g>
     </g>
     <g id="text_4">
      <!-- 150 -->
      <g transform="translate(680.732985 351.038437) scale(0.1 -0.1)">
       <use xlink:href="#DejaVuSans-31"/>
       <use xlink:href="#DejaVuSans-35" x="63.623047"/>
       <use xlink:href="#DejaVuSans-30" x="127.246094"/>
      </g>
     </g>
    </g>
    <g id="xtick_5">
     <g id="line2d_9">
      <path d="M 756.88898 336.44 
L 756.88898 64.44 
" clip-path="url(#pecd93d4b4d)" style="fill: none; stroke: #b0b0b0; stroke-width: 0.8; stroke-linecap: square"/>
     </g>
     <g id="line2d_10">
      <g>
       <use xlink:href="#m71ab1bd1f7" x="756.88898" y="336.44" style="stroke: #000000; stroke-width: 0.8"/>
      </g>
     </g>
     <g id="text_5">
      <!-- 200 -->
      <g transform="translate(747.34523 351.038437) scale(0.1 -0.1)">
       <defs>
        <path id="DejaVuSans-32" d="M 1228 531 
L 3431 531 
L 3431 0 
L 469 0 
L 469 531 
Q 828 903 1448 1529 
Q 2069 2156 2228 2338 
Q 2531 2678 2651 2914 
Q 2772 3150 2772 3378 
Q 2772 3750 2511 3984 
Q 2250 4219 1831 4219 
Q 1534 4219 1204 4116 
Q 875 4013 500 3803 
L 500 4441 
Q 881 4594 1212 4672 
Q 1544 4750 1819 4750 
Q 2544 4750 2975 4387 
Q 3406 4025 3406 3419 
Q 3406 3131 3298 2873 
Q 3191 2616 2906 2266 
Q 2828 2175 2409 1742 
Q 1991 1309 1228 531 
z
" transform="scale(0.015625)"/>
       </defs>
       <use xlink:href="#DejaVuSans-32"/>
       <use xlink:href="#DejaVuSans-30" x="63.623047"/>
       <use xlink:href="#DejaVuSans-30" x="127.246094"/>
      </g>
     </g>
    </g>
    <g id="text_6">
     <!-- Time [ms] -->
     <g transform="translate(628.440781 364.716562) scale(0.1 -0.1)">
      <defs>
       <path id="DejaVuSans-54" d="M -19 4666 
L 3928 4666 
L 3928 4134 
L 2272 4134 
L 2272 0 
L 1638 0 
L 1638 4134 
L -19 4134 
L -19 4666 
z
" transform="scale(0.015625)"/>
       <path id="DejaVuSans-69" d="M 603 3500 
L 1178 3500 
L 1178 0 
L 603 0 
L 603 3500 
z
M 603 4863 
L 1178 4863 
L 1178 4134 
L 603 4134 
L 603 4863 
z
" transform="scale(0.015625)"/>
       <path id="DejaVuSans-6d" d="M 3328 2828 
Q 3544 3216 3844 3400 
Q 4144 3584 4550 3584 
Q 5097 3584 5394 3201 
Q 5691 2819 5691 2113 
L 5691 0 
L 5113 0 
L 5113 2094 
Q 5113 2597 4934 2840 
Q 4756 3084 4391 3084 
Q 3944 3084 3684 2787 
Q 3425 2491 3425 1978 
L 3425 0 
L 2847 0 
L 2847 2094 
Q 2847 2600 2669 2842 
Q 2491 3084 2119 3084 
Q 1678 3084 1418 2786 
Q 1159 2488 1159 1978 
L 1159 0 
L 581 0 
L 581 3500 
L 1159 3500 
L 1159 2956 
Q 1356 3278 1631 3431 
Q 1906 3584 2284 3584 
Q 2666 3584 2933 3390 
Q 3200 3197 3328 2828 
z
" transform="scale(0.015625)"/>
       <path id="DejaVuSans-65" d="M 3597 1894 
L 3597 1613 
L 953 1613 
Q 991 1019 1311 708 
Q 1631 397 2203 397 
Q 2534 397 2845 478 
Q 3156 559 3463 722 
L 3463 178 
Q 3153 47 2828 -22 
Q 2503 -91 2169 -91 
Q 1331 -91 842 396 
Q 353 884 353 1716 
Q 353 2575 817 3079 
Q 1281 3584 2069 3584 
Q 2775 3584 3186 3129 
Q 3597 2675 3597 1894 
z
M 3022 2063 
Q 3016 2534 2758 2815 
Q 2500 3097 2075 3097 
Q 1594 3097 1305 2825 
Q 1016 2553 972 2059 
L 3022 2063 
z
" transform="scale(0.015625)"/>
       <path id="DejaVuSans-20" transform="scale(0.015625)"/>
       <path id="DejaVuSans-5b" d="M 550 4863 
L 1875 4863 
L 1875 4416 
L 1125 4416 
L 1125 -397 
L 1875 -397 
L 1875 -844 
L 550 -844 
L 550 4863 
z
" transform="scale(0.015625)"/>
       <path id="DejaVuSans-73" d="M 2834 3397 
L 2834 2853 
Q 2591 2978 2328 3040 
Q 2066 3103 1784 3103 
Q 1356 3103 1142 2972 
Q 928 2841 928 2578 
Q 928 2378 1081 2264 
Q 1234 2150 1697 2047 
L 1894 2003 
Q 2506 1872 2764 1633 
Q 3022 1394 3022 966 
Q 3022 478 2636 193 
Q 2250 -91 1575 -91 
Q 1294 -91 989 -36 
Q 684 19 347 128 
L 347 722 
Q 666 556 975 473 
Q 1284 391 1588 391 
Q 1994 391 2212 530 
Q 2431 669 2431 922 
Q 2431 1156 2273 1281 
Q 2116 1406 1581 1522 
L 1381 1569 
Q 847 1681 609 1914 
Q 372 2147 372 2553 
Q 372 3047 722 3315 
Q 1072 3584 1716 3584 
Q 2034 3584 2315 3537 
Q 2597 3491 2834 3397 
z
" transform="scale(0.015625)"/>
       <path id="DejaVuSans-5d" d="M 1947 4863 
L 1947 -844 
L 622 -844 
L 622 -397 
L 1369 -397 
L 1369 4416 
L 622 4416 
L 622 4863 
L 1947 4863 
z
" transform="scale(0.015625)"/>
      </defs>
      <use xlink:href="#DejaVuSans-54"/>
      <use xlink:href="#DejaVuSans-69" x="57.958984"/>
      <use xlink:href="#DejaVuSans-6d" x="85.742188"/>
      <use xlink:href="#DejaVuSans-65" x="183.154297"/>
      <use xlink:href="#DejaVuSans-20" x="244.677734"/>
      <use xlink:href="#DejaVuSans-5b" x="276.464844"/>
      <use xlink:href="#DejaVuSans-6d" x="315.478516"/>
      <use xlink:href="#DejaVuSans-73" x="412.890625"/>
      <use xlink:href="#DejaVuSans-5d" x="464.990234"/>
     </g>
    </g>
   </g>
   <g id="matplotlib.axis_2">
    <g id="ytick_1">
     <g id="line2d_11">
      <path d="M 490.44 324.076364 
L 816.84 324.076364 
" clip-path="url(#pecd93d4b4d)" style="fill: none; stroke: #b0b0b0; stroke-width: 0.8; stroke-linecap: square"/>
     </g>
     <g id="line2d_12">
      <defs>
       <path id="mb4026120e4" d="M 0 0 
L -3.5 0 
" style="stroke: #000000; stroke-width: 0.8"/>
      </defs>
      <g>
       <use xlink:href="#mb4026120e4" x="490.44" y="324.076364" style="stroke: #000000; stroke-width: 0.8"/>
      </g>
     </g>
     <g id="text_7">
      <!-- 0 -->
      <g transform="translate(477.0775 327.875582) scale(0.1 -0.1)">
       <use xlink:href="#DejaVuSans-30"/>
      </g>
     </g>
    </g>
    <g id="ytick_2">
     <g id="line2d_13">
      <path d="M 490.44 267.878017 
L 816.84 267.878017 
" clip-path="url(#pecd93d4b4d)" style="fill: none; stroke: #b0b0b0; stroke-width: 0.8; stroke-linecap: square"/>
     </g>
     <g id="line2d_14">
      <g>
       <use xlink:href="#mb4026120e4" x="490.44" y="267.878017" style="stroke: #000000; stroke-width: 0.8"/>
      </g>
     </g>
     <g id="text_8">
      <!-- 5 -->
      <g transform="translate(477.0775 271.677235) scale(0.1 -0.1)">
       <use xlink:href="#DejaVuSans-35"/>
      </g>
     </g>
    </g>
    <g id="ytick_3">
     <g id="line2d_15">
      <path d="M 490.44 211.679669 
L 816.84 211.679669 
" clip-path="url(#pecd93d4b4d)" style="fill: none; stroke: #b0b0b0; stroke-width: 0.8; stroke-linecap: square"/>
     </g>
     <g id="line2d_16">
      <g>
       <use xlink:href="#mb4026120e4" x="490.44" y="211.679669" style="stroke: #000000; stroke-width: 0.8"/>
      </g>
     </g>
     <g id="text_9">
      <!-- 10 -->
      <g transform="translate(470.715 215.478888) scale(0.1 -0.1)">
       <use xlink:href="#DejaVuSans-31"/>
       <use xlink:href="#DejaVuSans-30" x="63.623047"/>
      </g>
     </g>
    </g>
    <g id="ytick_4">
     <g id="line2d_17">
      <path d="M 490.44 155.481322 
L 816.84 155.481322 
" clip-path="url(#pecd93d4b4d)" style="fill: none; stroke: #b0b0b0; stroke-width: 0.8; stroke-linecap: square"/>
     </g>
     <g id="line2d_18">
      <g>
       <use xlink:href="#mb4026120e4" x="490.44" y="155.481322" style="stroke: #000000; stroke-width: 0.8"/>
      </g>
     </g>
     <g id="text_10">
      <!-- 15 -->
      <g transform="translate(470.715 159.280541) scale(0.1 -0.1)">
       <use xlink:href="#DejaVuSans-31"/>
       <use xlink:href="#DejaVuSans-35" x="63.623047"/>
      </g>
     </g>
    </g>
    <g id="ytick_5">
     <g id="line2d_19">
      <path d="M 490.44 99.282975 
L 816.84 99.282975 
" clip-path="url(#pecd93d4b4d)" style="fill: none; stroke: #b0b0b0; stroke-width: 0.8; stroke-linecap: square"/>
     </g>
     <g id="line2d_20">
      <g>
       <use xlink:href="#mb4026120e4" x="490.44" y="99.282975" style="stroke: #000000; stroke-width: 0.8"/>
      </g>
     </g>
     <g id="text_11">
      <!-- 20 -->
      <g transform="translate(470.715 103.082194) scale(0.1 -0.1)">
       <use xlink:href="#DejaVuSans-32"/>
       <use xlink:href="#DejaVuSans-30" x="63.623047"/>
      </g>
     </g>
    </g>
    <g id="text_12">
     <!-- Value Signed 16 Bits -->
     <g transform="translate(464.635313 251.842344) rotate(-90) scale(0.1 -0.1)">
      <defs>
       <path id="DejaVuSans-56" d="M 1831 0 
L 50 4666 
L 709 4666 
L 2188 738 
L 3669 4666 
L 4325 4666 
L 2547 0 
L 1831 0 
z
" transform="scale(0.015625)"/>
       <path id="DejaVuSans-61" d="M 2194 1759 
Q 1497 1759 1228 1600 
Q 959 1441 959 1056 
Q 959 750 1161 570 
Q 1363 391 1709 391 
Q 2188 391 2477 730 
Q 2766 1069 2766 1631 
L 2766 1759 
L 2194 1759 
z
M 3341 1997 
L 3341 0 
L 2766 0 
L 2766 531 
Q 2569 213 2275 61 
Q 1981 -91 1556 -91 
Q 1019 -91 701 211 
Q 384 513 384 1019 
Q 384 1609 779 1909 
Q 1175 2209 1959 2209 
L 2766 2209 
L 2766 2266 
Q 2766 2663 2505 2880 
Q 2244 3097 1772 3097 
Q 1472 3097 1187 3025 
Q 903 2953 641 2809 
L 641 3341 
Q 956 3463 1253 3523 
Q 1550 3584 1831 3584 
Q 2591 3584 2966 3190 
Q 3341 2797 3341 1997 
z
" transform="scale(0.015625)"/>
       <path id="DejaVuSans-6c" d="M 603 4863 
L 1178 4863 
L 1178 0 
L 603 0 
L 603 4863 
z
" transform="scale(0.015625)"/>
       <path id="DejaVuSans-75" d="M 544 1381 
L 544 3500 
L 1119 3500 
L 1119 1403 
Q 1119 906 1312 657 
Q 1506 409 1894 409 
Q 2359 409 2629 706 
Q 2900 1003 2900 1516 
L 2900 3500 
L 3475 3500 
L 3475 0 
L 2900 0 
L 2900 538 
Q 2691 219 2414 64 
Q 2138 -91 1772 -91 
Q 1169 -91 856 284 
Q 544 659 544 1381 
z
M 1991 3584 
L 1991 3584 
z
" transform="scale(0.015625)"/>
       <path id="DejaVuSans-53" d="M 3425 4513 
L 3425 3897 
Q 3066 4069 2747 4153 
Q 2428 4238 2131 4238 
Q 1616 4238 1336 4038 
Q 1056 3838 1056 3469 
Q 1056 3159 1242 3001 
Q 1428 2844 1947 2747 
L 2328 2669 
Q 3034 2534 3370 2195 
Q 3706 1856 3706 1288 
Q 3706 609 3251 259 
Q 2797 -91 1919 -91 
Q 1588 -91 1214 -16 
Q 841 59 441 206 
L 441 856 
Q 825 641 1194 531 
Q 1563 422 1919 422 
Q 2459 422 2753 634 
Q 3047 847 3047 1241 
Q 3047 1584 2836 1778 
Q 2625 1972 2144 2069 
L 1759 2144 
Q 1053 2284 737 2584 
Q 422 2884 422 3419 
Q 422 4038 858 4394 
Q 1294 4750 2059 4750 
Q 2388 4750 2728 4690 
Q 3069 4631 3425 4513 
z
" transform="scale(0.015625)"/>
       <path id="DejaVuSans-67" d="M 2906 1791 
Q 2906 2416 2648 2759 
Q 2391 3103 1925 3103 
Q 1463 3103 1205 2759 
Q 947 2416 947 1791 
Q 947 1169 1205 825 
Q 1463 481 1925 481 
Q 2391 481 2648 825 
Q 2906 1169 2906 1791 
z
M 3481 434 
Q 3481 -459 3084 -895 
Q 2688 -1331 1869 -1331 
Q 1566 -1331 1297 -1286 
Q 1028 -1241 775 -1147 
L 775 -588 
Q 1028 -725 1275 -790 
Q 1522 -856 1778 -856 
Q 2344 -856 2625 -561 
Q 2906 -266 2906 331 
L 2906 616 
Q 2728 306 2450 153 
Q 2172 0 1784 0 
Q 1141 0 747 490 
Q 353 981 353 1791 
Q 353 2603 747 3093 
Q 1141 3584 1784 3584 
Q 2172 3584 2450 3431 
Q 2728 3278 2906 2969 
L 2906 3500 
L 3481 3500 
L 3481 434 
z
" transform="scale(0.015625)"/>
       <path id="DejaVuSans-6e" d="M 3513 2113 
L 3513 0 
L 2938 0 
L 2938 2094 
Q 2938 2591 2744 2837 
Q 2550 3084 2163 3084 
Q 1697 3084 1428 2787 
Q 1159 2491 1159 1978 
L 1159 0 
L 581 0 
L 581 3500 
L 1159 3500 
L 1159 2956 
Q 1366 3272 1645 3428 
Q 1925 3584 2291 3584 
Q 2894 3584 3203 3211 
Q 3513 2838 3513 2113 
z
" transform="scale(0.015625)"/>
       <path id="DejaVuSans-64" d="M 2906 2969 
L 2906 4863 
L 3481 4863 
L 3481 0 
L 2906 0 
L 2906 525 
Q 2725 213 2448 61 
Q 2172 -91 1784 -91 
Q 1150 -91 751 415 
Q 353 922 353 1747 
Q 353 2572 751 3078 
Q 1150 3584 1784 3584 
Q 2172 3584 2448 3432 
Q 2725 3281 2906 2969 
z
M 947 1747 
Q 947 1113 1208 752 
Q 1469 391 1925 391 
Q 2381 391 2643 752 
Q 2906 1113 2906 1747 
Q 2906 2381 2643 2742 
Q 2381 3103 1925 3103 
Q 1469 3103 1208 2742 
Q 947 2381 947 1747 
z
" transform="scale(0.015625)"/>
       <path id="DejaVuSans-36" d="M 2113 2584 
Q 1688 2584 1439 2293 
Q 1191 2003 1191 1497 
Q 1191 994 1439 701 
Q 1688 409 2113 409 
Q 2538 409 2786 701 
Q 3034 994 3034 1497 
Q 3034 2003 2786 2293 
Q 2538 2584 2113 2584 
z
M 3366 4563 
L 3366 3988 
Q 3128 4100 2886 4159 
Q 2644 4219 2406 4219 
Q 1781 4219 1451 3797 
Q 1122 3375 1075 2522 
Q 1259 2794 1537 2939 
Q 1816 3084 2150 3084 
Q 2853 3084 3261 2657 
Q 3669 2231 3669 1497 
Q 3669 778 3244 343 
Q 2819 -91 2113 -91 
Q 1303 -91 875 529 
Q 447 1150 447 2328 
Q 447 3434 972 4092 
Q 1497 4750 2381 4750 
Q 2619 4750 2861 4703 
Q 3103 4656 3366 4563 
z
" transform="scale(0.015625)"/>
       <path id="DejaVuSans-42" d="M 1259 2228 
L 1259 519 
L 2272 519 
Q 2781 519 3026 730 
Q 3272 941 3272 1375 
Q 3272 1813 3026 2020 
Q 2781 2228 2272 2228 
L 1259 2228 
z
M 1259 4147 
L 1259 2741 
L 2194 2741 
Q 2656 2741 2882 2914 
Q 3109 3088 3109 3444 
Q 3109 3797 2882 3972 
Q 2656 4147 2194 4147 
L 1259 4147 
z
M 628 4666 
L 2241 4666 
Q 2963 4666 3353 4366 
Q 3744 4066 3744 3513 
Q 3744 3084 3544 2831 
Q 3344 2578 2956 2516 
Q 3422 2416 3680 2098 
Q 3938 1781 3938 1306 
Q 3938 681 3513 340 
Q 3088 0 2303 0 
L 628 0 
L 628 4666 
z
" transform="scale(0.015625)"/>
       <path id="DejaVuSans-74" d="M 1172 4494 
L 1172 3500 
L 2356 3500 
L 2356 3053 
L 1172 3053 
L 1172 1153 
Q 1172 725 1289 603 
Q 1406 481 1766 481 
L 2356 481 
L 2356 0 
L 1766 0 
Q 1100 0 847 248 
Q 594 497 594 1153 
L 594 3053 
L 172 3053 
L 172 3500 
L 594 3500 
L 594 4494 
L 1172 4494 
z
" transform="scale(0.015625)"/>
      </defs>
      <use xlink:href="#DejaVuSans-56"/>
      <use xlink:href="#DejaVuSans-61" x="60.658203"/>
      <use xlink:href="#DejaVuSans-6c" x="121.9375"/>
      <use xlink:href="#DejaVuSans-75" x="149.720703"/>
      <use xlink:href="#DejaVuSans-65" x="213.099609"/>
      <use xlink:href="#DejaVuSans-20" x="274.623047"/>
      <use xlink:href="#DejaVuSans-53" x="306.410156"/>
      <use xlink:href="#DejaVuSans-69" x="369.886719"/>
      <use xlink:href="#DejaVuSans-67" x="397.669922"/>
      <use xlink:href="#DejaVuSans-6e" x="461.146484"/>
      <use xlink:href="#DejaVuSans-65" x="524.525391"/>
      <use xlink:href="#DejaVuSans-64" x="586.048828"/>
      <use xlink:href="#DejaVuSans-20" x="649.525391"/>
      <use xlink:href="#DejaVuSans-31" x="681.3125"/>
      <use xlink:href="#DejaVuSans-36" x="744.935547"/>
      <use xlink:href="#DejaVuSans-20" x="808.558594"/>
      <use xlink:href="#DejaVuSans-42" x="840.345703"/>
      <use xlink:href="#DejaVuSans-69" x="908.949219"/>
      <use xlink:href="#DejaVuSans-74" x="936.732422"/>
      <use xlink:href="#DejaVuSans-73" x="975.941406"/>
     </g>
    </g>
   </g>
   <g id="line2d_21">
    <path d="M 490.44 324.076364 
L 497.101224 324.076364 
L 497.101224 324.076364 
L 503.762449 324.076364 
L 503.762449 324.076364 
L 510.423673 324.076364 
L 510.423673 324.076364 
L 517.084898 324.076364 
L 517.084898 324.076364 
L 523.746122 324.076364 
L 523.746122 324.076364 
L 530.407347 324.076364 
L 530.407347 312.836694 
L 537.068571 312.836694 
L 537.068571 312.836694 
L 543.729796 312.836694 
L 543.729796 301.597025 
L 550.39102 301.597025 
L 550.39102 301.597025 
L 557.052245 301.597025 
L 557.052245 290.357355 
L 563.713469 290.357355 
L 563.713469 290.357355 
L 570.374694 290.357355 
L 570.374694 279.117686 
L 577.035918 279.117686 
L 577.035918 279.117686 
L 583.697143 279.117686 
L 583.697143 267.878017 
L 590.358367 267.878017 
L 590.358367 267.878017 
L 597.019592 267.878017 
L 597.019592 256.638347 
L 603.680816 256.638347 
L 603.680816 256.638347 
L 610.342041 256.638347 
L 610.342041 245.398678 
L 617.003265 245.398678 
L 617.003265 245.398678 
L 623.66449 245.398678 
L 623.66449 234.159008 
L 630.325714 234.159008 
L 630.325714 234.159008 
L 636.986939 234.159008 
L 636.986939 222.919339 
L 643.648163 222.919339 
L 643.648163 222.919339 
L 650.309388 222.919339 
L 650.309388 211.679669 
L 656.970612 211.679669 
L 656.970612 211.679669 
L 663.631837 211.679669 
L 663.631837 200.44 
L 670.293061 200.44 
L 670.293061 200.44 
L 676.954286 200.44 
L 676.954286 189.200331 
L 683.61551 189.200331 
L 683.61551 189.200331 
L 690.276735 189.200331 
L 690.276735 177.960661 
L 696.937959 177.960661 
L 696.937959 177.960661 
L 703.599184 177.960661 
L 703.599184 166.720992 
L 710.260408 166.720992 
L 710.260408 166.720992 
L 716.921633 166.720992 
L 716.921633 155.481322 
L 723.582857 155.481322 
L 723.582857 155.481322 
L 730.244082 155.481322 
L 730.244082 144.241653 
L 736.905306 144.241653 
L 736.905306 144.241653 
L 743.566531 144.241653 
L 743.566531 133.001983 
L 750.227755 133.001983 
L 750.227755 133.001983 
L 756.88898 133.001983 
L 756.88898 121.762314 
L 763.550204 121.762314 
L 763.550204 121.762314 
L 770.211429 121.762314 
L 770.211429 110.522645 
L 776.872653 110.522645 
L 776.872653 110.522645 
L 783.533878 110.522645 
L 783.533878 99.282975 
L 790.195102 99.282975 
L 790.195102 99.282975 
L 796.856327 99.282975 
L 796.856327 88.043306 
L 803.517551 88.043306 
L 803.517551 88.043306 
L 810.178776 88.043306 
L 810.178776 76.803636 
L 816.84 76.803636 
L 816.84 76.803636 
" clip-path="url(#pecd93d4b4d)" style="fill: none; stroke: #008000; stroke-width: 2; stroke-linecap: square"/>
   </g>
   <g id="line2d_22">
    <path d="M 816.84 336.44 
L 816.84 64.44 
" clip-path="url(#pecd93d4b4d)" style="fill: none; stroke-dasharray: 5.55,2.4; stroke-dashoffset: 0; stroke: #ff0000; stroke-opacity: 0.7; stroke-width: 1.5"/>
   </g>
   <g id="patch_4">
    <path d="M 490.44 336.44 
L 490.44 64.44 
" style="fill: none; stroke: #000000; stroke-width: 0.8; stroke-linejoin: miter; stroke-linecap: square"/>
   </g>
   <g id="patch_5">
    <path d="M 816.84 336.44 
L 816.84 64.44 
" style="fill: none; stroke: #000000; stroke-width: 0.8; stroke-linejoin: miter; stroke-linecap: square"/>
   </g>
   <g id="patch_6">
    <path d="M 490.44 336.44 
L 816.84 336.44 
" style="fill: none; stroke: #000000; stroke-width: 0.8; stroke-linejoin: miter; stroke-linecap: square"/>
   </g>
   <g id="patch_7">
    <path d="M 490.44 64.44 
L 816.84 64.44 
" style="fill: none; stroke: #000000; stroke-width: 0.8; stroke-linejoin: miter; stroke-linecap: square"/>
   </g>
   <g id="text_13">
    <!-- 245 -->
    <g transform="translate(804.413724 351.7818) scale(0.1 -0.1)">
     <defs>
      <path id="DejaVuSans-34" d="M 2419 4116 
L 825 1625 
L 2419 1625 
L 2419 4116 
z
M 2253 4666 
L 3047 4666 
L 3047 1625 
L 3713 1625 
L 3713 1100 
L 3047 1100 
L 3047 0 
L 2419 0 
L 2419 1100 
L 313 1100 
L 313 1709 
L 2253 4666 
z
" transform="scale(0.015625)"/>
     </defs>
     <use xlink:href="#DejaVuSans-32"/>
     <use xlink:href="#DejaVuSans-34" x="63.623047"/>
     <use xlink:href="#DejaVuSans-35" x="127.246094"/>
    </g>
   </g>
   <g id="text_14">
    <!-- Counter 16 Bits -->
    <g transform="translate(606.953438 58.44) scale(0.12 -0.12)">
     <defs>
      <path id="DejaVuSans-43" d="M 4122 4306 
L 4122 3641 
Q 3803 3938 3442 4084 
Q 3081 4231 2675 4231 
Q 1875 4231 1450 3742 
Q 1025 3253 1025 2328 
Q 1025 1406 1450 917 
Q 1875 428 2675 428 
Q 3081 428 3442 575 
Q 3803 722 4122 1019 
L 4122 359 
Q 3791 134 3420 21 
Q 3050 -91 2638 -91 
Q 1578 -91 968 557 
Q 359 1206 359 2328 
Q 359 3453 968 4101 
Q 1578 4750 2638 4750 
Q 3056 4750 3426 4639 
Q 3797 4528 4122 4306 
z
" transform="scale(0.015625)"/>
      <path id="DejaVuSans-6f" d="M 1959 3097 
Q 1497 3097 1228 2736 
Q 959 2375 959 1747 
Q 959 1119 1226 758 
Q 1494 397 1959 397 
Q 2419 397 2687 759 
Q 2956 1122 2956 1747 
Q 2956 2369 2687 2733 
Q 2419 3097 1959 3097 
z
M 1959 3584 
Q 2709 3584 3137 3096 
Q 3566 2609 3566 1747 
Q 3566 888 3137 398 
Q 2709 -91 1959 -91 
Q 1206 -91 779 398 
Q 353 888 353 1747 
Q 353 2609 779 3096 
Q 1206 3584 1959 3584 
z
" transform="scale(0.015625)"/>
      <path id="DejaVuSans-72" d="M 2631 2963 
Q 2534 3019 2420 3045 
Q 2306 3072 2169 3072 
Q 1681 3072 1420 2755 
Q 1159 2438 1159 1844 
L 1159 0 
L 581 0 
L 581 3500 
L 1159 3500 
L 1159 2956 
Q 1341 3275 1631 3429 
Q 1922 3584 2338 3584 
Q 2397 3584 2469 3576 
Q 2541 3569 2628 3553 
L 2631 2963 
z
" transform="scale(0.015625)"/>
     </defs>
     <use xlink:href="#DejaVuSans-43"/>
     <use xlink:href="#DejaVuSans-6f" x="69.824219"/>
     <use xlink:href="#DejaVuSans-75" x="131.005859"/>
     <use xlink:href="#DejaVuSans-6e" x="194.384766"/>
     <use xlink:href="#DejaVuSans-74" x="257.763672"/>
     <use xlink:href="#DejaVuSans-65" x="296.972656"/>
     <use xlink:href="#DejaVuSans-72" x="358.496094"/>
     <use xlink:href="#DejaVuSans-20" x="399.609375"/>
     <use xlink:href="#DejaVuSans-31" x="431.396484"/>
     <use xlink:href="#DejaVuSans-36" x="495.019531"/>
     <use xlink:href="#DejaVuSans-20" x="558.642578"/>
     <use xlink:href="#DejaVuSans-42" x="590.429688"/>
     <use xlink:href="#DejaVuSans-69" x="659.033203"/>
     <use xlink:href="#DejaVuSans-74" x="686.816406"/>
     <use xlink:href="#DejaVuSans-73" x="726.025391"/>
    </g>
   </g>
   <g id="legend_1">
    <g id="patch_8">
     <path d="M 497.44 87.118125 
L 567.916563 87.118125 
Q 569.916563 87.118125 569.916563 85.118125 
L 569.916563 71.44 
Q 569.916563 69.44 567.916563 69.44 
L 497.44 69.44 
Q 495.44 69.44 495.44 71.44 
L 495.44 85.118125 
Q 495.44 87.118125 497.44 87.118125 
z
" style="fill: #ffffff; opacity: 0.8; stroke: #cccccc; stroke-linejoin: miter"/>
    </g>
    <g id="line2d_23">
     <path d="M 499.44 77.538437 
L 509.44 77.538437 
L 509.44 77.538437 
L 519.44 77.538437 
L 519.44 77.538437 
" style="fill: none; stroke: #008000; stroke-width: 2; stroke-linecap: square"/>
    </g>
    <g id="text_15">
     <!-- counter -->
     <g transform="translate(527.44 81.038437) scale(0.1 -0.1)">
      <defs>
       <path id="DejaVuSans-63" d="M 3122 3366 
L 3122 2828 
Q 2878 2963 2633 3030 
Q 2388 3097 2138 3097 
Q 1578 3097 1268 2742 
Q 959 2388 959 1747 
Q 959 1106 1268 751 
Q 1578 397 2138 397 
Q 2388 397 2633 464 
Q 2878 531 3122 666 
L 3122 134 
Q 2881 22 2623 -34 
Q 2366 -91 2075 -91 
Q 1284 -91 818 406 
Q 353 903 353 1747 
Q 353 2603 823 3093 
Q 1294 3584 2113 3584 
Q 2378 3584 2631 3529 
Q 2884 3475 3122 3366 
z
" transform="scale(0.015625)"/>
      </defs>
      <use xlink:href="#DejaVuSans-63"/>
      <use xlink:href="#DejaVuSans-6f" x="54.980469"/>
      <use xlink:href="#DejaVuSans-75" x="116.162109"/>
      <use xlink:href="#DejaVuSans-6e" x="179.541016"/>
      <use xlink:href="#DejaVuSans-74" x="242.919922"/>
      <use xlink:href="#DejaVuSans-65" x="282.128906"/>
      <use xlink:href="#DejaVuSans-72" x="343.652344"/>
     </g>
    </g>
   </g>
  </g>
  <g id="axes_3">
   <g id="patch_9">
    <path d="M 82.44 676.44 
L 816.84 676.44 
L 816.84 404.44 
L 82.44 404.44 
z
" style="fill: #ffffff"/>
   </g>
   <g id="PolyCollection_1">
    <defs>
     <path id="mffecf5a2bf" d="M 82.44 -324.023099 
L 82.44 -324.023099 
L 97.427755 -324.023099 
L 97.427755 -324.023099 
L 112.41551 -324.023099 
L 112.41551 -324.023099 
L 127.403265 -324.023099 
L 127.403265 -324.023099 
L 142.39102 -324.023099 
L 142.39102 -324.023099 
L 157.378776 -324.023099 
L 157.378776 -324.023099 
L 172.366531 -324.023099 
L 172.366531 -324.023099 
L 187.354286 -324.023099 
L 187.354286 -324.023099 
L 202.342041 -324.023099 
L 202.342041 -324.023099 
L 217.329796 -324.023099 
L 217.329796 -324.023099 
L 232.317551 -324.023099 
L 232.317551 -324.023099 
L 247.305306 -324.023099 
L 247.305306 -324.023099 
L 262.293061 -324.023099 
L 262.293061 -324.023099 
L 277.280816 -324.023099 
L 277.280816 -324.023099 
L 292.268571 -324.023099 
L 292.268571 -324.023099 
L 307.256327 -324.023099 
L 307.256327 -324.023099 
L 322.244082 -324.023099 
L 322.244082 -324.023099 
L 337.231837 -324.023099 
L 337.231837 -324.023099 
L 352.219592 -324.023099 
L 352.219592 -324.023099 
L 367.207347 -324.023099 
L 367.207347 -324.023099 
L 382.195102 -324.023099 
L 382.195102 -324.023099 
L 397.182857 -324.023099 
L 397.182857 -324.023099 
L 412.170612 -324.023099 
L 412.170612 -324.023099 
L 427.158367 -324.023099 
L 427.158367 -324.023099 
L 442.146122 -324.023099 
L 442.146122 -324.023099 
L 457.133878 -324.023099 
L 457.133878 -324.023099 
L 472.121633 -324.023099 
L 472.121633 -324.023099 
L 487.109388 -324.023099 
L 487.109388 -324.023099 
L 502.097143 -324.023099 
L 502.097143 -324.023099 
L 517.084898 -324.023099 
L 517.084898 -324.023099 
L 532.072653 -324.023099 
L 532.072653 -324.023099 
L 547.060408 -324.023099 
L 547.060408 -324.023099 
L 562.048163 -324.023099 
L 562.048163 -324.023099 
L 577.035918 -324.023099 
L 577.035918 -324.023099 
L 592.023673 -324.023099 
L 592.023673 -324.023099 
L 607.011429 -324.023099 
L 607.011429 -324.023099 
L 621.999184 -324.023099 
L 621.999184 -324.023099 
L 636.986939 -324.023099 
L 636.986939 -324.023099 
L 651.974694 -324.023099 
L 651.974694 -324.023099 
L 666.962449 -324.023099 
L 666.962449 -324.023099 
L 681.950204 -324.023099 
L 681.950204 -324.023099 
L 696.937959 -324.023099 
L 696.937959 -324.023099 
L 711.925714 -324.023099 
L 711.925714 -324.023099 
L 726.913469 -324.023099 
L 726.913469 -324.023099 
L 741.901224 -324.023099 
L 741.901224 -324.023099 
L 756.88898 -324.023099 
L 756.88898 -324.023099 
L 771.876735 -324.023099 
L 771.876735 -324.023099 
L 786.86449 -324.023099 
L 786.86449 -324.023099 
L 801.852245 -324.023099 
L 801.852245 -324.023099 
L 816.84 -324.023099 
L 816.84 -324.023099 
L 816.84 -324.023099 
L 816.84 -324.023099 
L 816.84 -339.347042 
L 801.852245 -339.347042 
L 801.852245 -324.023099 
L 786.86449 -324.023099 
L 786.86449 -339.347042 
L 771.876735 -339.347042 
L 771.876735 -324.023099 
L 756.88898 -324.023099 
L 756.88898 -339.347042 
L 741.901224 -339.347042 
L 741.901224 -324.023099 
L 726.913469 -324.023099 
L 726.913469 -339.347042 
L 711.925714 -339.347042 
L 711.925714 -324.023099 
L 696.937959 -324.023099 
L 696.937959 -339.347042 
L 681.950204 -339.347042 
L 681.950204 -324.023099 
L 666.962449 -324.023099 
L 666.962449 -339.347042 
L 651.974694 -339.347042 
L 651.974694 -324.023099 
L 636.986939 -324.023099 
L 636.986939 -339.347042 
L 621.999184 -339.347042 
L 621.999184 -324.023099 
L 607.011429 -324.023099 
L 607.011429 -339.347042 
L 592.023673 -339.347042 
L 592.023673 -324.023099 
L 577.035918 -324.023099 
L 577.035918 -339.347042 
L 562.048163 -339.347042 
L 562.048163 -324.023099 
L 547.060408 -324.023099 
L 547.060408 -339.347042 
L 532.072653 -339.347042 
L 532.072653 -324.023099 
L 517.084898 -324.023099 
L 517.084898 -339.347042 
L 502.097143 -339.347042 
L 502.097143 -324.023099 
L 487.109388 -324.023099 
L 487.109388 -339.347042 
L 472.121633 -339.347042 
L 472.121633 -324.023099 
L 457.133878 -324.023099 
L 457.133878 -339.347042 
L 442.146122 -339.347042 
L 442.146122 -324.023099 
L 427.158367 -324.023099 
L 427.158367 -339.347042 
L 412.170612 -339.347042 
L 412.170612 -324.023099 
L 397.182857 -324.023099 
L 397.182857 -339.347042 
L 382.195102 -339.347042 
L 382.195102 -324.023099 
L 367.207347 -324.023099 
L 367.207347 -339.347042 
L 352.219592 -339.347042 
L 352.219592 -324.023099 
L 337.231837 -324.023099 
L 337.231837 -339.347042 
L 322.244082 -339.347042 
L 322.244082 -324.023099 
L 307.256327 -324.023099 
L 307.256327 -339.347042 
L 292.268571 -339.347042 
L 292.268571 -324.023099 
L 277.280816 -324.023099 
L 277.280816 -339.347042 
L 262.293061 -339.347042 
L 262.293061 -324.023099 
L 247.305306 -324.023099 
L 247.305306 -339.347042 
L 232.317551 -339.347042 
L 232.317551 -324.023099 
L 217.329796 -324.023099 
L 217.329796 -339.347042 
L 202.342041 -339.347042 
L 202.342041 -324.023099 
L 187.354286 -324.023099 
L 187.354286 -339.347042 
L 172.366531 -339.347042 
L 172.366531 -324.023099 
L 157.378776 -324.023099 
L 157.378776 -339.347042 
L 142.39102 -339.347042 
L 142.39102 -324.023099 
L 127.403265 -324.023099 
L 127.403265 -339.347042 
L 112.41551 -339.347042 
L 112.41551 -324.023099 
L 97.427755 -324.023099 
L 97.427755 -324.023099 
L 82.44 -324.023099 
z
" style="stroke: #008000; stroke-opacity: 0.3"/>
    </defs>
    <g clip-path="url(#p72d1bf8ed9)">
     <use xlink:href="#mffecf5a2bf" x="0" y="755.28" style="fill: #008000; fill-opacity: 0.3; stroke: #008000; stroke-opacity: 0.3"/>
    </g>
   </g>
   <g id="PolyCollection_2">
    <defs>
     <path id="m3bbbd9b59f" d="M 82.44 -308.699155 
L 82.44 -293.375211 
L 97.427755 -293.375211 
L 97.427755 -293.375211 
L 112.41551 -293.375211 
L 112.41551 -293.375211 
L 127.403265 -293.375211 
L 127.403265 -293.375211 
L 142.39102 -293.375211 
L 142.39102 -293.375211 
L 157.378776 -293.375211 
L 157.378776 -293.375211 
L 172.366531 -293.375211 
L 172.366531 -293.375211 
L 187.354286 -293.375211 
L 187.354286 -293.375211 
L 202.342041 -293.375211 
L 202.342041 -293.375211 
L 217.329796 -293.375211 
L 217.329796 -293.375211 
L 232.317551 -293.375211 
L 232.317551 -293.375211 
L 247.305306 -293.375211 
L 247.305306 -293.375211 
L 262.293061 -293.375211 
L 262.293061 -293.375211 
L 277.280816 -293.375211 
L 277.280816 -293.375211 
L 292.268571 -293.375211 
L 292.268571 -293.375211 
L 307.256327 -293.375211 
L 307.256327 -293.375211 
L 322.244082 -293.375211 
L 322.244082 -293.375211 
L 337.231837 -293.375211 
L 337.231837 -293.375211 
L 352.219592 -293.375211 
L 352.219592 -293.375211 
L 367.207347 -293.375211 
L 367.207347 -293.375211 
L 382.195102 -293.375211 
L 382.195102 -293.375211 
L 397.182857 -293.375211 
L 397.182857 -293.375211 
L 412.170612 -293.375211 
L 412.170612 -293.375211 
L 427.158367 -293.375211 
L 427.158367 -293.375211 
L 442.146122 -293.375211 
L 442.146122 -293.375211 
L 457.133878 -293.375211 
L 457.133878 -293.375211 
L 472.121633 -293.375211 
L 472.121633 -293.375211 
L 487.109388 -293.375211 
L 487.109388 -293.375211 
L 502.097143 -293.375211 
L 502.097143 -293.375211 
L 517.084898 -293.375211 
L 517.084898 -293.375211 
L 532.072653 -293.375211 
L 532.072653 -293.375211 
L 547.060408 -293.375211 
L 547.060408 -293.375211 
L 562.048163 -293.375211 
L 562.048163 -293.375211 
L 577.035918 -293.375211 
L 577.035918 -293.375211 
L 592.023673 -293.375211 
L 592.023673 -293.375211 
L 607.011429 -293.375211 
L 607.011429 -293.375211 
L 621.999184 -293.375211 
L 621.999184 -293.375211 
L 636.986939 -293.375211 
L 636.986939 -293.375211 
L 651.974694 -293.375211 
L 651.974694 -293.375211 
L 666.962449 -293.375211 
L 666.962449 -293.375211 
L 681.950204 -293.375211 
L 681.950204 -293.375211 
L 696.937959 -293.375211 
L 696.937959 -293.375211 
L 711.925714 -293.375211 
L 711.925714 -293.375211 
L 726.913469 -293.375211 
L 726.913469 -293.375211 
L 741.901224 -293.375211 
L 741.901224 -293.375211 
L 756.88898 -293.375211 
L 756.88898 -293.375211 
L 771.876735 -293.375211 
L 771.876735 -293.375211 
L 786.86449 -293.375211 
L 786.86449 -293.375211 
L 801.852245 -293.375211 
L 801.852245 -293.375211 
L 816.84 -293.375211 
L 816.84 -293.375211 
L 816.84 -293.375211 
L 816.84 -293.375211 
L 816.84 -293.375211 
L 801.852245 -293.375211 
L 801.852245 -293.375211 
L 786.86449 -293.375211 
L 786.86449 -293.375211 
L 771.876735 -293.375211 
L 771.876735 -293.375211 
L 756.88898 -293.375211 
L 756.88898 -293.375211 
L 741.901224 -293.375211 
L 741.901224 -293.375211 
L 726.913469 -293.375211 
L 726.913469 -293.375211 
L 711.925714 -293.375211 
L 711.925714 -293.375211 
L 696.937959 -293.375211 
L 696.937959 -293.375211 
L 681.950204 -293.375211 
L 681.950204 -293.375211 
L 666.962449 -293.375211 
L 666.962449 -293.375211 
L 651.974694 -293.375211 
L 651.974694 -293.375211 
L 636.986939 -293.375211 
L 636.986939 -293.375211 
L 621.999184 -293.375211 
L 621.999184 -293.375211 
L 607.011429 -293.375211 
L 607.011429 -293.375211 
L 592.023673 -293.375211 
L 592.023673 -293.375211 
L 577.035918 -293.375211 
L 577.035918 -293.375211 
L 562.048163 -293.375211 
L 562.048163 -293.375211 
L 547.060408 -293.375211 
L 547.060408 -293.375211 
L 532.072653 -293.375211 
L 532.072653 -293.375211 
L 517.084898 -293.375211 
L 517.084898 -293.375211 
L 502.097143 -293.375211 
L 502.097143 -293.375211 
L 487.109388 -293.375211 
L 487.109388 -293.375211 
L 472.121633 -293.375211 
L 472.121633 -293.375211 
L 457.133878 -293.375211 
L 457.133878 -293.375211 
L 442.146122 -293.375211 
L 442.146122 -293.375211 
L 427.158367 -293.375211 
L 427.158367 -293.375211 
L 412.170612 -293.375211 
L 412.170612 -293.375211 
L 397.182857 -293.375211 
L 397.182857 -293.375211 
L 382.195102 -293.375211 
L 382.195102 -293.375211 
L 367.207347 -293.375211 
L 367.207347 -293.375211 
L 352.219592 -293.375211 
L 352.219592 -293.375211 
L 337.231837 -293.375211 
L 337.231837 -293.375211 
L 322.244082 -293.375211 
L 322.244082 -293.375211 
L 307.256327 -293.375211 
L 307.256327 -293.375211 
L 292.268571 -293.375211 
L 292.268571 -293.375211 
L 277.280816 -293.375211 
L 277.280816 -293.375211 
L 262.293061 -293.375211 
L 262.293061 -293.375211 
L 247.305306 -293.375211 
L 247.305306 -293.375211 
L 232.317551 -293.375211 
L 232.317551 -293.375211 
L 217.329796 -293.375211 
L 217.329796 -293.375211 
L 202.342041 -293.375211 
L 202.342041 -293.375211 
L 187.354286 -293.375211 
L 187.354286 -293.375211 
L 172.366531 -293.375211 
L 172.366531 -293.375211 
L 157.378776 -293.375211 
L 157.378776 -308.699155 
L 142.39102 -308.699155 
L 142.39102 -308.699155 
L 127.403265 -308.699155 
L 127.403265 -308.699155 
L 112.41551 -308.699155 
L 112.41551 -308.699155 
L 97.427755 -308.699155 
L 97.427755 -308.699155 
L 82.44 -308.699155 
z
" style="stroke: #008000; stroke-opacity: 0.3"/>
    </defs>
    <g clip-path="url(#p72d1bf8ed9)">
     <use xlink:href="#m3bbbd9b59f" x="0" y="755.28" style="fill: #008000; fill-opacity: 0.3; stroke: #008000; stroke-opacity: 0.3"/>
    </g>
   </g>
   <g id="matplotlib.axis_3">
    <g id="xtick_6">
     <g id="line2d_24">
      <path d="M 82.44 676.44 
L 82.44 404.44 
" clip-path="url(#p72d1bf8ed9)" style="fill: none; stroke: #b0b0b0; stroke-width: 0.8; stroke-linecap: square"/>
     </g>
     <g id="line2d_25">
      <g>
       <use xlink:href="#m71ab1bd1f7" x="82.44" y="676.44" style="stroke: #000000; stroke-width: 0.8"/>
      </g>
     </g>
     <g id="text_16">
      <!-- 0 -->
      <g transform="translate(79.25875 691.038437) scale(0.1 -0.1)">
       <use xlink:href="#DejaVuSans-30"/>
      </g>
     </g>
    </g>
    <g id="xtick_7">
     <g id="line2d_26">
      <path d="M 232.317551 676.44 
L 232.317551 404.44 
" clip-path="url(#p72d1bf8ed9)" style="fill: none; stroke: #b0b0b0; stroke-width: 0.8; stroke-linecap: square"/>
     </g>
     <g id="line2d_27">
      <g>
       <use xlink:href="#m71ab1bd1f7" x="232.317551" y="676.44" style="stroke: #000000; stroke-width: 0.8"/>
      </g>
     </g>
     <g id="text_17">
      <!-- 50 -->
      <g transform="translate(225.955051 691.038437) scale(0.1 -0.1)">
       <use xlink:href="#DejaVuSans-35"/>
       <use xlink:href="#DejaVuSans-30" x="63.623047"/>
      </g>
     </g>
    </g>
    <g id="xtick_8">
     <g id="line2d_28">
      <path d="M 382.195102 676.44 
L 382.195102 404.44 
" clip-path="url(#p72d1bf8ed9)" style="fill: none; stroke: #b0b0b0; stroke-width: 0.8; stroke-linecap: square"/>
     </g>
     <g id="line2d_29">
      <g>
       <use xlink:href="#m71ab1bd1f7" x="382.195102" y="676.44" style="stroke: #000000; stroke-width: 0.8"/>
      </g>
     </g>
     <g id="text_18">
      <!-- 100 -->
      <g transform="translate(372.651352 691.038437) scale(0.1 -0.1)">
       <use xlink:href="#DejaVuSans-31"/>
       <use xlink:href="#DejaVuSans-30" x="63.623047"/>
       <use xlink:href="#DejaVuSans-30" x="127.246094"/>
      </g>
     </g>
    </g>
    <g id="xtick_9">
     <g id="line2d_30">
      <path d="M 532.072653 676.44 
L 532.072653 404.44 
" clip-path="url(#p72d1bf8ed9)" style="fill: none; stroke: #b0b0b0; stroke-width: 0.8; stroke-linecap: square"/>
     </g>
     <g id="line2d_31">
      <g>
       <use xlink:href="#m71ab1bd1f7" x="532.072653" y="676.44" style="stroke: #000000; stroke-width: 0.8"/>
      </g>
     </g>
     <g id="text_19">
      <!-- 150 -->
      <g transform="translate(522.528903 691.038437) scale(0.1 -0.1)">
       <use xlink:href="#DejaVuSans-31"/>
       <use xlink:href="#DejaVuSans-35" x="63.623047"/>
       <use xlink:href="#DejaVuSans-30" x="127.246094"/>
      </g>
     </g>
    </g>
    <g id="xtick_10">
     <g id="line2d_32">
      <path d="M 681.950204 676.44 
L 681.950204 404.44 
" clip-path="url(#p72d1bf8ed9)" style="fill: none; stroke: #b0b0b0; stroke-width: 0.8; stroke-linecap: square"/>
     </g>
     <g id="line2d_33">
      <g>
       <use xlink:href="#m71ab1bd1f7" x="681.950204" y="676.44" style="stroke: #000000; stroke-width: 0.8"/>
      </g>
     </g>
     <g id="text_20">
      <!-- 200 -->
      <g transform="translate(672.406454 691.038437) scale(0.1 -0.1)">
       <use xlink:href="#DejaVuSans-32"/>
       <use xlink:href="#DejaVuSans-30" x="63.623047"/>
       <use xlink:href="#DejaVuSans-30" x="127.246094"/>
      </g>
     </g>
    </g>
    <g id="text_21">
     <!-- Time [ms] -->
     <g transform="translate(424.440781 704.716562) scale(0.1 -0.1)">
      <use xlink:href="#DejaVuSans-54"/>
      <use xlink:href="#DejaVuSans-69" x="57.958984"/>
      <use xlink:href="#DejaVuSans-6d" x="85.742188"/>
      <use xlink:href="#DejaVuSans-65" x="183.154297"/>
      <use xlink:href="#DejaVuSans-20" x="244.677734"/>
      <use xlink:href="#DejaVuSans-5b" x="276.464844"/>
      <use xlink:href="#DejaVuSans-6d" x="315.478516"/>
      <use xlink:href="#DejaVuSans-73" x="412.890625"/>
      <use xlink:href="#DejaVuSans-5d" x="464.990234"/>
     </g>
    </g>
   </g>
   <g id="matplotlib.axis_4">
    <g id="ytick_6">
     <g id="line2d_34">
      <g>
       <use xlink:href="#mb4026120e4" x="82.44" y="676.44" style="stroke: #000000; stroke-width: 0.8"/>
      </g>
     </g>
    </g>
    <g id="ytick_7">
     <g id="line2d_35">
      <g>
       <use xlink:href="#mb4026120e4" x="82.44" y="431.256901" style="stroke: #000000; stroke-width: 0.8"/>
      </g>
     </g>
    </g>
   </g>
   <g id="line2d_36">
    <path d="M 82.44 676.44 
L 82.44 404.44 
" clip-path="url(#p72d1bf8ed9)" style="fill: none; stroke-dasharray: 5.55,2.4; stroke-dashoffset: 0; stroke: #a9a9a9; stroke-opacity: 0.25; stroke-width: 1.5"/>
   </g>
   <g id="line2d_37">
    <path d="M 112.41551 676.44 
L 112.41551 404.44 
" clip-path="url(#p72d1bf8ed9)" style="fill: none; stroke-dasharray: 5.55,2.4; stroke-dashoffset: 0; stroke: #a9a9a9; stroke-opacity: 0.25; stroke-width: 1.5"/>
   </g>
   <g id="line2d_38">
    <path d="M 142.39102 676.44 
L 142.39102 404.44 
" clip-path="url(#p72d1bf8ed9)" style="fill: none; stroke-dasharray: 5.55,2.4; stroke-dashoffset: 0; stroke: #a9a9a9; stroke-opacity: 0.25; stroke-width: 1.5"/>
   </g>
   <g id="line2d_39">
    <path d="M 172.366531 676.44 
L 172.366531 404.44 
" clip-path="url(#p72d1bf8ed9)" style="fill: none; stroke-dasharray: 5.55,2.4; stroke-dashoffset: 0; stroke: #a9a9a9; stroke-opacity: 0.25; stroke-width: 1.5"/>
   </g>
   <g id="line2d_40">
    <path d="M 202.342041 676.44 
L 202.342041 404.44 
" clip-path="url(#p72d1bf8ed9)" style="fill: none; stroke-dasharray: 5.55,2.4; stroke-dashoffset: 0; stroke: #a9a9a9; stroke-opacity: 0.25; stroke-width: 1.5"/>
   </g>
   <g id="line2d_41">
    <path d="M 232.317551 676.44 
L 232.317551 404.44 
" clip-path="url(#p72d1bf8ed9)" style="fill: none; stroke-dasharray: 5.55,2.4; stroke-dashoffset: 0; stroke: #a9a9a9; stroke-opacity: 0.25; stroke-width: 1.5"/>
   </g>
   <g id="line2d_42">
    <path d="M 262.293061 676.44 
L 262.293061 404.44 
" clip-path="url(#p72d1bf8ed9)" style="fill: none; stroke-dasharray: 5.55,2.4; stroke-dashoffset: 0; stroke: #a9a9a9; stroke-opacity: 0.25; stroke-width: 1.5"/>
   </g>
   <g id="line2d_43">
    <path d="M 292.268571 676.44 
L 292.268571 404.44 
" clip-path="url(#p72d1bf8ed9)" style="fill: none; stroke-dasharray: 5.55,2.4; stroke-dashoffset: 0; stroke: #a9a9a9; stroke-opacity: 0.25; stroke-width: 1.5"/>
   </g>
   <g id="line2d_44">
    <path d="M 322.244082 676.44 
L 322.244082 404.44 
" clip-path="url(#p72d1bf8ed9)" style="fill: none; stroke-dasharray: 5.55,2.4; stroke-dashoffset: 0; stroke: #a9a9a9; stroke-opacity: 0.25; stroke-width: 1.5"/>
   </g>
   <g id="line2d_45">
    <path d="M 352.219592 676.44 
L 352.219592 404.44 
" clip-path="url(#p72d1bf8ed9)" style="fill: none; stroke-dasharray: 5.55,2.4; stroke-dashoffset: 0; stroke: #a9a9a9; stroke-opacity: 0.25; stroke-width: 1.5"/>
   </g>
   <g id="line2d_46">
    <path d="M 382.195102 676.44 
L 382.195102 404.44 
" clip-path="url(#p72d1bf8ed9)" style="fill: none; stroke-dasharray: 5.55,2.4; stroke-dashoffset: 0; stroke: #a9a9a9; stroke-opacity: 0.25; stroke-width: 1.5"/>
   </g>
   <g id="line2d_47">
    <path d="M 412.170612 676.44 
L 412.170612 404.44 
" clip-path="url(#p72d1bf8ed9)" style="fill: none; stroke-dasharray: 5.55,2.4; stroke-dashoffset: 0; stroke: #a9a9a9; stroke-opacity: 0.25; stroke-width: 1.5"/>
   </g>
   <g id="line2d_48">
    <path d="M 442.146122 676.44 
L 442.146122 404.44 
" clip-path="url(#p72d1bf8ed9)" style="fill: none; stroke-dasharray: 5.55,2.4; stroke-dashoffset: 0; stroke: #a9a9a9; stroke-opacity: 0.25; stroke-width: 1.5"/>
   </g>
   <g id="line2d_49">
    <path d="M 472.121633 676.44 
L 472.121633 404.44 
" clip-path="url(#p72d1bf8ed9)" style="fill: none; stroke-dasharray: 5.55,2.4; stroke-dashoffset: 0; stroke: #a9a9a9; stroke-opacity: 0.25; stroke-width: 1.5"/>
   </g>
   <g id="line2d_50">
    <path d="M 502.097143 676.44 
L 502.097143 404.44 
" clip-path="url(#p72d1bf8ed9)" style="fill: none; stroke-dasharray: 5.55,2.4; stroke-dashoffset: 0; stroke: #a9a9a9; stroke-opacity: 0.25; stroke-width: 1.5"/>
   </g>
   <g id="line2d_51">
    <path d="M 532.072653 676.44 
L 532.072653 404.44 
" clip-path="url(#p72d1bf8ed9)" style="fill: none; stroke-dasharray: 5.55,2.4; stroke-dashoffset: 0; stroke: #a9a9a9; stroke-opacity: 0.25; stroke-width: 1.5"/>
   </g>
   <g id="line2d_52">
    <path d="M 562.048163 676.44 
L 562.048163 404.44 
" clip-path="url(#p72d1bf8ed9)" style="fill: none; stroke-dasharray: 5.55,2.4; stroke-dashoffset: 0; stroke: #a9a9a9; stroke-opacity: 0.25; stroke-width: 1.5"/>
   </g>
   <g id="line2d_53">
    <path d="M 592.023673 676.44 
L 592.023673 404.44 
" clip-path="url(#p72d1bf8ed9)" style="fill: none; stroke-dasharray: 5.55,2.4; stroke-dashoffset: 0; stroke: #a9a9a9; stroke-opacity: 0.25; stroke-width: 1.5"/>
   </g>
   <g id="line2d_54">
    <path d="M 621.999184 676.44 
L 621.999184 404.44 
" clip-path="url(#p72d1bf8ed9)" style="fill: none; stroke-dasharray: 5.55,2.4; stroke-dashoffset: 0; stroke: #a9a9a9; stroke-opacity: 0.25; stroke-width: 1.5"/>
   </g>
   <g id="line2d_55">
    <path d="M 651.974694 676.44 
L 651.974694 404.44 
" clip-path="url(#p72d1bf8ed9)" style="fill: none; stroke-dasharray: 5.55,2.4; stroke-dashoffset: 0; stroke: #a9a9a9; stroke-opacity: 0.25; stroke-width: 1.5"/>
   </g>
   <g id="line2d_56">
    <path d="M 681.950204 676.44 
L 681.950204 404.44 
" clip-path="url(#p72d1bf8ed9)" style="fill: none; stroke-dasharray: 5.55,2.4; stroke-dashoffset: 0; stroke: #a9a9a9; stroke-opacity: 0.25; stroke-width: 1.5"/>
   </g>
   <g id="line2d_57">
    <path d="M 711.925714 676.44 
L 711.925714 404.44 
" clip-path="url(#p72d1bf8ed9)" style="fill: none; stroke-dasharray: 5.55,2.4; stroke-dashoffset: 0; stroke: #a9a9a9; stroke-opacity: 0.25; stroke-width: 1.5"/>
   </g>
   <g id="line2d_58">
    <path d="M 741.901224 676.44 
L 741.901224 404.44 
" clip-path="url(#p72d1bf8ed9)" style="fill: none; stroke-dasharray: 5.55,2.4; stroke-dashoffset: 0; stroke: #a9a9a9; stroke-opacity: 0.25; stroke-width: 1.5"/>
   </g>
   <g id="line2d_59">
    <path d="M 771.876735 676.44 
L 771.876735 404.44 
" clip-path="url(#p72d1bf8ed9)" style="fill: none; stroke-dasharray: 5.55,2.4; stroke-dashoffset: 0; stroke: #a9a9a9; stroke-opacity: 0.25; stroke-width: 1.5"/>
   </g>
   <g id="line2d_60">
    <path d="M 801.852245 676.44 
L 801.852245 404.44 
" clip-path="url(#p72d1bf8ed9)" style="fill: none; stroke-dasharray: 5.55,2.4; stroke-dashoffset: 0; stroke: #a9a9a9; stroke-opacity: 0.25; stroke-width: 1.5"/>
   </g>
   <g id="line2d_61">
    <path d="M 82.44 523.200563 
L 97.427755 523.200563 
L 112.41551 523.200563 
L 127.403265 523.200563 
L 142.39102 523.200563 
L 157.378776 523.200563 
L 172.366531 523.200563 
L 187.354286 523.200563 
L 202.342041 523.200563 
L 217.329796 523.200563 
L 232.317551 523.200563 
L 247.305306 523.200563 
L 262.293061 523.200563 
L 277.280816 523.200563 
L 292.268571 523.200563 
L 307.256327 523.200563 
L 322.244082 523.200563 
L 337.231837 523.200563 
L 352.219592 523.200563 
L 367.207347 523.200563 
L 382.195102 523.200563 
L 397.182857 523.200563 
L 412.170612 523.200563 
L 427.158367 523.200563 
L 442.146122 523.200563 
L 457.133878 523.200563 
L 472.121633 523.200563 
L 487.109388 523.200563 
L 502.097143 523.200563 
L 517.084898 523.200563 
L 532.072653 523.200563 
L 547.060408 523.200563 
L 562.048163 523.200563 
L 577.035918 523.200563 
L 592.023673 523.200563 
L 607.011429 523.200563 
L 621.999184 523.200563 
L 636.986939 523.200563 
L 651.974694 523.200563 
L 666.962449 523.200563 
L 681.950204 523.200563 
L 696.937959 523.200563 
L 711.925714 523.200563 
L 726.913469 523.200563 
L 741.901224 523.200563 
L 756.88898 523.200563 
L 771.876735 523.200563 
L 786.86449 523.200563 
L 801.852245 523.200563 
L 816.84 523.200563 
" clip-path="url(#p72d1bf8ed9)" style="fill: none; stroke-dasharray: 7.4,3.2; stroke-dashoffset: 0; stroke: #008000; stroke-opacity: 0.5; stroke-width: 2"/>
   </g>
   <g id="line2d_62">
    <path d="M 82.44 553.848451 
L 97.427755 553.848451 
L 112.41551 553.848451 
L 127.403265 553.848451 
L 142.39102 553.848451 
L 157.378776 553.848451 
L 172.366531 553.848451 
L 187.354286 553.848451 
L 202.342041 553.848451 
L 217.329796 553.848451 
L 232.317551 553.848451 
L 247.305306 553.848451 
L 262.293061 553.848451 
L 277.280816 553.848451 
L 292.268571 553.848451 
L 307.256327 553.848451 
L 322.244082 553.848451 
L 337.231837 553.848451 
L 352.219592 553.848451 
L 367.207347 553.848451 
L 382.195102 553.848451 
L 397.182857 553.848451 
L 412.170612 553.848451 
L 427.158367 553.848451 
L 442.146122 553.848451 
L 457.133878 553.848451 
L 472.121633 553.848451 
L 487.109388 553.848451 
L 502.097143 553.848451 
L 517.084898 553.848451 
L 532.072653 553.848451 
L 547.060408 553.848451 
L 562.048163 553.848451 
L 577.035918 553.848451 
L 592.023673 553.848451 
L 607.011429 553.848451 
L 621.999184 553.848451 
L 636.986939 553.848451 
L 651.974694 553.848451 
L 666.962449 553.848451 
L 681.950204 553.848451 
L 696.937959 553.848451 
L 711.925714 553.848451 
L 726.913469 553.848451 
L 741.901224 553.848451 
L 756.88898 553.848451 
L 771.876735 553.848451 
L 786.86449 553.848451 
L 801.852245 553.848451 
L 816.84 553.848451 
" clip-path="url(#p72d1bf8ed9)" style="fill: none; stroke-dasharray: 7.4,3.2; stroke-dashoffset: 0; stroke: #008000; stroke-opacity: 0.5; stroke-width: 2"/>
   </g>
   <g id="line2d_63">
    <path d="M 82.44 584.496338 
L 97.427755 584.496338 
L 112.41551 584.496338 
L 127.403265 584.496338 
L 142.39102 584.496338 
L 157.378776 584.496338 
L 172.366531 584.496338 
L 187.354286 584.496338 
L 202.342041 584.496338 
L 217.329796 584.496338 
L 232.317551 584.496338 
L 247.305306 584.496338 
L 262.293061 584.496338 
L 277.280816 584.496338 
L 292.268571 584.496338 
L 307.256327 584.496338 
L 322.244082 584.496338 
L 337.231837 584.496338 
L 352.219592 584.496338 
L 367.207347 584.496338 
L 382.195102 584.496338 
L 397.182857 584.496338 
L 412.170612 584.496338 
L 427.158367 584.496338 
L 442.146122 584.496338 
L 457.133878 584.496338 
L 472.121633 584.496338 
L 487.109388 584.496338 
L 502.097143 584.496338 
L 517.084898 584.496338 
L 532.072653 584.496338 
L 547.060408 584.496338 
L 562.048163 584.496338 
L 577.035918 584.496338 
L 592.023673 584.496338 
L 607.011429 584.496338 
L 621.999184 584.496338 
L 636.986939 584.496338 
L 651.974694 584.496338 
L 666.962449 584.496338 
L 681.950204 584.496338 
L 696.937959 584.496338 
L 711.925714 584.496338 
L 726.913469 584.496338 
L 741.901224 584.496338 
L 756.88898 584.496338 
L 771.876735 584.496338 
L 786.86449 584.496338 
L 801.852245 584.496338 
L 816.84 584.496338 
" clip-path="url(#p72d1bf8ed9)" style="fill: none; stroke-dasharray: 7.4,3.2; stroke-dashoffset: 0; stroke: #008000; stroke-opacity: 0.5; stroke-width: 2"/>
   </g>
   <g id="line2d_64">
    <path d="M 82.44 615.144225 
L 97.427755 615.144225 
L 112.41551 615.144225 
L 127.403265 615.144225 
L 142.39102 615.144225 
L 157.378776 615.144225 
L 172.366531 615.144225 
L 187.354286 615.144225 
L 202.342041 615.144225 
L 217.329796 615.144225 
L 232.317551 615.144225 
L 247.305306 615.144225 
L 262.293061 615.144225 
L 277.280816 615.144225 
L 292.268571 615.144225 
L 307.256327 615.144225 
L 322.244082 615.144225 
L 337.231837 615.144225 
L 352.219592 615.144225 
L 367.207347 615.144225 
L 382.195102 615.144225 
L 397.182857 615.144225 
L 412.170612 615.144225 
L 427.158367 615.144225 
L 442.146122 615.144225 
L 457.133878 615.144225 
L 472.121633 615.144225 
L 487.109388 615.144225 
L 502.097143 615.144225 
L 517.084898 615.144225 
L 532.072653 615.144225 
L 547.060408 615.144225 
L 562.048163 615.144225 
L 577.035918 615.144225 
L 592.023673 615.144225 
L 607.011429 615.144225 
L 621.999184 615.144225 
L 636.986939 615.144225 
L 651.974694 615.144225 
L 666.962449 615.144225 
L 681.950204 615.144225 
L 696.937959 615.144225 
L 711.925714 615.144225 
L 726.913469 615.144225 
L 741.901224 615.144225 
L 756.88898 615.144225 
L 771.876735 615.144225 
L 786.86449 615.144225 
L 801.852245 615.144225 
L 816.84 615.144225 
" clip-path="url(#p72d1bf8ed9)" style="fill: none; stroke-dasharray: 7.4,3.2; stroke-dashoffset: 0; stroke: #008000; stroke-opacity: 0.5; stroke-width: 2"/>
   </g>
   <g id="line2d_65">
    <path d="M 82.44 645.792113 
L 97.427755 645.792113 
L 112.41551 645.792113 
L 127.403265 645.792113 
L 142.39102 645.792113 
L 157.378776 645.792113 
L 172.366531 645.792113 
L 187.354286 645.792113 
L 202.342041 645.792113 
L 217.329796 645.792113 
L 232.317551 645.792113 
L 247.305306 645.792113 
L 262.293061 645.792113 
L 277.280816 645.792113 
L 292.268571 645.792113 
L 307.256327 645.792113 
L 322.244082 645.792113 
L 337.231837 645.792113 
L 352.219592 645.792113 
L 367.207347 645.792113 
L 382.195102 645.792113 
L 397.182857 645.792113 
L 412.170612 645.792113 
L 427.158367 645.792113 
L 442.146122 645.792113 
L 457.133878 645.792113 
L 472.121633 645.792113 
L 487.109388 645.792113 
L 502.097143 645.792113 
L 517.084898 645.792113 
L 532.072653 645.792113 
L 547.060408 645.792113 
L 562.048163 645.792113 
L 577.035918 645.792113 
L 592.023673 645.792113 
L 607.011429 645.792113 
L 621.999184 645.792113 
L 636.986939 645.792113 
L 651.974694 645.792113 
L 666.962449 645.792113 
L 681.950204 645.792113 
L 696.937959 645.792113 
L 711.925714 645.792113 
L 726.913469 645.792113 
L 741.901224 645.792113 
L 756.88898 645.792113 
L 771.876735 645.792113 
L 786.86449 645.792113 
L 801.852245 645.792113 
L 816.84 645.792113 
" clip-path="url(#p72d1bf8ed9)" style="fill: none; stroke-dasharray: 7.4,3.2; stroke-dashoffset: 0; stroke: #008000; stroke-opacity: 0.5; stroke-width: 2"/>
   </g>
   <g id="line2d_66">
    <path d="M 82.44 431.256901 
L 97.427755 431.256901 
L 97.427755 431.256901 
L 112.41551 431.256901 
L 112.41551 415.932958 
L 127.403265 415.932958 
L 127.403265 431.256901 
L 142.39102 431.256901 
L 142.39102 415.932958 
L 157.378776 415.932958 
L 157.378776 431.256901 
L 172.366531 431.256901 
L 172.366531 415.932958 
L 187.354286 415.932958 
L 187.354286 431.256901 
L 202.342041 431.256901 
L 202.342041 415.932958 
L 217.329796 415.932958 
L 217.329796 431.256901 
L 232.317551 431.256901 
L 232.317551 415.932958 
L 247.305306 415.932958 
L 247.305306 431.256901 
L 262.293061 431.256901 
L 262.293061 415.932958 
L 277.280816 415.932958 
L 277.280816 431.256901 
L 292.268571 431.256901 
L 292.268571 415.932958 
L 307.256327 415.932958 
L 307.256327 431.256901 
L 322.244082 431.256901 
L 322.244082 415.932958 
L 337.231837 415.932958 
L 337.231837 431.256901 
L 352.219592 431.256901 
L 352.219592 415.932958 
L 367.207347 415.932958 
L 367.207347 431.256901 
L 382.195102 431.256901 
L 382.195102 415.932958 
L 397.182857 415.932958 
L 397.182857 431.256901 
L 412.170612 431.256901 
L 412.170612 415.932958 
L 427.158367 415.932958 
L 427.158367 431.256901 
L 442.146122 431.256901 
L 442.146122 415.932958 
L 457.133878 415.932958 
L 457.133878 431.256901 
L 472.121633 431.256901 
L 472.121633 415.932958 
L 487.109388 415.932958 
L 487.109388 431.256901 
L 502.097143 431.256901 
L 502.097143 415.932958 
L 517.084898 415.932958 
L 517.084898 431.256901 
L 532.072653 431.256901 
L 532.072653 415.932958 
L 547.060408 415.932958 
L 547.060408 431.256901 
L 562.048163 431.256901 
L 562.048163 415.932958 
L 577.035918 415.932958 
L 577.035918 431.256901 
L 592.023673 431.256901 
L 592.023673 415.932958 
L 607.011429 415.932958 
L 607.011429 431.256901 
L 621.999184 431.256901 
L 621.999184 415.932958 
L 636.986939 415.932958 
L 636.986939 431.256901 
L 651.974694 431.256901 
L 651.974694 415.932958 
L 666.962449 415.932958 
L 666.962449 431.256901 
L 681.950204 431.256901 
L 681.950204 415.932958 
L 696.937959 415.932958 
L 696.937959 431.256901 
L 711.925714 431.256901 
L 711.925714 415.932958 
L 726.913469 415.932958 
L 726.913469 431.256901 
L 741.901224 431.256901 
L 741.901224 415.932958 
L 756.88898 415.932958 
L 756.88898 431.256901 
L 771.876735 431.256901 
L 771.876735 415.932958 
L 786.86449 415.932958 
L 786.86449 431.256901 
L 801.852245 431.256901 
L 801.852245 415.932958 
L 816.84 415.932958 
L 816.84 431.256901 
" clip-path="url(#p72d1bf8ed9)" style="fill: none; stroke: #008000; stroke-width: 2; stroke-linecap: square"/>
   </g>
   <g id="line2d_67">
    <path d="M 82.44 446.580845 
L 97.427755 446.580845 
L 97.427755 446.580845 
L 112.41551 446.580845 
L 112.41551 446.580845 
L 127.403265 446.580845 
L 127.403265 446.580845 
L 142.39102 446.580845 
L 142.39102 446.580845 
L 157.378776 446.580845 
L 157.378776 461.904789 
L 172.366531 461.904789 
L 172.366531 461.904789 
L 187.354286 461.904789 
L 187.354286 461.904789 
L 202.342041 461.904789 
L 202.342041 461.904789 
L 217.329796 461.904789 
L 217.329796 461.904789 
L 232.317551 461.904789 
L 232.317551 461.904789 
L 247.305306 461.904789 
L 247.305306 461.904789 
L 262.293061 461.904789 
L 262.293061 461.904789 
L 277.280816 461.904789 
L 277.280816 461.904789 
L 292.268571 461.904789 
L 292.268571 461.904789 
L 307.256327 461.904789 
L 307.256327 461.904789 
L 322.244082 461.904789 
L 322.244082 461.904789 
L 337.231837 461.904789 
L 337.231837 461.904789 
L 352.219592 461.904789 
L 352.219592 461.904789 
L 367.207347 461.904789 
L 367.207347 461.904789 
L 382.195102 461.904789 
L 382.195102 461.904789 
L 397.182857 461.904789 
L 397.182857 461.904789 
L 412.170612 461.904789 
L 412.170612 461.904789 
L 427.158367 461.904789 
L 427.158367 461.904789 
L 442.146122 461.904789 
L 442.146122 461.904789 
L 457.133878 461.904789 
L 457.133878 461.904789 
L 472.121633 461.904789 
L 472.121633 461.904789 
L 487.109388 461.904789 
L 487.109388 461.904789 
L 502.097143 461.904789 
L 502.097143 461.904789 
L 517.084898 461.904789 
L 517.084898 461.904789 
L 532.072653 461.904789 
L 532.072653 461.904789 
L 547.060408 461.904789 
L 547.060408 461.904789 
L 562.048163 461.904789 
L 562.048163 461.904789 
L 577.035918 461.904789 
L 577.035918 461.904789 
L 592.023673 461.904789 
L 592.023673 461.904789 
L 607.011429 461.904789 
L 607.011429 461.904789 
L 621.999184 461.904789 
L 621.999184 461.904789 
L 636.986939 461.904789 
L 636.986939 461.904789 
L 651.974694 461.904789 
L 651.974694 461.904789 
L 666.962449 461.904789 
L 666.962449 461.904789 
L 681.950204 461.904789 
L 681.950204 461.904789 
L 696.937959 461.904789 
L 696.937959 461.904789 
L 711.925714 461.904789 
L 711.925714 461.904789 
L 726.913469 461.904789 
L 726.913469 461.904789 
L 741.901224 461.904789 
L 741.901224 461.904789 
L 756.88898 461.904789 
L 756.88898 461.904789 
L 771.876735 461.904789 
L 771.876735 461.904789 
L 786.86449 461.904789 
L 786.86449 461.904789 
L 801.852245 461.904789 
L 801.852245 461.904789 
L 816.84 461.904789 
L 816.84 461.904789 
" clip-path="url(#p72d1bf8ed9)" style="fill: none; stroke: #008000; stroke-width: 2; stroke-linecap: square"/>
   </g>
   <g id="line2d_68">
    <path d="M 82.44 481.825915 
L 82.514939 481.825915 
L 86.186939 492.552676 
L 153.631837 492.552676 
L 157.303837 481.825915 
L 157.378776 481.825915 
" clip-path="url(#p72d1bf8ed9)" style="fill: none; stroke: #008000; stroke-width: 2; stroke-linecap: square"/>
   </g>
   <g id="line2d_69">
    <path d="M 82.44 481.825915 
L 82.514939 481.825915 
L 86.186939 471.099155 
L 153.631837 471.099155 
L 157.303837 481.825915 
L 157.378776 481.825915 
" clip-path="url(#p72d1bf8ed9)" style="fill: none; stroke: #008000; stroke-width: 2; stroke-linecap: square"/>
   </g>
   <g id="line2d_70">
    <path d="M 157.378776 481.825915 
L 157.453714 481.825915 
L 161.125714 492.552676 
L 183.607347 492.552676 
L 187.279347 481.825915 
L 187.354286 481.825915 
" clip-path="url(#p72d1bf8ed9)" style="fill: none; stroke: #008000; stroke-width: 2; stroke-linecap: square"/>
   </g>
   <g id="line2d_71">
    <path d="M 157.378776 481.825915 
L 157.453714 481.825915 
L 161.125714 471.099155 
L 183.607347 471.099155 
L 187.279347 481.825915 
L 187.354286 481.825915 
" clip-path="url(#p72d1bf8ed9)" style="fill: none; stroke: #008000; stroke-width: 2; stroke-linecap: square"/>
   </g>
   <g id="line2d_72">
    <path d="M 187.354286 481.825915 
L 187.429224 481.825915 
L 191.101224 492.552676 
L 213.582857 492.552676 
L 217.254857 481.825915 
L 217.329796 481.825915 
" clip-path="url(#p72d1bf8ed9)" style="fill: none; stroke: #008000; stroke-width: 2; stroke-linecap: square"/>
   </g>
   <g id="line2d_73">
    <path d="M 187.354286 481.825915 
L 187.429224 481.825915 
L 191.101224 471.099155 
L 213.582857 471.099155 
L 217.254857 481.825915 
L 217.329796 481.825915 
" clip-path="url(#p72d1bf8ed9)" style="fill: none; stroke: #008000; stroke-width: 2; stroke-linecap: square"/>
   </g>
   <g id="line2d_74">
    <path d="M 217.329796 481.825915 
L 217.404735 481.825915 
L 221.076735 492.552676 
L 243.558367 492.552676 
L 247.230367 481.825915 
L 247.305306 481.825915 
" clip-path="url(#p72d1bf8ed9)" style="fill: none; stroke: #008000; stroke-width: 2; stroke-linecap: square"/>
   </g>
   <g id="line2d_75">
    <path d="M 217.329796 481.825915 
L 217.404735 481.825915 
L 221.076735 471.099155 
L 243.558367 471.099155 
L 247.230367 481.825915 
L 247.305306 481.825915 
" clip-path="url(#p72d1bf8ed9)" style="fill: none; stroke: #008000; stroke-width: 2; stroke-linecap: square"/>
   </g>
   <g id="line2d_76">
    <path d="M 247.305306 481.825915 
L 247.380245 481.825915 
L 251.052245 492.552676 
L 273.533878 492.552676 
L 277.205878 481.825915 
L 277.280816 481.825915 
" clip-path="url(#p72d1bf8ed9)" style="fill: none; stroke: #008000; stroke-width: 2; stroke-linecap: square"/>
   </g>
   <g id="line2d_77">
    <path d="M 247.305306 481.825915 
L 247.380245 481.825915 
L 251.052245 471.099155 
L 273.533878 471.099155 
L 277.205878 481.825915 
L 277.280816 481.825915 
" clip-path="url(#p72d1bf8ed9)" style="fill: none; stroke: #008000; stroke-width: 2; stroke-linecap: square"/>
   </g>
   <g id="line2d_78">
    <path d="M 277.280816 481.825915 
L 277.355755 481.825915 
L 281.027755 492.552676 
L 303.509388 492.552676 
L 307.181388 481.825915 
L 307.256327 481.825915 
" clip-path="url(#p72d1bf8ed9)" style="fill: none; stroke: #008000; stroke-width: 2; stroke-linecap: square"/>
   </g>
   <g id="line2d_79">
    <path d="M 277.280816 481.825915 
L 277.355755 481.825915 
L 281.027755 471.099155 
L 303.509388 471.099155 
L 307.181388 481.825915 
L 307.256327 481.825915 
" clip-path="url(#p72d1bf8ed9)" style="fill: none; stroke: #008000; stroke-width: 2; stroke-linecap: square"/>
   </g>
   <g id="line2d_80">
    <path d="M 307.256327 481.825915 
L 307.331265 481.825915 
L 311.003265 492.552676 
L 333.484898 492.552676 
L 337.156898 481.825915 
L 337.231837 481.825915 
" clip-path="url(#p72d1bf8ed9)" style="fill: none; stroke: #008000; stroke-width: 2; stroke-linecap: square"/>
   </g>
   <g id="line2d_81">
    <path d="M 307.256327 481.825915 
L 307.331265 481.825915 
L 311.003265 471.099155 
L 333.484898 471.099155 
L 337.156898 481.825915 
L 337.231837 481.825915 
" clip-path="url(#p72d1bf8ed9)" style="fill: none; stroke: #008000; stroke-width: 2; stroke-linecap: square"/>
   </g>
   <g id="line2d_82">
    <path d="M 337.231837 481.825915 
L 337.306776 481.825915 
L 340.978776 492.552676 
L 363.460408 492.552676 
L 367.132408 481.825915 
L 367.207347 481.825915 
" clip-path="url(#p72d1bf8ed9)" style="fill: none; stroke: #008000; stroke-width: 2; stroke-linecap: square"/>
   </g>
   <g id="line2d_83">
    <path d="M 337.231837 481.825915 
L 337.306776 481.825915 
L 340.978776 471.099155 
L 363.460408 471.099155 
L 367.132408 481.825915 
L 367.207347 481.825915 
" clip-path="url(#p72d1bf8ed9)" style="fill: none; stroke: #008000; stroke-width: 2; stroke-linecap: square"/>
   </g>
   <g id="line2d_84">
    <path d="M 367.207347 481.825915 
L 367.282286 481.825915 
L 370.954286 492.552676 
L 393.435918 492.552676 
L 397.107918 481.825915 
L 397.182857 481.825915 
" clip-path="url(#p72d1bf8ed9)" style="fill: none; stroke: #008000; stroke-width: 2; stroke-linecap: square"/>
   </g>
   <g id="line2d_85">
    <path d="M 367.207347 481.825915 
L 367.282286 481.825915 
L 370.954286 471.099155 
L 393.435918 471.099155 
L 397.107918 481.825915 
L 397.182857 481.825915 
" clip-path="url(#p72d1bf8ed9)" style="fill: none; stroke: #008000; stroke-width: 2; stroke-linecap: square"/>
   </g>
   <g id="line2d_86">
    <path d="M 397.182857 481.825915 
L 397.257796 481.825915 
L 400.929796 492.552676 
L 423.411429 492.552676 
L 427.083429 481.825915 
L 427.158367 481.825915 
" clip-path="url(#p72d1bf8ed9)" style="fill: none; stroke: #008000; stroke-width: 2; stroke-linecap: square"/>
   </g>
   <g id="line2d_87">
    <path d="M 397.182857 481.825915 
L 397.257796 481.825915 
L 400.929796 471.099155 
L 423.411429 471.099155 
L 427.083429 481.825915 
L 427.158367 481.825915 
" clip-path="url(#p72d1bf8ed9)" style="fill: none; stroke: #008000; stroke-width: 2; stroke-linecap: square"/>
   </g>
   <g id="line2d_88">
    <path d="M 427.158367 481.825915 
L 427.233306 481.825915 
L 430.905306 492.552676 
L 453.386939 492.552676 
L 457.058939 481.825915 
L 457.133878 481.825915 
" clip-path="url(#p72d1bf8ed9)" style="fill: none; stroke: #008000; stroke-width: 2; stroke-linecap: square"/>
   </g>
   <g id="line2d_89">
    <path d="M 427.158367 481.825915 
L 427.233306 481.825915 
L 430.905306 471.099155 
L 453.386939 471.099155 
L 457.058939 481.825915 
L 457.133878 481.825915 
" clip-path="url(#p72d1bf8ed9)" style="fill: none; stroke: #008000; stroke-width: 2; stroke-linecap: square"/>
   </g>
   <g id="line2d_90">
    <path d="M 457.133878 481.825915 
L 457.208816 481.825915 
L 460.880816 492.552676 
L 483.362449 492.552676 
L 487.034449 481.825915 
L 487.109388 481.825915 
" clip-path="url(#p72d1bf8ed9)" style="fill: none; stroke: #008000; stroke-width: 2; stroke-linecap: square"/>
   </g>
   <g id="line2d_91">
    <path d="M 457.133878 481.825915 
L 457.208816 481.825915 
L 460.880816 471.099155 
L 483.362449 471.099155 
L 487.034449 481.825915 
L 487.109388 481.825915 
" clip-path="url(#p72d1bf8ed9)" style="fill: none; stroke: #008000; stroke-width: 2; stroke-linecap: square"/>
   </g>
   <g id="line2d_92">
    <path d="M 487.109388 481.825915 
L 487.184327 481.825915 
L 490.856327 492.552676 
L 513.337959 492.552676 
L 517.009959 481.825915 
L 517.084898 481.825915 
" clip-path="url(#p72d1bf8ed9)" style="fill: none; stroke: #008000; stroke-width: 2; stroke-linecap: square"/>
   </g>
   <g id="line2d_93">
    <path d="M 487.109388 481.825915 
L 487.184327 481.825915 
L 490.856327 471.099155 
L 513.337959 471.099155 
L 517.009959 481.825915 
L 517.084898 481.825915 
" clip-path="url(#p72d1bf8ed9)" style="fill: none; stroke: #008000; stroke-width: 2; stroke-linecap: square"/>
   </g>
   <g id="line2d_94">
    <path d="M 517.084898 481.825915 
L 517.159837 481.825915 
L 520.831837 492.552676 
L 543.313469 492.552676 
L 546.985469 481.825915 
L 547.060408 481.825915 
" clip-path="url(#p72d1bf8ed9)" style="fill: none; stroke: #008000; stroke-width: 2; stroke-linecap: square"/>
   </g>
   <g id="line2d_95">
    <path d="M 517.084898 481.825915 
L 517.159837 481.825915 
L 520.831837 471.099155 
L 543.313469 471.099155 
L 546.985469 481.825915 
L 547.060408 481.825915 
" clip-path="url(#p72d1bf8ed9)" style="fill: none; stroke: #008000; stroke-width: 2; stroke-linecap: square"/>
   </g>
   <g id="line2d_96">
    <path d="M 547.060408 481.825915 
L 547.135347 481.825915 
L 550.807347 492.552676 
L 573.28898 492.552676 
L 576.96098 481.825915 
L 577.035918 481.825915 
" clip-path="url(#p72d1bf8ed9)" style="fill: none; stroke: #008000; stroke-width: 2; stroke-linecap: square"/>
   </g>
   <g id="line2d_97">
    <path d="M 547.060408 481.825915 
L 547.135347 481.825915 
L 550.807347 471.099155 
L 573.28898 471.099155 
L 576.96098 481.825915 
L 577.035918 481.825915 
" clip-path="url(#p72d1bf8ed9)" style="fill: none; stroke: #008000; stroke-width: 2; stroke-linecap: square"/>
   </g>
   <g id="line2d_98">
    <path d="M 577.035918 481.825915 
L 577.110857 481.825915 
L 580.782857 492.552676 
L 603.26449 492.552676 
L 606.93649 481.825915 
L 607.011429 481.825915 
" clip-path="url(#p72d1bf8ed9)" style="fill: none; stroke: #008000; stroke-width: 2; stroke-linecap: square"/>
   </g>
   <g id="line2d_99">
    <path d="M 577.035918 481.825915 
L 577.110857 481.825915 
L 580.782857 471.099155 
L 603.26449 471.099155 
L 606.93649 481.825915 
L 607.011429 481.825915 
" clip-path="url(#p72d1bf8ed9)" style="fill: none; stroke: #008000; stroke-width: 2; stroke-linecap: square"/>
   </g>
   <g id="line2d_100">
    <path d="M 607.011429 481.825915 
L 607.086367 481.825915 
L 610.758367 492.552676 
L 633.24 492.552676 
L 636.912 481.825915 
L 636.986939 481.825915 
" clip-path="url(#p72d1bf8ed9)" style="fill: none; stroke: #008000; stroke-width: 2; stroke-linecap: square"/>
   </g>
   <g id="line2d_101">
    <path d="M 607.011429 481.825915 
L 607.086367 481.825915 
L 610.758367 471.099155 
L 633.24 471.099155 
L 636.912 481.825915 
L 636.986939 481.825915 
" clip-path="url(#p72d1bf8ed9)" style="fill: none; stroke: #008000; stroke-width: 2; stroke-linecap: square"/>
   </g>
   <g id="line2d_102">
    <path d="M 636.986939 481.825915 
L 637.061878 481.825915 
L 640.733878 492.552676 
L 663.21551 492.552676 
L 666.88751 481.825915 
L 666.962449 481.825915 
" clip-path="url(#p72d1bf8ed9)" style="fill: none; stroke: #008000; stroke-width: 2; stroke-linecap: square"/>
   </g>
   <g id="line2d_103">
    <path d="M 636.986939 481.825915 
L 637.061878 481.825915 
L 640.733878 471.099155 
L 663.21551 471.099155 
L 666.88751 481.825915 
L 666.962449 481.825915 
" clip-path="url(#p72d1bf8ed9)" style="fill: none; stroke: #008000; stroke-width: 2; stroke-linecap: square"/>
   </g>
   <g id="line2d_104">
    <path d="M 666.962449 481.825915 
L 667.037388 481.825915 
L 670.709388 492.552676 
L 693.19102 492.552676 
L 696.86302 481.825915 
L 696.937959 481.825915 
" clip-path="url(#p72d1bf8ed9)" style="fill: none; stroke: #008000; stroke-width: 2; stroke-linecap: square"/>
   </g>
   <g id="line2d_105">
    <path d="M 666.962449 481.825915 
L 667.037388 481.825915 
L 670.709388 471.099155 
L 693.19102 471.099155 
L 696.86302 481.825915 
L 696.937959 481.825915 
" clip-path="url(#p72d1bf8ed9)" style="fill: none; stroke: #008000; stroke-width: 2; stroke-linecap: square"/>
   </g>
   <g id="line2d_106">
    <path d="M 696.937959 481.825915 
L 697.012898 481.825915 
L 700.684898 492.552676 
L 723.166531 492.552676 
L 726.838531 481.825915 
L 726.913469 481.825915 
" clip-path="url(#p72d1bf8ed9)" style="fill: none; stroke: #008000; stroke-width: 2; stroke-linecap: square"/>
   </g>
   <g id="line2d_107">
    <path d="M 696.937959 481.825915 
L 697.012898 481.825915 
L 700.684898 471.099155 
L 723.166531 471.099155 
L 726.838531 481.825915 
L 726.913469 481.825915 
" clip-path="url(#p72d1bf8ed9)" style="fill: none; stroke: #008000; stroke-width: 2; stroke-linecap: square"/>
   </g>
   <g id="line2d_108">
    <path d="M 726.913469 481.825915 
L 726.988408 481.825915 
L 730.660408 492.552676 
L 753.142041 492.552676 
L 756.814041 481.825915 
L 756.88898 481.825915 
" clip-path="url(#p72d1bf8ed9)" style="fill: none; stroke: #008000; stroke-width: 2; stroke-linecap: square"/>
   </g>
   <g id="line2d_109">
    <path d="M 726.913469 481.825915 
L 726.988408 481.825915 
L 730.660408 471.099155 
L 753.142041 471.099155 
L 756.814041 481.825915 
L 756.88898 481.825915 
" clip-path="url(#p72d1bf8ed9)" style="fill: none; stroke: #008000; stroke-width: 2; stroke-linecap: square"/>
   </g>
   <g id="line2d_110">
    <path d="M 756.88898 481.825915 
L 756.963918 481.825915 
L 760.635918 492.552676 
L 783.117551 492.552676 
L 786.789551 481.825915 
L 786.86449 481.825915 
" clip-path="url(#p72d1bf8ed9)" style="fill: none; stroke: #008000; stroke-width: 2; stroke-linecap: square"/>
   </g>
   <g id="line2d_111">
    <path d="M 756.88898 481.825915 
L 756.963918 481.825915 
L 760.635918 471.099155 
L 783.117551 471.099155 
L 786.789551 481.825915 
L 786.86449 481.825915 
" clip-path="url(#p72d1bf8ed9)" style="fill: none; stroke: #008000; stroke-width: 2; stroke-linecap: square"/>
   </g>
   <g id="line2d_112">
    <path d="M 786.86449 481.825915 
L 786.939429 481.825915 
L 790.611429 492.552676 
L 813.093061 492.552676 
L 816.765061 481.825915 
L 816.84 481.825915 
" clip-path="url(#p72d1bf8ed9)" style="fill: none; stroke: #008000; stroke-width: 2; stroke-linecap: square"/>
   </g>
   <g id="line2d_113">
    <path d="M 786.86449 481.825915 
L 786.939429 481.825915 
L 790.611429 471.099155 
L 813.093061 471.099155 
L 816.765061 481.825915 
L 816.84 481.825915 
" clip-path="url(#p72d1bf8ed9)" style="fill: none; stroke: #008000; stroke-width: 2; stroke-linecap: square"/>
   </g>
   <g id="line2d_114">
    <path d="M 816.84 676.44 
L 816.84 404.44 
" clip-path="url(#p72d1bf8ed9)" style="fill: none; stroke-dasharray: 5.55,2.4; stroke-dashoffset: 0; stroke: #ff0000; stroke-opacity: 0.7; stroke-width: 1.5"/>
   </g>
   <g id="patch_10">
    <path d="M 82.44 676.44 
L 82.44 404.44 
" style="fill: none; stroke: #000000; stroke-width: 0.8; stroke-linejoin: miter; stroke-linecap: square"/>
   </g>
   <g id="patch_11">
    <path d="M 816.84 676.44 
L 816.84 404.44 
" style="fill: none; stroke: #000000; stroke-width: 0.8; stroke-linejoin: miter; stroke-linecap: square"/>
   </g>
   <g id="patch_12">
    <path d="M 82.44 676.44 
L 816.84 676.44 
" style="fill: none; stroke: #000000; stroke-width: 0.8; stroke-linejoin: miter; stroke-linecap: square"/>
   </g>
   <g id="patch_13">
    <path d="M 82.44 404.44 
L 816.84 404.44 
" style="fill: none; stroke: #000000; stroke-width: 0.8; stroke-linejoin: miter; stroke-linecap: square"/>
   </g>
   <g id="text_22">
    <!-- clk -->
    <g transform="translate(59.958367 426.354305) scale(0.1 -0.1)">
     <defs>
      <path id="DejaVuSans-6b" d="M 581 4863 
L 1159 4863 
L 1159 1991 
L 2875 3500 
L 3609 3500 
L 1753 1863 
L 3688 0 
L 2938 0 
L 1159 1709 
L 1159 0 
L 581 0 
L 581 4863 
z
" transform="scale(0.015625)"/>
     </defs>
     <use xlink:href="#DejaVuSans-63"/>
     <use xlink:href="#DejaVuSans-6c" x="54.980469"/>
     <use xlink:href="#DejaVuSans-6b" x="82.763672"/>
    </g>
   </g>
   <g id="text_23">
    <!-- rst -->
    <g transform="translate(59.958367 457.002192) scale(0.1 -0.1)">
     <use xlink:href="#DejaVuSans-72"/>
     <use xlink:href="#DejaVuSans-73" x="41.113281"/>
     <use xlink:href="#DejaVuSans-74" x="93.212891"/>
    </g>
   </g>
   <g id="text_24">
    <g id="patch_14">
     <path d="M 112.404388 490.657165 
L 127.414388 490.657165 
L 127.414388 472.994665 
L 112.404388 472.994665 
z
" style="fill: #ffffff"/>
    </g>
    <!-- 0 -->
    <g transform="translate(117.364388 484.033415) scale(0.08 -0.08)">
     <use xlink:href="#DejaVuSans-30"/>
    </g>
   </g>
   <g id="text_25">
    <g id="patch_15">
     <path d="M 164.861531 490.657165 
L 179.871531 490.657165 
L 179.871531 472.994665 
L 164.861531 472.994665 
z
" style="fill: #ffffff"/>
    </g>
    <!-- 1 -->
    <g transform="translate(169.821531 484.033415) scale(0.08 -0.08)">
     <use xlink:href="#DejaVuSans-31"/>
    </g>
   </g>
   <g id="text_26">
    <g id="patch_16">
     <path d="M 194.837041 490.657165 
L 209.847041 490.657165 
L 209.847041 472.994665 
L 194.837041 472.994665 
z
" style="fill: #ffffff"/>
    </g>
    <!-- 2 -->
    <g transform="translate(199.797041 484.033415) scale(0.08 -0.08)">
     <use xlink:href="#DejaVuSans-32"/>
    </g>
   </g>
   <g id="text_27">
    <g id="patch_17">
     <path d="M 224.812551 490.657165 
L 239.822551 490.657165 
L 239.822551 472.994665 
L 224.812551 472.994665 
z
" style="fill: #ffffff"/>
    </g>
    <!-- 3 -->
    <g transform="translate(229.772551 484.033415) scale(0.08 -0.08)">
     <defs>
      <path id="DejaVuSans-33" d="M 2597 2516 
Q 3050 2419 3304 2112 
Q 3559 1806 3559 1356 
Q 3559 666 3084 287 
Q 2609 -91 1734 -91 
Q 1441 -91 1130 -33 
Q 819 25 488 141 
L 488 750 
Q 750 597 1062 519 
Q 1375 441 1716 441 
Q 2309 441 2620 675 
Q 2931 909 2931 1356 
Q 2931 1769 2642 2001 
Q 2353 2234 1838 2234 
L 1294 2234 
L 1294 2753 
L 1863 2753 
Q 2328 2753 2575 2939 
Q 2822 3125 2822 3475 
Q 2822 3834 2567 4026 
Q 2313 4219 1838 4219 
Q 1578 4219 1281 4162 
Q 984 4106 628 3988 
L 628 4550 
Q 988 4650 1302 4700 
Q 1616 4750 1894 4750 
Q 2613 4750 3031 4423 
Q 3450 4097 3450 3541 
Q 3450 3153 3228 2886 
Q 3006 2619 2597 2516 
z
" transform="scale(0.015625)"/>
     </defs>
     <use xlink:href="#DejaVuSans-33"/>
    </g>
   </g>
   <g id="text_28">
    <g id="patch_18">
     <path d="M 254.788061 490.657165 
L 269.798061 490.657165 
L 269.798061 472.994665 
L 254.788061 472.994665 
z
" style="fill: #ffffff"/>
    </g>
    <!-- 4 -->
    <g transform="translate(259.748061 484.033415) scale(0.08 -0.08)">
     <use xlink:href="#DejaVuSans-34"/>
    </g>
   </g>
   <g id="text_29">
    <g id="patch_19">
     <path d="M 284.763571 490.657165 
L 299.773571 490.657165 
L 299.773571 472.994665 
L 284.763571 472.994665 
z
" style="fill: #ffffff"/>
    </g>
    <!-- 5 -->
    <g transform="translate(289.723571 484.033415) scale(0.08 -0.08)">
     <use xlink:href="#DejaVuSans-35"/>
    </g>
   </g>
   <g id="text_30">
    <g id="patch_20">
     <path d="M 314.739082 490.657165 
L 329.749082 490.657165 
L 329.749082 472.994665 
L 314.739082 472.994665 
z
" style="fill: #ffffff"/>
    </g>
    <!-- 6 -->
    <g transform="translate(319.699082 484.033415) scale(0.08 -0.08)">
     <use xlink:href="#DejaVuSans-36"/>
    </g>
   </g>
   <g id="text_31">
    <g id="patch_21">
     <path d="M 344.714592 490.657165 
L 359.724592 490.657165 
L 359.724592 472.994665 
L 344.714592 472.994665 
z
" style="fill: #ffffff"/>
    </g>
    <!-- 7 -->
    <g transform="translate(349.674592 484.033415) scale(0.08 -0.08)">
     <defs>
      <path id="DejaVuSans-37" d="M 525 4666 
L 3525 4666 
L 3525 4397 
L 1831 0 
L 1172 0 
L 2766 4134 
L 525 4134 
L 525 4666 
z
" transform="scale(0.015625)"/>
     </defs>
     <use xlink:href="#DejaVuSans-37"/>
    </g>
   </g>
   <g id="text_32">
    <g id="patch_22">
     <path d="M 374.690102 490.657165 
L 389.700102 490.657165 
L 389.700102 472.994665 
L 374.690102 472.994665 
z
" style="fill: #ffffff"/>
    </g>
    <!-- 8 -->
    <g transform="translate(379.650102 484.033415) scale(0.08 -0.08)">
     <defs>
      <path id="DejaVuSans-38" d="M 2034 2216 
Q 1584 2216 1326 1975 
Q 1069 1734 1069 1313 
Q 1069 891 1326 650 
Q 1584 409 2034 409 
Q 2484 409 2743 651 
Q 3003 894 3003 1313 
Q 3003 1734 2745 1975 
Q 2488 2216 2034 2216 
z
M 1403 2484 
Q 997 2584 770 2862 
Q 544 3141 544 3541 
Q 544 4100 942 4425 
Q 1341 4750 2034 4750 
Q 2731 4750 3128 4425 
Q 3525 4100 3525 3541 
Q 3525 3141 3298 2862 
Q 3072 2584 2669 2484 
Q 3125 2378 3379 2068 
Q 3634 1759 3634 1313 
Q 3634 634 3220 271 
Q 2806 -91 2034 -91 
Q 1263 -91 848 271 
Q 434 634 434 1313 
Q 434 1759 690 2068 
Q 947 2378 1403 2484 
z
M 1172 3481 
Q 1172 3119 1398 2916 
Q 1625 2713 2034 2713 
Q 2441 2713 2670 2916 
Q 2900 3119 2900 3481 
Q 2900 3844 2670 4047 
Q 2441 4250 2034 4250 
Q 1625 4250 1398 4047 
Q 1172 3844 1172 3481 
z
" transform="scale(0.015625)"/>
     </defs>
     <use xlink:href="#DejaVuSans-38"/>
    </g>
   </g>
   <g id="text_33">
    <g id="patch_23">
     <path d="M 404.665612 490.657165 
L 419.675612 490.657165 
L 419.675612 472.994665 
L 404.665612 472.994665 
z
" style="fill: #ffffff"/>
    </g>
    <!-- 9 -->
    <g transform="translate(409.625612 484.033415) scale(0.08 -0.08)">
     <defs>
      <path id="DejaVuSans-39" d="M 703 97 
L 703 672 
Q 941 559 1184 500 
Q 1428 441 1663 441 
Q 2288 441 2617 861 
Q 2947 1281 2994 2138 
Q 2813 1869 2534 1725 
Q 2256 1581 1919 1581 
Q 1219 1581 811 2004 
Q 403 2428 403 3163 
Q 403 3881 828 4315 
Q 1253 4750 1959 4750 
Q 2769 4750 3195 4129 
Q 3622 3509 3622 2328 
Q 3622 1225 3098 567 
Q 2575 -91 1691 -91 
Q 1453 -91 1209 -44 
Q 966 3 703 97 
z
M 1959 2075 
Q 2384 2075 2632 2365 
Q 2881 2656 2881 3163 
Q 2881 3666 2632 3958 
Q 2384 4250 1959 4250 
Q 1534 4250 1286 3958 
Q 1038 3666 1038 3163 
Q 1038 2656 1286 2365 
Q 1534 2075 1959 2075 
z
" transform="scale(0.015625)"/>
     </defs>
     <use xlink:href="#DejaVuSans-39"/>
    </g>
   </g>
   <g id="text_34">
    <g id="patch_24">
     <path d="M 432.096122 490.657165 
L 452.196122 490.657165 
L 452.196122 472.994665 
L 432.096122 472.994665 
z
" style="fill: #ffffff"/>
    </g>
    <!-- 10 -->
    <g transform="translate(437.056122 484.033415) scale(0.08 -0.08)">
     <use xlink:href="#DejaVuSans-31"/>
     <use xlink:href="#DejaVuSans-30" x="63.623047"/>
    </g>
   </g>
   <g id="text_35">
    <g id="patch_25">
     <path d="M 462.071633 490.657165 
L 482.171633 490.657165 
L 482.171633 472.994665 
L 462.071633 472.994665 
z
" style="fill: #ffffff"/>
    </g>
    <!-- 11 -->
    <g transform="translate(467.031633 484.033415) scale(0.08 -0.08)">
     <use xlink:href="#DejaVuSans-31"/>
     <use xlink:href="#DejaVuSans-31" x="63.623047"/>
    </g>
   </g>
   <g id="text_36">
    <g id="patch_26">
     <path d="M 492.047143 490.657165 
L 512.147143 490.657165 
L 512.147143 472.994665 
L 492.047143 472.994665 
z
" style="fill: #ffffff"/>
    </g>
    <!-- 12 -->
    <g transform="translate(497.007143 484.033415) scale(0.08 -0.08)">
     <use xlink:href="#DejaVuSans-31"/>
     <use xlink:href="#DejaVuSans-32" x="63.623047"/>
    </g>
   </g>
   <g id="text_37">
    <g id="patch_27">
     <path d="M 522.022653 490.657165 
L 542.122653 490.657165 
L 542.122653 472.994665 
L 522.022653 472.994665 
z
" style="fill: #ffffff"/>
    </g>
    <!-- 13 -->
    <g transform="translate(526.982653 484.033415) scale(0.08 -0.08)">
     <use xlink:href="#DejaVuSans-31"/>
     <use xlink:href="#DejaVuSans-33" x="63.623047"/>
    </g>
   </g>
   <g id="text_38">
    <g id="patch_28">
     <path d="M 551.998163 490.657165 
L 572.098163 490.657165 
L 572.098163 472.994665 
L 551.998163 472.994665 
z
" style="fill: #ffffff"/>
    </g>
    <!-- 14 -->
    <g transform="translate(556.958163 484.033415) scale(0.08 -0.08)">
     <use xlink:href="#DejaVuSans-31"/>
     <use xlink:href="#DejaVuSans-34" x="63.623047"/>
    </g>
   </g>
   <g id="text_39">
    <g id="patch_29">
     <path d="M 581.973673 490.657165 
L 602.073673 490.657165 
L 602.073673 472.994665 
L 581.973673 472.994665 
z
" style="fill: #ffffff"/>
    </g>
    <!-- 15 -->
    <g transform="translate(586.933673 484.033415) scale(0.08 -0.08)">
     <use xlink:href="#DejaVuSans-31"/>
     <use xlink:href="#DejaVuSans-35" x="63.623047"/>
    </g>
   </g>
   <g id="text_40">
    <g id="patch_30">
     <path d="M 611.949184 490.657165 
L 632.049184 490.657165 
L 632.049184 472.994665 
L 611.949184 472.994665 
z
" style="fill: #ffffff"/>
    </g>
    <!-- 16 -->
    <g transform="translate(616.909184 484.033415) scale(0.08 -0.08)">
     <use xlink:href="#DejaVuSans-31"/>
     <use xlink:href="#DejaVuSans-36" x="63.623047"/>
    </g>
   </g>
   <g id="text_41">
    <g id="patch_31">
     <path d="M 641.924694 490.657165 
L 662.024694 490.657165 
L 662.024694 472.994665 
L 641.924694 472.994665 
z
" style="fill: #ffffff"/>
    </g>
    <!-- 17 -->
    <g transform="translate(646.884694 484.033415) scale(0.08 -0.08)">
     <use xlink:href="#DejaVuSans-31"/>
     <use xlink:href="#DejaVuSans-37" x="63.623047"/>
    </g>
   </g>
   <g id="text_42">
    <g id="patch_32">
     <path d="M 671.900204 490.657165 
L 692.000204 490.657165 
L 692.000204 472.994665 
L 671.900204 472.994665 
z
" style="fill: #ffffff"/>
    </g>
    <!-- 18 -->
    <g transform="translate(676.860204 484.033415) scale(0.08 -0.08)">
     <use xlink:href="#DejaVuSans-31"/>
     <use xlink:href="#DejaVuSans-38" x="63.623047"/>
    </g>
   </g>
   <g id="text_43">
    <g id="patch_33">
     <path d="M 701.875714 490.657165 
L 721.975714 490.657165 
L 721.975714 472.994665 
L 701.875714 472.994665 
z
" style="fill: #ffffff"/>
    </g>
    <!-- 19 -->
    <g transform="translate(706.835714 484.033415) scale(0.08 -0.08)">
     <use xlink:href="#DejaVuSans-31"/>
     <use xlink:href="#DejaVuSans-39" x="63.623047"/>
    </g>
   </g>
   <g id="text_44">
    <g id="patch_34">
     <path d="M 731.851224 490.657165 
L 751.951224 490.657165 
L 751.951224 472.994665 
L 731.851224 472.994665 
z
" style="fill: #ffffff"/>
    </g>
    <!-- 20 -->
    <g transform="translate(736.811224 484.033415) scale(0.08 -0.08)">
     <use xlink:href="#DejaVuSans-32"/>
     <use xlink:href="#DejaVuSans-30" x="63.623047"/>
    </g>
   </g>
   <g id="text_45">
    <g id="patch_35">
     <path d="M 761.826735 490.657165 
L 781.926735 490.657165 
L 781.926735 472.994665 
L 761.826735 472.994665 
z
" style="fill: #ffffff"/>
    </g>
    <!-- 21 -->
    <g transform="translate(766.786735 484.033415) scale(0.08 -0.08)">
     <use xlink:href="#DejaVuSans-32"/>
     <use xlink:href="#DejaVuSans-31" x="63.623047"/>
    </g>
   </g>
   <g id="text_46">
    <g id="patch_36">
     <path d="M 791.802245 490.657165 
L 811.902245 490.657165 
L 811.902245 472.994665 
L 791.802245 472.994665 
z
" style="fill: #ffffff"/>
    </g>
    <!-- 22 -->
    <g transform="translate(796.762245 484.033415) scale(0.08 -0.08)">
     <use xlink:href="#DejaVuSans-32"/>
     <use xlink:href="#DejaVuSans-32" x="63.623047"/>
    </g>
   </g>
   <g id="text_47">
    <!-- counter -->
    <g transform="translate(34.479184 484.58529) scale(0.1 -0.1)">
     <use xlink:href="#DejaVuSans-63"/>
     <use xlink:href="#DejaVuSans-6f" x="54.980469"/>
     <use xlink:href="#DejaVuSans-75" x="116.162109"/>
     <use xlink:href="#DejaVuSans-6e" x="179.541016"/>
     <use xlink:href="#DejaVuSans-74" x="242.919922"/>
     <use xlink:href="#DejaVuSans-65" x="282.128906"/>
     <use xlink:href="#DejaVuSans-72" x="343.652344"/>
    </g>
   </g>
   <g id="text_48">
    <!-- 245 -->
    <g transform="translate(803.747602 689.684256) scale(0.1 -0.1)">
     <use xlink:href="#DejaVuSans-32"/>
     <use xlink:href="#DejaVuSans-34" x="63.623047"/>
     <use xlink:href="#DejaVuSans-35" x="127.246094"/>
    </g>
   </g>
   <g id="text_49">
    <!-- Timeline Signals -->
    <g transform="translate(400.667813 398.44) scale(0.12 -0.12)">
     <use xlink:href="#DejaVuSans-54"/>
     <use xlink:href="#DejaVuSans-69" x="57.958984"/>
     <use xlink:href="#DejaVuSans-6d" x="85.742188"/>
     <use xlink:href="#DejaVuSans-65" x="183.154297"/>
     <use xlink:href="#DejaVuSans-6c" x="244.677734"/>
     <use xlink:href="#DejaVuSans-69" x="272.460938"/>
     <use xlink:href="#DejaVuSans-6e" x="300.244141"/>
     <use xlink:href="#DejaVuSans-65" x="363.623047"/>
     <use xlink:href="#DejaVuSans-20" x="425.146484"/>
     <use xlink:href="#DejaVuSans-53" x="456.933594"/>
     <use xlink:href="#DejaVuSans-69" x="520.410156"/>
     <use xlink:href="#DejaVuSans-67" x="548.193359"/>
     <use xlink:href="#DejaVuSans-6e" x="611.669922"/>
     <use xlink:href="#DejaVuSans-61" x="675.048828"/>
     <use xlink:href="#DejaVuSans-6c" x="736.328125"/>
     <use xlink:href="#DejaVuSans-73" x="764.111328"/>
    </g>
   </g>
  </g>
  <g id="patch_37">
   <path d="M 18 737.28 
L 881.28 737.28 
L 881.28 18 
L 18 18 
L 18 737.28 
z
" style="fill: none; stroke: #000000; stroke-width: 1.5; stroke-linejoin: miter"/>
  </g>
 </g>
 <defs>
  <clipPath id="pa768bc50b6">
   <rect x="82.44" y="64.44" width="326.4" height="272"/>
  </clipPath>
  <clipPath id="pecd93d4b4d">
   <rect x="490.44" y="64.44" width="326.4" height="272"/>
  </clipPath>
  <clipPath id="p72d1bf8ed9">
   <rect x="82.44" y="404.44" width="734.4" height="272"/>
  </clipPath>
 </defs>
</svg>
