<?xml version="1.0" encoding="utf-8" standalone="no"?>
<!DOCTYPE svg PUBLIC "-//W3C//DTD SVG 1.1//EN"
  "http://www.w3.org/Graphics/SVG/1.1/DTD/svg11.dtd">
<svg xmlns:xlink="http://www.w3.org/1999/xlink" width="827.28pt" height="467.28pt" viewBox="0 0 827.28 467.28" xmlns="http://www.w3.org/2000/svg" version="1.1">
 <metadata>
  <rdf:RDF xmlns:dc="http://purl.org/dc/elements/1.1/" xmlns:cc="http://creativecommons.org/ns#" xmlns:rdf="http://www.w3.org/1999/02/22-rdf-syntax-ns#">
   <cc:Work>
    <dc:type rdf:resource="http://purl.org/dc/dcmitype/StillImage"/>
    <dc:date>2024-06-25T11:28:36.496359</dc:date>
    <dc:format>image/svg+xml</dc:format>
    <dc:creator>
     <cc:Agent>
      <dc:title>Matplotlib v3.7.2, https://matplotlib.org/</dc:title>
     </cc:Agent>
    </dc:creator>
   </cc:Work>
  </rdf:RDF>
 </metadata>
 <defs>
  <style type="text/css">*{stroke-linejoin: round; stroke-linecap: butt}</style>
 </defs>
 <g id="figure_1">
  <g id="patch_1">
   <path d="M 0 467.28 
L 827.28 467.28 
L 827.28 0 
L 0 0 
z
" style="fill: #ffffff; stroke: #000000; stroke-width: 2; stroke-linejoin: miter"/>
  </g>
  <g id="axes_1">
   <g id="patch_2">
    <path d="M 57.24 208.92 
L 374.04 208.92 
L 374.04 45.72 
L 57.24 45.72 
L 57.24 208.92 
z
" clip-path="url(#pe9cda0c4af)" style="fill: none; stroke: #000000; stroke-width: 2; stroke-linejoin: miter"/>
   </g>
  </g>
  <g id="axes_2">
   <g id="patch_3">
    <path d="M 453.24 208.92 
L 770.04 208.92 
L 770.04 45.72 
L 453.24 45.72 
z
" style="fill: #ffffff"/>
   </g>
   <g id="matplotlib.axis_1">
    <g id="xtick_1">
     <g id="line2d_1">
      <path d="M 467.64 208.92 
L 467.64 45.72 
" clip-path="url(#pf32c8c0f36)" style="fill: none; stroke: #b0b0b0; stroke-width: 0.8; stroke-linecap: square"/>
     </g>
     <g id="line2d_2">
      <defs>
       <path id="me5d72ca26b" d="M 0 0 
L 0 3.5 
" style="stroke: #000000; stroke-width: 0.8"/>
      </defs>
      <g>
       <use xlink:href="#me5d72ca26b" x="467.64" y="208.92" style="stroke: #000000; stroke-width: 0.8"/>
      </g>
     </g>
     <g id="text_1">
      <!-- 0.0 -->
      <g transform="translate(459.688437 223.518437) scale(0.1 -0.1)">
       <defs>
        <path id="DejaVuSans-30" d="M 2034 4250 
Q 1547 4250 1301 3770 
Q 1056 3291 1056 2328 
Q 1056 1369 1301 889 
Q 1547 409 2034 409 
Q 2525 409 2770 889 
Q 3016 1369 3016 2328 
Q 3016 3291 2770 3770 
Q 2525 4250 2034 4250 
z
M 2034 4750 
Q 2819 4750 3233 4129 
Q 3647 3509 3647 2328 
Q 3647 1150 3233 529 
Q 2819 -91 2034 -91 
Q 1250 -91 836 529 
Q 422 1150 422 2328 
Q 422 3509 836 4129 
Q 1250 4750 2034 4750 
z
" transform="scale(0.015625)"/>
        <path id="DejaVuSans-2e" d="M 684 794 
L 1344 794 
L 1344 0 
L 684 0 
L 684 794 
z
" transform="scale(0.015625)"/>
       </defs>
       <use xlink:href="#DejaVuSans-30"/>
       <use xlink:href="#DejaVuSans-2e" x="63.623047"/>
       <use xlink:href="#DejaVuSans-30" x="95.410156"/>
      </g>
     </g>
    </g>
    <g id="xtick_2">
     <g id="line2d_3">
      <path d="M 526.41551 208.92 
L 526.41551 45.72 
" clip-path="url(#pf32c8c0f36)" style="fill: none; stroke: #b0b0b0; stroke-width: 0.8; stroke-linecap: square"/>
     </g>
     <g id="line2d_4">
      <g>
       <use xlink:href="#me5d72ca26b" x="526.41551" y="208.92" style="stroke: #000000; stroke-width: 0.8"/>
      </g>
     </g>
     <g id="text_2">
      <!-- 0.5 -->
      <g transform="translate(518.463948 223.518437) scale(0.1 -0.1)">
       <defs>
        <path id="DejaVuSans-35" d="M 691 4666 
L 3169 4666 
L 3169 4134 
L 1269 4134 
L 1269 2991 
Q 1406 3038 1543 3061 
Q 1681 3084 1819 3084 
Q 2600 3084 3056 2656 
Q 3513 2228 3513 1497 
Q 3513 744 3044 326 
Q 2575 -91 1722 -91 
Q 1428 -91 1123 -41 
Q 819 9 494 109 
L 494 744 
Q 775 591 1075 516 
Q 1375 441 1709 441 
Q 2250 441 2565 725 
Q 2881 1009 2881 1497 
Q 2881 1984 2565 2268 
Q 2250 2553 1709 2553 
Q 1456 2553 1204 2497 
Q 953 2441 691 2322 
L 691 4666 
z
" transform="scale(0.015625)"/>
       </defs>
       <use xlink:href="#DejaVuSans-30"/>
       <use xlink:href="#DejaVuSans-2e" x="63.623047"/>
       <use xlink:href="#DejaVuSans-35" x="95.410156"/>
      </g>
     </g>
    </g>
    <g id="xtick_3">
     <g id="line2d_5">
      <path d="M 585.19102 208.92 
L 585.19102 45.72 
" clip-path="url(#pf32c8c0f36)" style="fill: none; stroke: #b0b0b0; stroke-width: 0.8; stroke-linecap: square"/>
     </g>
     <g id="line2d_6">
      <g>
       <use xlink:href="#me5d72ca26b" x="585.19102" y="208.92" style="stroke: #000000; stroke-width: 0.8"/>
      </g>
     </g>
     <g id="text_3">
      <!-- 1.0 -->
      <g transform="translate(577.239458 223.518437) scale(0.1 -0.1)">
       <defs>
        <path id="DejaVuSans-31" d="M 794 531 
L 1825 531 
L 1825 4091 
L 703 3866 
L 703 4441 
L 1819 4666 
L 2450 4666 
L 2450 531 
L 3481 531 
L 3481 0 
L 794 0 
L 794 531 
z
" transform="scale(0.015625)"/>
       </defs>
       <use xlink:href="#DejaVuSans-31"/>
       <use xlink:href="#DejaVuSans-2e" x="63.623047"/>
       <use xlink:href="#DejaVuSans-30" x="95.410156"/>
      </g>
     </g>
    </g>
    <g id="xtick_4">
     <g id="line2d_7">
      <path d="M 643.966531 208.92 
L 643.966531 45.72 
" clip-path="url(#pf32c8c0f36)" style="fill: none; stroke: #b0b0b0; stroke-width: 0.8; stroke-linecap: square"/>
     </g>
     <g id="line2d_8">
      <g>
       <use xlink:href="#me5d72ca26b" x="643.966531" y="208.92" style="stroke: #000000; stroke-width: 0.8"/>
      </g>
     </g>
     <g id="text_4">
      <!-- 1.5 -->
      <g transform="translate(636.014968 223.518437) scale(0.1 -0.1)">
       <use xlink:href="#DejaVuSans-31"/>
       <use xlink:href="#DejaVuSans-2e" x="63.623047"/>
       <use xlink:href="#DejaVuSans-35" x="95.410156"/>
      </g>
     </g>
    </g>
    <g id="xtick_5">
     <g id="line2d_9">
      <path d="M 702.742041 208.92 
L 702.742041 45.72 
" clip-path="url(#pf32c8c0f36)" style="fill: none; stroke: #b0b0b0; stroke-width: 0.8; stroke-linecap: square"/>
     </g>
     <g id="line2d_10">
      <g>
       <use xlink:href="#me5d72ca26b" x="702.742041" y="208.92" style="stroke: #000000; stroke-width: 0.8"/>
      </g>
     </g>
     <g id="text_5">
      <!-- 2.0 -->
      <g transform="translate(694.790478 223.518437) scale(0.1 -0.1)">
       <defs>
        <path id="DejaVuSans-32" d="M 1228 531 
L 3431 531 
L 3431 0 
L 469 0 
L 469 531 
Q 828 903 1448 1529 
Q 2069 2156 2228 2338 
Q 2531 2678 2651 2914 
Q 2772 3150 2772 3378 
Q 2772 3750 2511 3984 
Q 2250 4219 1831 4219 
Q 1534 4219 1204 4116 
Q 875 4013 500 3803 
L 500 4441 
Q 881 4594 1212 4672 
Q 1544 4750 1819 4750 
Q 2544 4750 2975 4387 
Q 3406 4025 3406 3419 
Q 3406 3131 3298 2873 
Q 3191 2616 2906 2266 
Q 2828 2175 2409 1742 
Q 1991 1309 1228 531 
z
" transform="scale(0.015625)"/>
       </defs>
       <use xlink:href="#DejaVuSans-32"/>
       <use xlink:href="#DejaVuSans-2e" x="63.623047"/>
       <use xlink:href="#DejaVuSans-30" x="95.410156"/>
      </g>
     </g>
    </g>
    <g id="xtick_6">
     <g id="line2d_11">
      <path d="M 761.517551 208.92 
L 761.517551 45.72 
" clip-path="url(#pf32c8c0f36)" style="fill: none; stroke: #b0b0b0; stroke-width: 0.8; stroke-linecap: square"/>
     </g>
     <g id="line2d_12">
      <g>
       <use xlink:href="#me5d72ca26b" x="761.517551" y="208.92" style="stroke: #000000; stroke-width: 0.8"/>
      </g>
     </g>
     <g id="text_6">
      <!-- 2.5 -->
      <g transform="translate(753.565989 223.518437) scale(0.1 -0.1)">
       <use xlink:href="#DejaVuSans-32"/>
       <use xlink:href="#DejaVuSans-2e" x="63.623047"/>
       <use xlink:href="#DejaVuSans-35" x="95.410156"/>
      </g>
     </g>
    </g>
    <g id="text_7">
     <!-- Time (ms) -->
     <g transform="translate(586.440781 237.196562) scale(0.1 -0.1)">
      <defs>
       <path id="DejaVuSans-54" d="M -19 4666 
L 3928 4666 
L 3928 4134 
L 2272 4134 
L 2272 0 
L 1638 0 
L 1638 4134 
L -19 4134 
L -19 4666 
z
" transform="scale(0.015625)"/>
       <path id="DejaVuSans-69" d="M 603 3500 
L 1178 3500 
L 1178 0 
L 603 0 
L 603 3500 
z
M 603 4863 
L 1178 4863 
L 1178 4134 
L 603 4134 
L 603 4863 
z
" transform="scale(0.015625)"/>
       <path id="DejaVuSans-6d" d="M 3328 2828 
Q 3544 3216 3844 3400 
Q 4144 3584 4550 3584 
Q 5097 3584 5394 3201 
Q 5691 2819 5691 2113 
L 5691 0 
L 5113 0 
L 5113 2094 
Q 5113 2597 4934 2840 
Q 4756 3084 4391 3084 
Q 3944 3084 3684 2787 
Q 3425 2491 3425 1978 
L 3425 0 
L 2847 0 
L 2847 2094 
Q 2847 2600 2669 2842 
Q 2491 3084 2119 3084 
Q 1678 3084 1418 2786 
Q 1159 2488 1159 1978 
L 1159 0 
L 581 0 
L 581 3500 
L 1159 3500 
L 1159 2956 
Q 1356 3278 1631 3431 
Q 1906 3584 2284 3584 
Q 2666 3584 2933 3390 
Q 3200 3197 3328 2828 
z
" transform="scale(0.015625)"/>
       <path id="DejaVuSans-65" d="M 3597 1894 
L 3597 1613 
L 953 1613 
Q 991 1019 1311 708 
Q 1631 397 2203 397 
Q 2534 397 2845 478 
Q 3156 559 3463 722 
L 3463 178 
Q 3153 47 2828 -22 
Q 2503 -91 2169 -91 
Q 1331 -91 842 396 
Q 353 884 353 1716 
Q 353 2575 817 3079 
Q 1281 3584 2069 3584 
Q 2775 3584 3186 3129 
Q 3597 2675 3597 1894 
z
M 3022 2063 
Q 3016 2534 2758 2815 
Q 2500 3097 2075 3097 
Q 1594 3097 1305 2825 
Q 1016 2553 972 2059 
L 3022 2063 
z
" transform="scale(0.015625)"/>
       <path id="DejaVuSans-20" transform="scale(0.015625)"/>
       <path id="DejaVuSans-28" d="M 1984 4856 
Q 1566 4138 1362 3434 
Q 1159 2731 1159 2009 
Q 1159 1288 1364 580 
Q 1569 -128 1984 -844 
L 1484 -844 
Q 1016 -109 783 600 
Q 550 1309 550 2009 
Q 550 2706 781 3412 
Q 1013 4119 1484 4856 
L 1984 4856 
z
" transform="scale(0.015625)"/>
       <path id="DejaVuSans-73" d="M 2834 3397 
L 2834 2853 
Q 2591 2978 2328 3040 
Q 2066 3103 1784 3103 
Q 1356 3103 1142 2972 
Q 928 2841 928 2578 
Q 928 2378 1081 2264 
Q 1234 2150 1697 2047 
L 1894 2003 
Q 2506 1872 2764 1633 
Q 3022 1394 3022 966 
Q 3022 478 2636 193 
Q 2250 -91 1575 -91 
Q 1294 -91 989 -36 
Q 684 19 347 128 
L 347 722 
Q 666 556 975 473 
Q 1284 391 1588 391 
Q 1994 391 2212 530 
Q 2431 669 2431 922 
Q 2431 1156 2273 1281 
Q 2116 1406 1581 1522 
L 1381 1569 
Q 847 1681 609 1914 
Q 372 2147 372 2553 
Q 372 3047 722 3315 
Q 1072 3584 1716 3584 
Q 2034 3584 2315 3537 
Q 2597 3491 2834 3397 
z
" transform="scale(0.015625)"/>
       <path id="DejaVuSans-29" d="M 513 4856 
L 1013 4856 
Q 1481 4119 1714 3412 
Q 1947 2706 1947 2009 
Q 1947 1309 1714 600 
Q 1481 -109 1013 -844 
L 513 -844 
Q 928 -128 1133 580 
Q 1338 1288 1338 2009 
Q 1338 2731 1133 3434 
Q 928 4138 513 4856 
z
" transform="scale(0.015625)"/>
      </defs>
      <use xlink:href="#DejaVuSans-54"/>
      <use xlink:href="#DejaVuSans-69" x="57.958984"/>
      <use xlink:href="#DejaVuSans-6d" x="85.742188"/>
      <use xlink:href="#DejaVuSans-65" x="183.154297"/>
      <use xlink:href="#DejaVuSans-20" x="244.677734"/>
      <use xlink:href="#DejaVuSans-28" x="276.464844"/>
      <use xlink:href="#DejaVuSans-6d" x="315.478516"/>
      <use xlink:href="#DejaVuSans-73" x="412.890625"/>
      <use xlink:href="#DejaVuSans-29" x="464.990234"/>
     </g>
    </g>
    <g id="text_8">
     <!-- 1e8 -->
     <g transform="translate(751.161875 236.196562) scale(0.1 -0.1)">
      <defs>
       <path id="DejaVuSans-38" d="M 2034 2216 
Q 1584 2216 1326 1975 
Q 1069 1734 1069 1313 
Q 1069 891 1326 650 
Q 1584 409 2034 409 
Q 2484 409 2743 651 
Q 3003 894 3003 1313 
Q 3003 1734 2745 1975 
Q 2488 2216 2034 2216 
z
M 1403 2484 
Q 997 2584 770 2862 
Q 544 3141 544 3541 
Q 544 4100 942 4425 
Q 1341 4750 2034 4750 
Q 2731 4750 3128 4425 
Q 3525 4100 3525 3541 
Q 3525 3141 3298 2862 
Q 3072 2584 2669 2484 
Q 3125 2378 3379 2068 
Q 3634 1759 3634 1313 
Q 3634 634 3220 271 
Q 2806 -91 2034 -91 
Q 1263 -91 848 271 
Q 434 634 434 1313 
Q 434 1759 690 2068 
Q 947 2378 1403 2484 
z
M 1172 3481 
Q 1172 3119 1398 2916 
Q 1625 2713 2034 2713 
Q 2441 2713 2670 2916 
Q 2900 3119 2900 3481 
Q 2900 3844 2670 4047 
Q 2441 4250 2034 4250 
Q 1625 4250 1398 4047 
Q 1172 3844 1172 3481 
z
" transform="scale(0.015625)"/>
      </defs>
      <use xlink:href="#DejaVuSans-31"/>
      <use xlink:href="#DejaVuSans-65" x="63.623047"/>
      <use xlink:href="#DejaVuSans-38" x="125.146484"/>
     </g>
    </g>
   </g>
   <g id="matplotlib.axis_2">
    <g id="ytick_1">
     <g id="line2d_13">
      <path d="M 453.24 201.501818 
L 770.04 201.501818 
" clip-path="url(#pf32c8c0f36)" style="fill: none; stroke: #b0b0b0; stroke-width: 0.8; stroke-linecap: square"/>
     </g>
     <g id="line2d_14">
      <defs>
       <path id="mcd5446e597" d="M 0 0 
L -3.5 0 
" style="stroke: #000000; stroke-width: 0.8"/>
      </defs>
      <g>
       <use xlink:href="#mcd5446e597" x="453.24" y="201.501818" style="stroke: #000000; stroke-width: 0.8"/>
      </g>
     </g>
     <g id="text_9">
      <!-- 0 -->
      <g transform="translate(439.8775 205.301037) scale(0.1 -0.1)">
       <use xlink:href="#DejaVuSans-30"/>
      </g>
     </g>
    </g>
    <g id="ytick_2">
     <g id="line2d_15">
      <path d="M 453.24 167.78281 
L 770.04 167.78281 
" clip-path="url(#pf32c8c0f36)" style="fill: none; stroke: #b0b0b0; stroke-width: 0.8; stroke-linecap: square"/>
     </g>
     <g id="line2d_16">
      <g>
       <use xlink:href="#mcd5446e597" x="453.24" y="167.78281" style="stroke: #000000; stroke-width: 0.8"/>
      </g>
     </g>
     <g id="text_10">
      <!-- 5 -->
      <g transform="translate(439.8775 171.582029) scale(0.1 -0.1)">
       <use xlink:href="#DejaVuSans-35"/>
      </g>
     </g>
    </g>
    <g id="ytick_3">
     <g id="line2d_17">
      <path d="M 453.24 134.063802 
L 770.04 134.063802 
" clip-path="url(#pf32c8c0f36)" style="fill: none; stroke: #b0b0b0; stroke-width: 0.8; stroke-linecap: square"/>
     </g>
     <g id="line2d_18">
      <g>
       <use xlink:href="#mcd5446e597" x="453.24" y="134.063802" style="stroke: #000000; stroke-width: 0.8"/>
      </g>
     </g>
     <g id="text_11">
      <!-- 10 -->
      <g transform="translate(433.515 137.86302) scale(0.1 -0.1)">
       <use xlink:href="#DejaVuSans-31"/>
       <use xlink:href="#DejaVuSans-30" x="63.623047"/>
      </g>
     </g>
    </g>
    <g id="ytick_4">
     <g id="line2d_19">
      <path d="M 453.24 100.344793 
L 770.04 100.344793 
" clip-path="url(#pf32c8c0f36)" style="fill: none; stroke: #b0b0b0; stroke-width: 0.8; stroke-linecap: square"/>
     </g>
     <g id="line2d_20">
      <g>
       <use xlink:href="#mcd5446e597" x="453.24" y="100.344793" style="stroke: #000000; stroke-width: 0.8"/>
      </g>
     </g>
     <g id="text_12">
      <!-- 15 -->
      <g transform="translate(433.515 104.144012) scale(0.1 -0.1)">
       <use xlink:href="#DejaVuSans-31"/>
       <use xlink:href="#DejaVuSans-35" x="63.623047"/>
      </g>
     </g>
    </g>
    <g id="ytick_5">
     <g id="line2d_21">
      <path d="M 453.24 66.625785 
L 770.04 66.625785 
" clip-path="url(#pf32c8c0f36)" style="fill: none; stroke: #b0b0b0; stroke-width: 0.8; stroke-linecap: square"/>
     </g>
     <g id="line2d_22">
      <g>
       <use xlink:href="#mcd5446e597" x="453.24" y="66.625785" style="stroke: #000000; stroke-width: 0.8"/>
      </g>
     </g>
     <g id="text_13">
      <!-- 20 -->
      <g transform="translate(433.515 70.425004) scale(0.1 -0.1)">
       <use xlink:href="#DejaVuSans-32"/>
       <use xlink:href="#DejaVuSans-30" x="63.623047"/>
      </g>
     </g>
    </g>
    <g id="text_14">
     <!-- Value (ADC) 32 Bits -->
     <g transform="translate(427.435312 176.228594) rotate(-90) scale(0.1 -0.1)">
      <defs>
       <path id="DejaVuSans-56" d="M 1831 0 
L 50 4666 
L 709 4666 
L 2188 738 
L 3669 4666 
L 4325 4666 
L 2547 0 
L 1831 0 
z
" transform="scale(0.015625)"/>
       <path id="DejaVuSans-61" d="M 2194 1759 
Q 1497 1759 1228 1600 
Q 959 1441 959 1056 
Q 959 750 1161 570 
Q 1363 391 1709 391 
Q 2188 391 2477 730 
Q 2766 1069 2766 1631 
L 2766 1759 
L 2194 1759 
z
M 3341 1997 
L 3341 0 
L 2766 0 
L 2766 531 
Q 2569 213 2275 61 
Q 1981 -91 1556 -91 
Q 1019 -91 701 211 
Q 384 513 384 1019 
Q 384 1609 779 1909 
Q 1175 2209 1959 2209 
L 2766 2209 
L 2766 2266 
Q 2766 2663 2505 2880 
Q 2244 3097 1772 3097 
Q 1472 3097 1187 3025 
Q 903 2953 641 2809 
L 641 3341 
Q 956 3463 1253 3523 
Q 1550 3584 1831 3584 
Q 2591 3584 2966 3190 
Q 3341 2797 3341 1997 
z
" transform="scale(0.015625)"/>
       <path id="DejaVuSans-6c" d="M 603 4863 
L 1178 4863 
L 1178 0 
L 603 0 
L 603 4863 
z
" transform="scale(0.015625)"/>
       <path id="DejaVuSans-75" d="M 544 1381 
L 544 3500 
L 1119 3500 
L 1119 1403 
Q 1119 906 1312 657 
Q 1506 409 1894 409 
Q 2359 409 2629 706 
Q 2900 1003 2900 1516 
L 2900 3500 
L 3475 3500 
L 3475 0 
L 2900 0 
L 2900 538 
Q 2691 219 2414 64 
Q 2138 -91 1772 -91 
Q 1169 -91 856 284 
Q 544 659 544 1381 
z
M 1991 3584 
L 1991 3584 
z
" transform="scale(0.015625)"/>
       <path id="DejaVuSans-41" d="M 2188 4044 
L 1331 1722 
L 3047 1722 
L 2188 4044 
z
M 1831 4666 
L 2547 4666 
L 4325 0 
L 3669 0 
L 3244 1197 
L 1141 1197 
L 716 0 
L 50 0 
L 1831 4666 
z
" transform="scale(0.015625)"/>
       <path id="DejaVuSans-44" d="M 1259 4147 
L 1259 519 
L 2022 519 
Q 2988 519 3436 956 
Q 3884 1394 3884 2338 
Q 3884 3275 3436 3711 
Q 2988 4147 2022 4147 
L 1259 4147 
z
M 628 4666 
L 1925 4666 
Q 3281 4666 3915 4102 
Q 4550 3538 4550 2338 
Q 4550 1131 3912 565 
Q 3275 0 1925 0 
L 628 0 
L 628 4666 
z
" transform="scale(0.015625)"/>
       <path id="DejaVuSans-43" d="M 4122 4306 
L 4122 3641 
Q 3803 3938 3442 4084 
Q 3081 4231 2675 4231 
Q 1875 4231 1450 3742 
Q 1025 3253 1025 2328 
Q 1025 1406 1450 917 
Q 1875 428 2675 428 
Q 3081 428 3442 575 
Q 3803 722 4122 1019 
L 4122 359 
Q 3791 134 3420 21 
Q 3050 -91 2638 -91 
Q 1578 -91 968 557 
Q 359 1206 359 2328 
Q 359 3453 968 4101 
Q 1578 4750 2638 4750 
Q 3056 4750 3426 4639 
Q 3797 4528 4122 4306 
z
" transform="scale(0.015625)"/>
       <path id="DejaVuSans-33" d="M 2597 2516 
Q 3050 2419 3304 2112 
Q 3559 1806 3559 1356 
Q 3559 666 3084 287 
Q 2609 -91 1734 -91 
Q 1441 -91 1130 -33 
Q 819 25 488 141 
L 488 750 
Q 750 597 1062 519 
Q 1375 441 1716 441 
Q 2309 441 2620 675 
Q 2931 909 2931 1356 
Q 2931 1769 2642 2001 
Q 2353 2234 1838 2234 
L 1294 2234 
L 1294 2753 
L 1863 2753 
Q 2328 2753 2575 2939 
Q 2822 3125 2822 3475 
Q 2822 3834 2567 4026 
Q 2313 4219 1838 4219 
Q 1578 4219 1281 4162 
Q 984 4106 628 3988 
L 628 4550 
Q 988 4650 1302 4700 
Q 1616 4750 1894 4750 
Q 2613 4750 3031 4423 
Q 3450 4097 3450 3541 
Q 3450 3153 3228 2886 
Q 3006 2619 2597 2516 
z
" transform="scale(0.015625)"/>
       <path id="DejaVuSans-42" d="M 1259 2228 
L 1259 519 
L 2272 519 
Q 2781 519 3026 730 
Q 3272 941 3272 1375 
Q 3272 1813 3026 2020 
Q 2781 2228 2272 2228 
L 1259 2228 
z
M 1259 4147 
L 1259 2741 
L 2194 2741 
Q 2656 2741 2882 2914 
Q 3109 3088 3109 3444 
Q 3109 3797 2882 3972 
Q 2656 4147 2194 4147 
L 1259 4147 
z
M 628 4666 
L 2241 4666 
Q 2963 4666 3353 4366 
Q 3744 4066 3744 3513 
Q 3744 3084 3544 2831 
Q 3344 2578 2956 2516 
Q 3422 2416 3680 2098 
Q 3938 1781 3938 1306 
Q 3938 681 3513 340 
Q 3088 0 2303 0 
L 628 0 
L 628 4666 
z
" transform="scale(0.015625)"/>
       <path id="DejaVuSans-74" d="M 1172 4494 
L 1172 3500 
L 2356 3500 
L 2356 3053 
L 1172 3053 
L 1172 1153 
Q 1172 725 1289 603 
Q 1406 481 1766 481 
L 2356 481 
L 2356 0 
L 1766 0 
Q 1100 0 847 248 
Q 594 497 594 1153 
L 594 3053 
L 172 3053 
L 172 3500 
L 594 3500 
L 594 4494 
L 1172 4494 
z
" transform="scale(0.015625)"/>
      </defs>
      <use xlink:href="#DejaVuSans-56"/>
      <use xlink:href="#DejaVuSans-61" x="60.658203"/>
      <use xlink:href="#DejaVuSans-6c" x="121.9375"/>
      <use xlink:href="#DejaVuSans-75" x="149.720703"/>
      <use xlink:href="#DejaVuSans-65" x="213.099609"/>
      <use xlink:href="#DejaVuSans-20" x="274.623047"/>
      <use xlink:href="#DejaVuSans-28" x="306.410156"/>
      <use xlink:href="#DejaVuSans-41" x="345.423828"/>
      <use xlink:href="#DejaVuSans-44" x="413.832031"/>
      <use xlink:href="#DejaVuSans-43" x="490.833984"/>
      <use xlink:href="#DejaVuSans-29" x="560.658203"/>
      <use xlink:href="#DejaVuSans-20" x="599.671875"/>
      <use xlink:href="#DejaVuSans-33" x="631.458984"/>
      <use xlink:href="#DejaVuSans-32" x="695.082031"/>
      <use xlink:href="#DejaVuSans-20" x="758.705078"/>
      <use xlink:href="#DejaVuSans-42" x="790.492188"/>
      <use xlink:href="#DejaVuSans-69" x="859.095703"/>
      <use xlink:href="#DejaVuSans-74" x="886.878906"/>
      <use xlink:href="#DejaVuSans-73" x="926.087891"/>
     </g>
    </g>
   </g>
   <g id="line2d_23">
    <path d="M 467.64 201.501818 
L 473.517551 201.501818 
L 473.517551 201.501818 
L 479.395102 201.501818 
L 479.395102 201.501818 
L 485.272653 201.501818 
L 485.272653 201.501818 
L 491.150204 201.501818 
L 491.150204 201.501818 
L 497.027755 201.501818 
L 497.027755 201.501818 
L 502.905306 201.501818 
L 502.905306 194.758017 
L 508.782857 194.758017 
L 508.782857 194.758017 
L 514.660408 194.758017 
L 514.660408 188.014215 
L 520.537959 188.014215 
L 520.537959 188.014215 
L 526.41551 188.014215 
L 526.41551 181.270413 
L 532.293061 181.270413 
L 532.293061 181.270413 
L 538.170612 181.270413 
L 538.170612 174.526612 
L 544.048163 174.526612 
L 544.048163 174.526612 
L 549.925714 174.526612 
L 549.925714 167.78281 
L 555.803265 167.78281 
L 555.803265 167.78281 
L 561.680816 167.78281 
L 561.680816 161.039008 
L 567.558367 161.039008 
L 567.558367 161.039008 
L 573.435918 161.039008 
L 573.435918 154.295207 
L 579.313469 154.295207 
L 579.313469 154.295207 
L 585.19102 154.295207 
L 585.19102 147.551405 
L 591.068571 147.551405 
L 591.068571 147.551405 
L 596.946122 147.551405 
L 596.946122 140.807603 
L 602.823673 140.807603 
L 602.823673 140.807603 
L 608.701224 140.807603 
L 608.701224 134.063802 
L 614.578776 134.063802 
L 614.578776 134.063802 
L 620.456327 134.063802 
L 620.456327 127.32 
L 626.333878 127.32 
L 626.333878 127.32 
L 632.211429 127.32 
L 632.211429 120.576198 
L 638.08898 120.576198 
L 638.08898 120.576198 
L 643.966531 120.576198 
L 643.966531 113.832397 
L 649.844082 113.832397 
L 649.844082 113.832397 
L 655.721633 113.832397 
L 655.721633 107.088595 
L 661.599184 107.088595 
L 661.599184 107.088595 
L 667.476735 107.088595 
L 667.476735 100.344793 
L 673.354286 100.344793 
L 673.354286 100.344793 
L 679.231837 100.344793 
L 679.231837 93.600992 
L 685.109388 93.600992 
L 685.109388 93.600992 
L 690.986939 93.600992 
L 690.986939 86.85719 
L 696.86449 86.85719 
L 696.86449 86.85719 
L 702.742041 86.85719 
L 702.742041 80.113388 
L 708.619592 80.113388 
L 708.619592 80.113388 
L 714.497143 80.113388 
L 714.497143 73.369587 
L 720.374694 73.369587 
L 720.374694 73.369587 
L 726.252245 73.369587 
L 726.252245 66.625785 
L 732.129796 66.625785 
L 732.129796 66.625785 
L 738.007347 66.625785 
L 738.007347 59.881983 
L 743.884898 59.881983 
L 743.884898 59.881983 
L 749.762449 59.881983 
L 749.762449 53.138182 
L 755.64 53.138182 
L 755.64 53.138182 
" clip-path="url(#pf32c8c0f36)" style="fill: none; stroke: #008000; stroke-width: 2; stroke-linecap: square"/>
   </g>
   <g id="patch_4">
    <path d="M 453.24 208.92 
L 453.24 45.72 
" style="fill: none; stroke: #000000; stroke-width: 0.8; stroke-linejoin: miter; stroke-linecap: square"/>
   </g>
   <g id="patch_5">
    <path d="M 770.04 208.92 
L 770.04 45.72 
" style="fill: none; stroke: #000000; stroke-width: 0.8; stroke-linejoin: miter; stroke-linecap: square"/>
   </g>
   <g id="patch_6">
    <path d="M 453.24 208.92 
L 770.04 208.92 
" style="fill: none; stroke: #000000; stroke-width: 0.8; stroke-linejoin: miter; stroke-linecap: square"/>
   </g>
   <g id="patch_7">
    <path d="M 453.24 45.72 
L 770.04 45.72 
" style="fill: none; stroke: #000000; stroke-width: 0.8; stroke-linejoin: miter; stroke-linecap: square"/>
   </g>
   <g id="text_15">
    <!-- Input and Output Signals (First Half) -->
    <g transform="translate(503.605312 39.72) scale(0.12 -0.12)">
     <defs>
      <path id="DejaVuSans-49" d="M 628 4666 
L 1259 4666 
L 1259 0 
L 628 0 
L 628 4666 
z
" transform="scale(0.015625)"/>
      <path id="DejaVuSans-6e" d="M 3513 2113 
L 3513 0 
L 2938 0 
L 2938 2094 
Q 2938 2591 2744 2837 
Q 2550 3084 2163 3084 
Q 1697 3084 1428 2787 
Q 1159 2491 1159 1978 
L 1159 0 
L 581 0 
L 581 3500 
L 1159 3500 
L 1159 2956 
Q 1366 3272 1645 3428 
Q 1925 3584 2291 3584 
Q 2894 3584 3203 3211 
Q 3513 2838 3513 2113 
z
" transform="scale(0.015625)"/>
      <path id="DejaVuSans-70" d="M 1159 525 
L 1159 -1331 
L 581 -1331 
L 581 3500 
L 1159 3500 
L 1159 2969 
Q 1341 3281 1617 3432 
Q 1894 3584 2278 3584 
Q 2916 3584 3314 3078 
Q 3713 2572 3713 1747 
Q 3713 922 3314 415 
Q 2916 -91 2278 -91 
Q 1894 -91 1617 61 
Q 1341 213 1159 525 
z
M 3116 1747 
Q 3116 2381 2855 2742 
Q 2594 3103 2138 3103 
Q 1681 3103 1420 2742 
Q 1159 2381 1159 1747 
Q 1159 1113 1420 752 
Q 1681 391 2138 391 
Q 2594 391 2855 752 
Q 3116 1113 3116 1747 
z
" transform="scale(0.015625)"/>
      <path id="DejaVuSans-64" d="M 2906 2969 
L 2906 4863 
L 3481 4863 
L 3481 0 
L 2906 0 
L 2906 525 
Q 2725 213 2448 61 
Q 2172 -91 1784 -91 
Q 1150 -91 751 415 
Q 353 922 353 1747 
Q 353 2572 751 3078 
Q 1150 3584 1784 3584 
Q 2172 3584 2448 3432 
Q 2725 3281 2906 2969 
z
M 947 1747 
Q 947 1113 1208 752 
Q 1469 391 1925 391 
Q 2381 391 2643 752 
Q 2906 1113 2906 1747 
Q 2906 2381 2643 2742 
Q 2381 3103 1925 3103 
Q 1469 3103 1208 2742 
Q 947 2381 947 1747 
z
" transform="scale(0.015625)"/>
      <path id="DejaVuSans-4f" d="M 2522 4238 
Q 1834 4238 1429 3725 
Q 1025 3213 1025 2328 
Q 1025 1447 1429 934 
Q 1834 422 2522 422 
Q 3209 422 3611 934 
Q 4013 1447 4013 2328 
Q 4013 3213 3611 3725 
Q 3209 4238 2522 4238 
z
M 2522 4750 
Q 3503 4750 4090 4092 
Q 4678 3434 4678 2328 
Q 4678 1225 4090 567 
Q 3503 -91 2522 -91 
Q 1538 -91 948 565 
Q 359 1222 359 2328 
Q 359 3434 948 4092 
Q 1538 4750 2522 4750 
z
" transform="scale(0.015625)"/>
      <path id="DejaVuSans-53" d="M 3425 4513 
L 3425 3897 
Q 3066 4069 2747 4153 
Q 2428 4238 2131 4238 
Q 1616 4238 1336 4038 
Q 1056 3838 1056 3469 
Q 1056 3159 1242 3001 
Q 1428 2844 1947 2747 
L 2328 2669 
Q 3034 2534 3370 2195 
Q 3706 1856 3706 1288 
Q 3706 609 3251 259 
Q 2797 -91 1919 -91 
Q 1588 -91 1214 -16 
Q 841 59 441 206 
L 441 856 
Q 825 641 1194 531 
Q 1563 422 1919 422 
Q 2459 422 2753 634 
Q 3047 847 3047 1241 
Q 3047 1584 2836 1778 
Q 2625 1972 2144 2069 
L 1759 2144 
Q 1053 2284 737 2584 
Q 422 2884 422 3419 
Q 422 4038 858 4394 
Q 1294 4750 2059 4750 
Q 2388 4750 2728 4690 
Q 3069 4631 3425 4513 
z
" transform="scale(0.015625)"/>
      <path id="DejaVuSans-67" d="M 2906 1791 
Q 2906 2416 2648 2759 
Q 2391 3103 1925 3103 
Q 1463 3103 1205 2759 
Q 947 2416 947 1791 
Q 947 1169 1205 825 
Q 1463 481 1925 481 
Q 2391 481 2648 825 
Q 2906 1169 2906 1791 
z
M 3481 434 
Q 3481 -459 3084 -895 
Q 2688 -1331 1869 -1331 
Q 1566 -1331 1297 -1286 
Q 1028 -1241 775 -1147 
L 775 -588 
Q 1028 -725 1275 -790 
Q 1522 -856 1778 -856 
Q 2344 -856 2625 -561 
Q 2906 -266 2906 331 
L 2906 616 
Q 2728 306 2450 153 
Q 2172 0 1784 0 
Q 1141 0 747 490 
Q 353 981 353 1791 
Q 353 2603 747 3093 
Q 1141 3584 1784 3584 
Q 2172 3584 2450 3431 
Q 2728 3278 2906 2969 
L 2906 3500 
L 3481 3500 
L 3481 434 
z
" transform="scale(0.015625)"/>
      <path id="DejaVuSans-46" d="M 628 4666 
L 3309 4666 
L 3309 4134 
L 1259 4134 
L 1259 2759 
L 3109 2759 
L 3109 2228 
L 1259 2228 
L 1259 0 
L 628 0 
L 628 4666 
z
" transform="scale(0.015625)"/>
      <path id="DejaVuSans-72" d="M 2631 2963 
Q 2534 3019 2420 3045 
Q 2306 3072 2169 3072 
Q 1681 3072 1420 2755 
Q 1159 2438 1159 1844 
L 1159 0 
L 581 0 
L 581 3500 
L 1159 3500 
L 1159 2956 
Q 1341 3275 1631 3429 
Q 1922 3584 2338 3584 
Q 2397 3584 2469 3576 
Q 2541 3569 2628 3553 
L 2631 2963 
z
" transform="scale(0.015625)"/>
      <path id="DejaVuSans-48" d="M 628 4666 
L 1259 4666 
L 1259 2753 
L 3553 2753 
L 3553 4666 
L 4184 4666 
L 4184 0 
L 3553 0 
L 3553 2222 
L 1259 2222 
L 1259 0 
L 628 0 
L 628 4666 
z
" transform="scale(0.015625)"/>
      <path id="DejaVuSans-66" d="M 2375 4863 
L 2375 4384 
L 1825 4384 
Q 1516 4384 1395 4259 
Q 1275 4134 1275 3809 
L 1275 3500 
L 2222 3500 
L 2222 3053 
L 1275 3053 
L 1275 0 
L 697 0 
L 697 3053 
L 147 3053 
L 147 3500 
L 697 3500 
L 697 3744 
Q 697 4328 969 4595 
Q 1241 4863 1831 4863 
L 2375 4863 
z
" transform="scale(0.015625)"/>
     </defs>
     <use xlink:href="#DejaVuSans-49"/>
     <use xlink:href="#DejaVuSans-6e" x="29.492188"/>
     <use xlink:href="#DejaVuSans-70" x="92.871094"/>
     <use xlink:href="#DejaVuSans-75" x="156.347656"/>
     <use xlink:href="#DejaVuSans-74" x="219.726562"/>
     <use xlink:href="#DejaVuSans-20" x="258.935547"/>
     <use xlink:href="#DejaVuSans-61" x="290.722656"/>
     <use xlink:href="#DejaVuSans-6e" x="352.001953"/>
     <use xlink:href="#DejaVuSans-64" x="415.380859"/>
     <use xlink:href="#DejaVuSans-20" x="478.857422"/>
     <use xlink:href="#DejaVuSans-4f" x="510.644531"/>
     <use xlink:href="#DejaVuSans-75" x="589.355469"/>
     <use xlink:href="#DejaVuSans-74" x="652.734375"/>
     <use xlink:href="#DejaVuSans-70" x="691.943359"/>
     <use xlink:href="#DejaVuSans-75" x="755.419922"/>
     <use xlink:href="#DejaVuSans-74" x="818.798828"/>
     <use xlink:href="#DejaVuSans-20" x="858.007812"/>
     <use xlink:href="#DejaVuSans-53" x="889.794922"/>
     <use xlink:href="#DejaVuSans-69" x="953.271484"/>
     <use xlink:href="#DejaVuSans-67" x="981.054688"/>
     <use xlink:href="#DejaVuSans-6e" x="1044.53125"/>
     <use xlink:href="#DejaVuSans-61" x="1107.910156"/>
     <use xlink:href="#DejaVuSans-6c" x="1169.189453"/>
     <use xlink:href="#DejaVuSans-73" x="1196.972656"/>
     <use xlink:href="#DejaVuSans-20" x="1249.072266"/>
     <use xlink:href="#DejaVuSans-28" x="1280.859375"/>
     <use xlink:href="#DejaVuSans-46" x="1319.873047"/>
     <use xlink:href="#DejaVuSans-69" x="1370.142578"/>
     <use xlink:href="#DejaVuSans-72" x="1397.925781"/>
     <use xlink:href="#DejaVuSans-73" x="1439.039062"/>
     <use xlink:href="#DejaVuSans-74" x="1491.138672"/>
     <use xlink:href="#DejaVuSans-20" x="1530.347656"/>
     <use xlink:href="#DejaVuSans-48" x="1562.134766"/>
     <use xlink:href="#DejaVuSans-61" x="1637.330078"/>
     <use xlink:href="#DejaVuSans-6c" x="1698.609375"/>
     <use xlink:href="#DejaVuSans-66" x="1726.392578"/>
     <use xlink:href="#DejaVuSans-29" x="1761.597656"/>
    </g>
   </g>
   <g id="legend_1">
    <g id="patch_8">
     <path d="M 460.24 68.398125 
L 610.999375 68.398125 
Q 612.999375 68.398125 612.999375 66.398125 
L 612.999375 52.72 
Q 612.999375 50.72 610.999375 50.72 
L 460.24 50.72 
Q 458.24 50.72 458.24 52.72 
L 458.24 66.398125 
Q 458.24 68.398125 460.24 68.398125 
z
" style="fill: #ffffff; opacity: 0.8; stroke: #cccccc; stroke-linejoin: miter"/>
    </g>
    <g id="line2d_24">
     <path d="M 462.24 58.818437 
L 472.24 58.818437 
L 472.24 58.818437 
L 482.24 58.818437 
L 482.24 58.818437 
" style="fill: none; stroke: #008000; stroke-width: 2; stroke-linecap: square"/>
    </g>
    <g id="text_16">
     <!-- Filtered Noise Signal (y) -->
     <g transform="translate(490.24 62.318437) scale(0.1 -0.1)">
      <defs>
       <path id="DejaVuSans-4e" d="M 628 4666 
L 1478 4666 
L 3547 763 
L 3547 4666 
L 4159 4666 
L 4159 0 
L 3309 0 
L 1241 3903 
L 1241 0 
L 628 0 
L 628 4666 
z
" transform="scale(0.015625)"/>
       <path id="DejaVuSans-6f" d="M 1959 3097 
Q 1497 3097 1228 2736 
Q 959 2375 959 1747 
Q 959 1119 1226 758 
Q 1494 397 1959 397 
Q 2419 397 2687 759 
Q 2956 1122 2956 1747 
Q 2956 2369 2687 2733 
Q 2419 3097 1959 3097 
z
M 1959 3584 
Q 2709 3584 3137 3096 
Q 3566 2609 3566 1747 
Q 3566 888 3137 398 
Q 2709 -91 1959 -91 
Q 1206 -91 779 398 
Q 353 888 353 1747 
Q 353 2609 779 3096 
Q 1206 3584 1959 3584 
z
" transform="scale(0.015625)"/>
       <path id="DejaVuSans-79" d="M 2059 -325 
Q 1816 -950 1584 -1140 
Q 1353 -1331 966 -1331 
L 506 -1331 
L 506 -850 
L 844 -850 
Q 1081 -850 1212 -737 
Q 1344 -625 1503 -206 
L 1606 56 
L 191 3500 
L 800 3500 
L 1894 763 
L 2988 3500 
L 3597 3500 
L 2059 -325 
z
" transform="scale(0.015625)"/>
      </defs>
      <use xlink:href="#DejaVuSans-46"/>
      <use xlink:href="#DejaVuSans-69" x="50.269531"/>
      <use xlink:href="#DejaVuSans-6c" x="78.052734"/>
      <use xlink:href="#DejaVuSans-74" x="105.835938"/>
      <use xlink:href="#DejaVuSans-65" x="145.044922"/>
      <use xlink:href="#DejaVuSans-72" x="206.568359"/>
      <use xlink:href="#DejaVuSans-65" x="245.431641"/>
      <use xlink:href="#DejaVuSans-64" x="306.955078"/>
      <use xlink:href="#DejaVuSans-20" x="370.431641"/>
      <use xlink:href="#DejaVuSans-4e" x="402.21875"/>
      <use xlink:href="#DejaVuSans-6f" x="477.023438"/>
      <use xlink:href="#DejaVuSans-69" x="538.205078"/>
      <use xlink:href="#DejaVuSans-73" x="565.988281"/>
      <use xlink:href="#DejaVuSans-65" x="618.087891"/>
      <use xlink:href="#DejaVuSans-20" x="679.611328"/>
      <use xlink:href="#DejaVuSans-53" x="711.398438"/>
      <use xlink:href="#DejaVuSans-69" x="774.875"/>
      <use xlink:href="#DejaVuSans-67" x="802.658203"/>
      <use xlink:href="#DejaVuSans-6e" x="866.134766"/>
      <use xlink:href="#DejaVuSans-61" x="929.513672"/>
      <use xlink:href="#DejaVuSans-6c" x="990.792969"/>
      <use xlink:href="#DejaVuSans-20" x="1018.576172"/>
      <use xlink:href="#DejaVuSans-28" x="1050.363281"/>
      <use xlink:href="#DejaVuSans-79" x="1089.376953"/>
      <use xlink:href="#DejaVuSans-29" x="1148.556641"/>
     </g>
    </g>
   </g>
  </g>
  <g id="axes_3">
   <g id="patch_9">
    <path d="M 57.24 412.92 
L 770.04 412.92 
L 770.04 249.72 
L 57.24 249.72 
z
" style="fill: #ffffff"/>
   </g>
   <g id="PolyCollection_1">
    <defs>
     <path id="m373ff660ac" d="M 89.64 -61.778182 
L 89.64 -61.778182 
L 102.86449 -61.778182 
L 102.86449 -61.778182 
L 116.08898 -61.778182 
L 116.08898 -61.778182 
L 129.313469 -61.778182 
L 129.313469 -61.778182 
L 142.537959 -61.778182 
L 142.537959 -61.778182 
L 155.762449 -61.778182 
L 155.762449 -61.778182 
L 168.986939 -61.778182 
L 168.986939 -61.778182 
L 182.211429 -61.778182 
L 182.211429 -61.778182 
L 195.435918 -61.778182 
L 195.435918 -61.778182 
L 208.660408 -61.778182 
L 208.660408 -61.778182 
L 221.884898 -61.778182 
L 221.884898 -61.778182 
L 235.109388 -61.778182 
L 235.109388 -61.778182 
L 248.333878 -61.778182 
L 248.333878 -61.778182 
L 261.558367 -61.778182 
L 261.558367 -61.778182 
L 274.782857 -61.778182 
L 274.782857 -61.778182 
L 288.007347 -61.778182 
L 288.007347 -61.778182 
L 301.231837 -61.778182 
L 301.231837 -61.778182 
L 314.456327 -61.778182 
L 314.456327 -61.778182 
L 327.680816 -61.778182 
L 327.680816 -61.778182 
L 340.905306 -61.778182 
L 340.905306 -61.778182 
L 354.129796 -61.778182 
L 354.129796 -61.778182 
L 367.354286 -61.778182 
L 367.354286 -61.778182 
L 380.578776 -61.778182 
L 380.578776 -61.778182 
L 393.803265 -61.778182 
L 393.803265 -61.778182 
L 407.027755 -61.778182 
L 407.027755 -61.778182 
L 420.252245 -61.778182 
L 420.252245 -61.778182 
L 433.476735 -61.778182 
L 433.476735 -61.778182 
L 446.701224 -61.778182 
L 446.701224 -61.778182 
L 459.925714 -61.778182 
L 459.925714 -61.778182 
L 473.150204 -61.778182 
L 473.150204 -61.778182 
L 486.374694 -61.778182 
L 486.374694 -61.778182 
L 499.599184 -61.778182 
L 499.599184 -61.778182 
L 512.823673 -61.778182 
L 512.823673 -61.778182 
L 526.048163 -61.778182 
L 526.048163 -61.778182 
L 539.272653 -61.778182 
L 539.272653 -61.778182 
L 552.497143 -61.778182 
L 552.497143 -61.778182 
L 565.721633 -61.778182 
L 565.721633 -61.778182 
L 578.946122 -61.778182 
L 578.946122 -61.778182 
L 592.170612 -61.778182 
L 592.170612 -61.778182 
L 605.395102 -61.778182 
L 605.395102 -61.778182 
L 618.619592 -61.778182 
L 618.619592 -61.778182 
L 631.844082 -61.778182 
L 631.844082 -61.778182 
L 645.068571 -61.778182 
L 645.068571 -61.778182 
L 658.293061 -61.778182 
L 658.293061 -61.778182 
L 671.517551 -61.778182 
L 671.517551 -61.778182 
L 684.742041 -61.778182 
L 684.742041 -61.778182 
L 697.966531 -61.778182 
L 697.966531 -61.778182 
L 711.19102 -61.778182 
L 711.19102 -61.778182 
L 724.41551 -61.778182 
L 724.41551 -61.778182 
L 737.64 -61.778182 
L 737.64 -61.778182 
L 737.64 -121.123636 
L 737.64 -121.123636 
L 737.64 -61.778182 
L 724.41551 -61.778182 
L 724.41551 -121.123636 
L 711.19102 -121.123636 
L 711.19102 -61.778182 
L 697.966531 -61.778182 
L 697.966531 -121.123636 
L 684.742041 -121.123636 
L 684.742041 -61.778182 
L 671.517551 -61.778182 
L 671.517551 -121.123636 
L 658.293061 -121.123636 
L 658.293061 -61.778182 
L 645.068571 -61.778182 
L 645.068571 -121.123636 
L 631.844082 -121.123636 
L 631.844082 -61.778182 
L 618.619592 -61.778182 
L 618.619592 -121.123636 
L 605.395102 -121.123636 
L 605.395102 -61.778182 
L 592.170612 -61.778182 
L 592.170612 -121.123636 
L 578.946122 -121.123636 
L 578.946122 -61.778182 
L 565.721633 -61.778182 
L 565.721633 -121.123636 
L 552.497143 -121.123636 
L 552.497143 -61.778182 
L 539.272653 -61.778182 
L 539.272653 -121.123636 
L 526.048163 -121.123636 
L 526.048163 -61.778182 
L 512.823673 -61.778182 
L 512.823673 -121.123636 
L 499.599184 -121.123636 
L 499.599184 -61.778182 
L 486.374694 -61.778182 
L 486.374694 -121.123636 
L 473.150204 -121.123636 
L 473.150204 -61.778182 
L 459.925714 -61.778182 
L 459.925714 -121.123636 
L 446.701224 -121.123636 
L 446.701224 -61.778182 
L 433.476735 -61.778182 
L 433.476735 -121.123636 
L 420.252245 -121.123636 
L 420.252245 -61.778182 
L 407.027755 -61.778182 
L 407.027755 -121.123636 
L 393.803265 -121.123636 
L 393.803265 -61.778182 
L 380.578776 -61.778182 
L 380.578776 -121.123636 
L 367.354286 -121.123636 
L 367.354286 -61.778182 
L 354.129796 -61.778182 
L 354.129796 -121.123636 
L 340.905306 -121.123636 
L 340.905306 -61.778182 
L 327.680816 -61.778182 
L 327.680816 -121.123636 
L 314.456327 -121.123636 
L 314.456327 -61.778182 
L 301.231837 -61.778182 
L 301.231837 -121.123636 
L 288.007347 -121.123636 
L 288.007347 -61.778182 
L 274.782857 -61.778182 
L 274.782857 -121.123636 
L 261.558367 -121.123636 
L 261.558367 -61.778182 
L 248.333878 -61.778182 
L 248.333878 -121.123636 
L 235.109388 -121.123636 
L 235.109388 -61.778182 
L 221.884898 -61.778182 
L 221.884898 -121.123636 
L 208.660408 -121.123636 
L 208.660408 -61.778182 
L 195.435918 -61.778182 
L 195.435918 -121.123636 
L 182.211429 -121.123636 
L 182.211429 -61.778182 
L 168.986939 -61.778182 
L 168.986939 -121.123636 
L 155.762449 -121.123636 
L 155.762449 -61.778182 
L 142.537959 -61.778182 
L 142.537959 -121.123636 
L 129.313469 -121.123636 
L 129.313469 -61.778182 
L 116.08898 -61.778182 
L 116.08898 -121.123636 
L 102.86449 -121.123636 
L 102.86449 -61.778182 
L 89.64 -61.778182 
z
" style="stroke: #008000; stroke-opacity: 0.3"/>
    </defs>
    <g clip-path="url(#pf9452522a1)">
     <use xlink:href="#m373ff660ac" x="0" y="467.28" style="fill: #008000; fill-opacity: 0.3; stroke: #008000; stroke-opacity: 0.3"/>
    </g>
   </g>
   <g id="PolyCollection_2">
    <defs>
     <path id="m917843944b" d="M 89.64 -210.141818 
L 89.64 -150.796364 
L 142.537959 -150.796364 
L 142.537959 -150.796364 
L 142.537959 -150.796364 
L 142.537959 -150.796364 
L 142.537959 -210.141818 
L 89.64 -210.141818 
z
" style="stroke: #008000; stroke-opacity: 0.3"/>
    </defs>
    <g clip-path="url(#pf9452522a1)">
     <use xlink:href="#m917843944b" x="0" y="467.28" style="fill: #008000; fill-opacity: 0.3; stroke: #008000; stroke-opacity: 0.3"/>
    </g>
   </g>
   <g id="matplotlib.axis_3">
    <g id="xtick_7">
     <g id="line2d_25">
      <path d="M 89.64 412.92 
L 89.64 249.72 
" clip-path="url(#pf9452522a1)" style="fill: none; stroke: #b0b0b0; stroke-width: 0.8; stroke-linecap: square"/>
     </g>
     <g id="line2d_26">
      <g>
       <use xlink:href="#me5d72ca26b" x="89.64" y="412.92" style="stroke: #000000; stroke-width: 0.8"/>
      </g>
     </g>
     <g id="text_17">
      <!-- 0.00 -->
      <g transform="translate(78.507188 427.518438) scale(0.1 -0.1)">
       <use xlink:href="#DejaVuSans-30"/>
       <use xlink:href="#DejaVuSans-2e" x="63.623047"/>
       <use xlink:href="#DejaVuSans-30" x="95.410156"/>
       <use xlink:href="#DejaVuSans-30" x="159.033203"/>
      </g>
     </g>
    </g>
    <g id="xtick_8">
     <g id="line2d_27">
      <path d="M 221.884898 412.92 
L 221.884898 249.72 
" clip-path="url(#pf9452522a1)" style="fill: none; stroke: #b0b0b0; stroke-width: 0.8; stroke-linecap: square"/>
     </g>
     <g id="line2d_28">
      <g>
       <use xlink:href="#me5d72ca26b" x="221.884898" y="412.92" style="stroke: #000000; stroke-width: 0.8"/>
      </g>
     </g>
     <g id="text_18">
      <!-- 0.05 -->
      <g transform="translate(210.752085 427.518438) scale(0.1 -0.1)">
       <use xlink:href="#DejaVuSans-30"/>
       <use xlink:href="#DejaVuSans-2e" x="63.623047"/>
       <use xlink:href="#DejaVuSans-30" x="95.410156"/>
       <use xlink:href="#DejaVuSans-35" x="159.033203"/>
      </g>
     </g>
    </g>
    <g id="xtick_9">
     <g id="line2d_29">
      <path d="M 354.129796 412.92 
L 354.129796 249.72 
" clip-path="url(#pf9452522a1)" style="fill: none; stroke: #b0b0b0; stroke-width: 0.8; stroke-linecap: square"/>
     </g>
     <g id="line2d_30">
      <g>
       <use xlink:href="#me5d72ca26b" x="354.129796" y="412.92" style="stroke: #000000; stroke-width: 0.8"/>
      </g>
     </g>
     <g id="text_19">
      <!-- 0.10 -->
      <g transform="translate(342.996983 427.518438) scale(0.1 -0.1)">
       <use xlink:href="#DejaVuSans-30"/>
       <use xlink:href="#DejaVuSans-2e" x="63.623047"/>
       <use xlink:href="#DejaVuSans-31" x="95.410156"/>
       <use xlink:href="#DejaVuSans-30" x="159.033203"/>
      </g>
     </g>
    </g>
    <g id="xtick_10">
     <g id="line2d_31">
      <path d="M 486.374694 412.92 
L 486.374694 249.72 
" clip-path="url(#pf9452522a1)" style="fill: none; stroke: #b0b0b0; stroke-width: 0.8; stroke-linecap: square"/>
     </g>
     <g id="line2d_32">
      <g>
       <use xlink:href="#me5d72ca26b" x="486.374694" y="412.92" style="stroke: #000000; stroke-width: 0.8"/>
      </g>
     </g>
     <g id="text_20">
      <!-- 0.15 -->
      <g transform="translate(475.241881 427.518438) scale(0.1 -0.1)">
       <use xlink:href="#DejaVuSans-30"/>
       <use xlink:href="#DejaVuSans-2e" x="63.623047"/>
       <use xlink:href="#DejaVuSans-31" x="95.410156"/>
       <use xlink:href="#DejaVuSans-35" x="159.033203"/>
      </g>
     </g>
    </g>
    <g id="xtick_11">
     <g id="line2d_33">
      <path d="M 618.619592 412.92 
L 618.619592 249.72 
" clip-path="url(#pf9452522a1)" style="fill: none; stroke: #b0b0b0; stroke-width: 0.8; stroke-linecap: square"/>
     </g>
     <g id="line2d_34">
      <g>
       <use xlink:href="#me5d72ca26b" x="618.619592" y="412.92" style="stroke: #000000; stroke-width: 0.8"/>
      </g>
     </g>
     <g id="text_21">
      <!-- 0.20 -->
      <g transform="translate(607.486779 427.518438) scale(0.1 -0.1)">
       <use xlink:href="#DejaVuSans-30"/>
       <use xlink:href="#DejaVuSans-2e" x="63.623047"/>
       <use xlink:href="#DejaVuSans-32" x="95.410156"/>
       <use xlink:href="#DejaVuSans-30" x="159.033203"/>
      </g>
     </g>
    </g>
    <g id="xtick_12">
     <g id="line2d_35">
      <path d="M 750.86449 412.92 
L 750.86449 249.72 
" clip-path="url(#pf9452522a1)" style="fill: none; stroke: #b0b0b0; stroke-width: 0.8; stroke-linecap: square"/>
     </g>
     <g id="line2d_36">
      <g>
       <use xlink:href="#me5d72ca26b" x="750.86449" y="412.92" style="stroke: #000000; stroke-width: 0.8"/>
      </g>
     </g>
     <g id="text_22">
      <!-- 0.25 -->
      <g transform="translate(739.731677 427.518438) scale(0.1 -0.1)">
       <use xlink:href="#DejaVuSans-30"/>
       <use xlink:href="#DejaVuSans-2e" x="63.623047"/>
       <use xlink:href="#DejaVuSans-32" x="95.410156"/>
       <use xlink:href="#DejaVuSans-35" x="159.033203"/>
      </g>
     </g>
    </g>
    <g id="text_23">
     <!-- Time (ms) -->
     <g transform="translate(388.440781 441.196562) scale(0.1 -0.1)">
      <use xlink:href="#DejaVuSans-54"/>
      <use xlink:href="#DejaVuSans-69" x="57.958984"/>
      <use xlink:href="#DejaVuSans-6d" x="85.742188"/>
      <use xlink:href="#DejaVuSans-65" x="183.154297"/>
      <use xlink:href="#DejaVuSans-20" x="244.677734"/>
      <use xlink:href="#DejaVuSans-28" x="276.464844"/>
      <use xlink:href="#DejaVuSans-6d" x="315.478516"/>
      <use xlink:href="#DejaVuSans-73" x="412.890625"/>
      <use xlink:href="#DejaVuSans-29" x="464.990234"/>
     </g>
    </g>
   </g>
   <g id="matplotlib.axis_4"/>
   <g id="line2d_37">
    <path d="M 89.64 405.501818 
L 102.86449 405.501818 
L 102.86449 346.156364 
L 116.08898 346.156364 
L 116.08898 405.501818 
L 129.313469 405.501818 
L 129.313469 346.156364 
L 142.537959 346.156364 
L 142.537959 405.501818 
L 155.762449 405.501818 
L 155.762449 346.156364 
L 168.986939 346.156364 
L 168.986939 405.501818 
L 182.211429 405.501818 
L 182.211429 346.156364 
L 195.435918 346.156364 
L 195.435918 405.501818 
L 208.660408 405.501818 
L 208.660408 346.156364 
L 221.884898 346.156364 
L 221.884898 405.501818 
L 235.109388 405.501818 
L 235.109388 346.156364 
L 248.333878 346.156364 
L 248.333878 405.501818 
L 261.558367 405.501818 
L 261.558367 346.156364 
L 274.782857 346.156364 
L 274.782857 405.501818 
L 288.007347 405.501818 
L 288.007347 346.156364 
L 301.231837 346.156364 
L 301.231837 405.501818 
L 314.456327 405.501818 
L 314.456327 346.156364 
L 327.680816 346.156364 
L 327.680816 405.501818 
L 340.905306 405.501818 
L 340.905306 346.156364 
L 354.129796 346.156364 
L 354.129796 405.501818 
L 367.354286 405.501818 
L 367.354286 346.156364 
L 380.578776 346.156364 
L 380.578776 405.501818 
L 393.803265 405.501818 
L 393.803265 346.156364 
L 407.027755 346.156364 
L 407.027755 405.501818 
L 420.252245 405.501818 
L 420.252245 346.156364 
L 433.476735 346.156364 
L 433.476735 405.501818 
L 446.701224 405.501818 
L 446.701224 346.156364 
L 459.925714 346.156364 
L 459.925714 405.501818 
L 473.150204 405.501818 
L 473.150204 346.156364 
L 486.374694 346.156364 
L 486.374694 405.501818 
L 499.599184 405.501818 
L 499.599184 346.156364 
L 512.823673 346.156364 
L 512.823673 405.501818 
L 526.048163 405.501818 
L 526.048163 346.156364 
L 539.272653 346.156364 
L 539.272653 405.501818 
L 552.497143 405.501818 
L 552.497143 346.156364 
L 565.721633 346.156364 
L 565.721633 405.501818 
L 578.946122 405.501818 
L 578.946122 346.156364 
L 592.170612 346.156364 
L 592.170612 405.501818 
L 605.395102 405.501818 
L 605.395102 346.156364 
L 618.619592 346.156364 
L 618.619592 405.501818 
L 631.844082 405.501818 
L 631.844082 346.156364 
L 645.068571 346.156364 
L 645.068571 405.501818 
L 658.293061 405.501818 
L 658.293061 346.156364 
L 671.517551 346.156364 
L 671.517551 405.501818 
L 684.742041 405.501818 
L 684.742041 346.156364 
L 697.966531 346.156364 
L 697.966531 405.501818 
L 711.19102 405.501818 
L 711.19102 346.156364 
L 724.41551 346.156364 
L 724.41551 405.501818 
L 737.64 405.501818 
L 737.64 346.156364 
" clip-path="url(#pf9452522a1)" style="fill: none; stroke: #008000; stroke-width: 2; stroke-linecap: square"/>
   </g>
   <g id="line2d_38">
    <path d="M 89.64 257.138182 
L 142.537959 257.138182 
L 142.537959 316.483636 
" clip-path="url(#pf9452522a1)" style="fill: none; stroke: #008000; stroke-width: 2; stroke-linecap: square"/>
   </g>
   <g id="line2d_39">
    <path d="M 89.64 412.92 
L 89.64 249.72 
" clip-path="url(#pf9452522a1)" style="fill: none; stroke-dasharray: 5.55,2.4; stroke-dashoffset: 0; stroke: #808080; stroke-opacity: 0.5; stroke-width: 1.5"/>
   </g>
   <g id="line2d_40">
    <path d="M 116.08898 412.92 
L 116.08898 249.72 
" clip-path="url(#pf9452522a1)" style="fill: none; stroke-dasharray: 5.55,2.4; stroke-dashoffset: 0; stroke: #808080; stroke-opacity: 0.5; stroke-width: 1.5"/>
   </g>
   <g id="line2d_41">
    <path d="M 142.537959 412.92 
L 142.537959 249.72 
" clip-path="url(#pf9452522a1)" style="fill: none; stroke-dasharray: 5.55,2.4; stroke-dashoffset: 0; stroke: #808080; stroke-opacity: 0.5; stroke-width: 1.5"/>
   </g>
   <g id="line2d_42">
    <path d="M 168.986939 412.92 
L 168.986939 249.72 
" clip-path="url(#pf9452522a1)" style="fill: none; stroke-dasharray: 5.55,2.4; stroke-dashoffset: 0; stroke: #808080; stroke-opacity: 0.5; stroke-width: 1.5"/>
   </g>
   <g id="line2d_43">
    <path d="M 195.435918 412.92 
L 195.435918 249.72 
" clip-path="url(#pf9452522a1)" style="fill: none; stroke-dasharray: 5.55,2.4; stroke-dashoffset: 0; stroke: #808080; stroke-opacity: 0.5; stroke-width: 1.5"/>
   </g>
   <g id="line2d_44">
    <path d="M 221.884898 412.92 
L 221.884898 249.72 
" clip-path="url(#pf9452522a1)" style="fill: none; stroke-dasharray: 5.55,2.4; stroke-dashoffset: 0; stroke: #808080; stroke-opacity: 0.5; stroke-width: 1.5"/>
   </g>
   <g id="line2d_45">
    <path d="M 248.333878 412.92 
L 248.333878 249.72 
" clip-path="url(#pf9452522a1)" style="fill: none; stroke-dasharray: 5.55,2.4; stroke-dashoffset: 0; stroke: #808080; stroke-opacity: 0.5; stroke-width: 1.5"/>
   </g>
   <g id="line2d_46">
    <path d="M 274.782857 412.92 
L 274.782857 249.72 
" clip-path="url(#pf9452522a1)" style="fill: none; stroke-dasharray: 5.55,2.4; stroke-dashoffset: 0; stroke: #808080; stroke-opacity: 0.5; stroke-width: 1.5"/>
   </g>
   <g id="line2d_47">
    <path d="M 301.231837 412.92 
L 301.231837 249.72 
" clip-path="url(#pf9452522a1)" style="fill: none; stroke-dasharray: 5.55,2.4; stroke-dashoffset: 0; stroke: #808080; stroke-opacity: 0.5; stroke-width: 1.5"/>
   </g>
   <g id="line2d_48">
    <path d="M 327.680816 412.92 
L 327.680816 249.72 
" clip-path="url(#pf9452522a1)" style="fill: none; stroke-dasharray: 5.55,2.4; stroke-dashoffset: 0; stroke: #808080; stroke-opacity: 0.5; stroke-width: 1.5"/>
   </g>
   <g id="line2d_49">
    <path d="M 354.129796 412.92 
L 354.129796 249.72 
" clip-path="url(#pf9452522a1)" style="fill: none; stroke-dasharray: 5.55,2.4; stroke-dashoffset: 0; stroke: #808080; stroke-opacity: 0.5; stroke-width: 1.5"/>
   </g>
   <g id="line2d_50">
    <path d="M 380.578776 412.92 
L 380.578776 249.72 
" clip-path="url(#pf9452522a1)" style="fill: none; stroke-dasharray: 5.55,2.4; stroke-dashoffset: 0; stroke: #808080; stroke-opacity: 0.5; stroke-width: 1.5"/>
   </g>
   <g id="line2d_51">
    <path d="M 407.027755 412.92 
L 407.027755 249.72 
" clip-path="url(#pf9452522a1)" style="fill: none; stroke-dasharray: 5.55,2.4; stroke-dashoffset: 0; stroke: #808080; stroke-opacity: 0.5; stroke-width: 1.5"/>
   </g>
   <g id="line2d_52">
    <path d="M 433.476735 412.92 
L 433.476735 249.72 
" clip-path="url(#pf9452522a1)" style="fill: none; stroke-dasharray: 5.55,2.4; stroke-dashoffset: 0; stroke: #808080; stroke-opacity: 0.5; stroke-width: 1.5"/>
   </g>
   <g id="line2d_53">
    <path d="M 459.925714 412.92 
L 459.925714 249.72 
" clip-path="url(#pf9452522a1)" style="fill: none; stroke-dasharray: 5.55,2.4; stroke-dashoffset: 0; stroke: #808080; stroke-opacity: 0.5; stroke-width: 1.5"/>
   </g>
   <g id="line2d_54">
    <path d="M 486.374694 412.92 
L 486.374694 249.72 
" clip-path="url(#pf9452522a1)" style="fill: none; stroke-dasharray: 5.55,2.4; stroke-dashoffset: 0; stroke: #808080; stroke-opacity: 0.5; stroke-width: 1.5"/>
   </g>
   <g id="line2d_55">
    <path d="M 512.823673 412.92 
L 512.823673 249.72 
" clip-path="url(#pf9452522a1)" style="fill: none; stroke-dasharray: 5.55,2.4; stroke-dashoffset: 0; stroke: #808080; stroke-opacity: 0.5; stroke-width: 1.5"/>
   </g>
   <g id="line2d_56">
    <path d="M 539.272653 412.92 
L 539.272653 249.72 
" clip-path="url(#pf9452522a1)" style="fill: none; stroke-dasharray: 5.55,2.4; stroke-dashoffset: 0; stroke: #808080; stroke-opacity: 0.5; stroke-width: 1.5"/>
   </g>
   <g id="line2d_57">
    <path d="M 565.721633 412.92 
L 565.721633 249.72 
" clip-path="url(#pf9452522a1)" style="fill: none; stroke-dasharray: 5.55,2.4; stroke-dashoffset: 0; stroke: #808080; stroke-opacity: 0.5; stroke-width: 1.5"/>
   </g>
   <g id="line2d_58">
    <path d="M 592.170612 412.92 
L 592.170612 249.72 
" clip-path="url(#pf9452522a1)" style="fill: none; stroke-dasharray: 5.55,2.4; stroke-dashoffset: 0; stroke: #808080; stroke-opacity: 0.5; stroke-width: 1.5"/>
   </g>
   <g id="line2d_59">
    <path d="M 618.619592 412.92 
L 618.619592 249.72 
" clip-path="url(#pf9452522a1)" style="fill: none; stroke-dasharray: 5.55,2.4; stroke-dashoffset: 0; stroke: #808080; stroke-opacity: 0.5; stroke-width: 1.5"/>
   </g>
   <g id="line2d_60">
    <path d="M 645.068571 412.92 
L 645.068571 249.72 
" clip-path="url(#pf9452522a1)" style="fill: none; stroke-dasharray: 5.55,2.4; stroke-dashoffset: 0; stroke: #808080; stroke-opacity: 0.5; stroke-width: 1.5"/>
   </g>
   <g id="line2d_61">
    <path d="M 671.517551 412.92 
L 671.517551 249.72 
" clip-path="url(#pf9452522a1)" style="fill: none; stroke-dasharray: 5.55,2.4; stroke-dashoffset: 0; stroke: #808080; stroke-opacity: 0.5; stroke-width: 1.5"/>
   </g>
   <g id="line2d_62">
    <path d="M 697.966531 412.92 
L 697.966531 249.72 
" clip-path="url(#pf9452522a1)" style="fill: none; stroke-dasharray: 5.55,2.4; stroke-dashoffset: 0; stroke: #808080; stroke-opacity: 0.5; stroke-width: 1.5"/>
   </g>
   <g id="line2d_63">
    <path d="M 724.41551 412.92 
L 724.41551 249.72 
" clip-path="url(#pf9452522a1)" style="fill: none; stroke-dasharray: 5.55,2.4; stroke-dashoffset: 0; stroke: #808080; stroke-opacity: 0.5; stroke-width: 1.5"/>
   </g>
   <g id="patch_10">
    <path d="M 57.24 412.92 
L 57.24 249.72 
" style="fill: none; stroke: #000000; stroke-width: 0.8; stroke-linejoin: miter; stroke-linecap: square"/>
   </g>
   <g id="patch_11">
    <path d="M 770.04 412.92 
L 770.04 249.72 
" style="fill: none; stroke: #000000; stroke-width: 0.8; stroke-linejoin: miter; stroke-linecap: square"/>
   </g>
   <g id="patch_12">
    <path d="M 57.24 412.92 
L 770.04 412.92 
" style="fill: none; stroke: #000000; stroke-width: 0.8; stroke-linejoin: miter; stroke-linecap: square"/>
   </g>
   <g id="patch_13">
    <path d="M 57.24 249.72 
L 770.04 249.72 
" style="fill: none; stroke: #000000; stroke-width: 0.8; stroke-linejoin: miter; stroke-linecap: square"/>
   </g>
   <g id="text_24">
    <!-- clk -->
    <g transform="translate(64.513469 378.588466) scale(0.1 -0.1)">
     <defs>
      <path id="DejaVuSans-63" d="M 3122 3366 
L 3122 2828 
Q 2878 2963 2633 3030 
Q 2388 3097 2138 3097 
Q 1578 3097 1268 2742 
Q 959 2388 959 1747 
Q 959 1106 1268 751 
Q 1578 397 2138 397 
Q 2388 397 2633 464 
Q 2878 531 3122 666 
L 3122 134 
Q 2881 22 2623 -34 
Q 2366 -91 2075 -91 
Q 1284 -91 818 406 
Q 353 903 353 1747 
Q 353 2603 823 3093 
Q 1294 3584 2113 3584 
Q 2378 3584 2631 3529 
Q 2884 3475 3122 3366 
z
" transform="scale(0.015625)"/>
      <path id="DejaVuSans-6b" d="M 581 4863 
L 1159 4863 
L 1159 1991 
L 2875 3500 
L 3609 3500 
L 1753 1863 
L 3688 0 
L 2938 0 
L 1159 1709 
L 1159 0 
L 581 0 
L 581 4863 
z
" transform="scale(0.015625)"/>
     </defs>
     <use xlink:href="#DejaVuSans-63"/>
     <use xlink:href="#DejaVuSans-6c" x="54.980469"/>
     <use xlink:href="#DejaVuSans-6b" x="82.763672"/>
    </g>
   </g>
   <g id="text_25">
    <!-- rst -->
    <g transform="translate(64.513469 289.570284) scale(0.1 -0.1)">
     <use xlink:href="#DejaVuSans-72"/>
     <use xlink:href="#DejaVuSans-73" x="41.113281"/>
     <use xlink:href="#DejaVuSans-74" x="93.212891"/>
    </g>
   </g>
  </g>
  <g id="patch_14">
   <path d="M 18 449.28 
L 809.28 449.28 
L 809.28 18 
L 18 18 
L 18 449.28 
z
" style="fill: none; stroke: #000000; stroke-width: 1.5; stroke-linejoin: miter"/>
  </g>
 </g>
 <defs>
  <clipPath id="pe9cda0c4af">
   <rect x="57.24" y="45.72" width="316.8" height="163.2"/>
  </clipPath>
  <clipPath id="pf32c8c0f36">
   <rect x="453.24" y="45.72" width="316.8" height="163.2"/>
  </clipPath>
  <clipPath id="pf9452522a1">
   <rect x="57.24" y="249.72" width="712.8" height="163.2"/>
  </clipPath>
 </defs>
</svg>
