<?xml version="1.0" encoding="UTF-8" standalone="no"?>
<!-- Created with Inkscape (http://www.inkscape.org/) -->

<svg
   width="204mm"
   height="203mm"
   viewBox="0 0 204 203"
   version="1.1"
   id="svg1"
   xmlns:inkscape="http://www.inkscape.org/namespaces/inkscape"
   xmlns:sodipodi="http://sodipodi.sourceforge.net/DTD/sodipodi-0.dtd"
   xmlns="http://www.w3.org/2000/svg"
   xmlns:svg="http://www.w3.org/2000/svg">
  <sodipodi:namedview
     id="namedview1"
     pagecolor="#ffffff"
     bordercolor="#000000"
     borderopacity="0.25"
     inkscape:showpageshadow="2"
     inkscape:pageopacity="0.0"
     inkscape:pagecheckerboard="0"
     inkscape:deskcolor="#d1d1d1"
     inkscape:document-units="mm" />
  <defs
     id="defs1" />
  <g
     inkscape:label="Layer 1"
     inkscape:groupmode="layer"
     id="layer1">
    <rect
       style="fill:#ffffff;fill-opacity:1;stroke:none;stroke-width:1.2"
       id="rect2"
       width="69.845337"
       height="18.405191"
       x="78.521767"
       y="62.783321" />
    <rect
       style="fill:#3cae5e;fill-opacity:1;stroke-width:1.21471;stroke-opacity:0"
       id="rect1"
       width="203.78159"
       height="202.89171"
       x="0.42114347"
       y="0.37734765" />
    <rect
       style="fill:#ffffff;fill-opacity:1;stroke-width:1.36821;stroke-opacity:0"
       id="rect4"
       width="195.32776"
       height="14.460483"
       x="4.4255853"
       y="4.6042609" />
    <rect
       style="fill:#ffffff;fill-opacity:1;stroke-width:1.36821;stroke-opacity:0"
       id="rect4-0"
       width="195.32776"
       height="14.460483"
       x="4.5430923"
       y="184.79959" />
    <path
       style="fill:#ffffff;stroke-width:0.933701"
       d="m 49.302037,57.828685 c 0.74796,-3.77963 4.01954,-6.956204 7.90085,-7.671386 0.91453,-0.168515 15.68193,-0.231304 44.096973,-0.187492 40.26746,0.06209 42.78585,0.0911 43.83367,0.504979 2.79745,1.104967 5.16541,3.507999 6.10217,6.192559 0.42136,1.20755 0.44444,3.52465 0.44444,44.629515 0,41.10487 -0.0231,43.42198 -0.44444,44.62952 -0.93676,2.68456 -3.30472,5.0876 -6.10217,6.19256 -1.05042,0.41491 -3.50795,0.43911 -44.59107,0.43911 -41.223793,0 -43.545443,-0.0231 -44.753043,-0.44445 -2.68456,-0.93675 -5.08758,-3.3047 -6.19256,-6.10217 -0.41433,-1.04894 -0.44118,-3.53735 -0.47585,-44.09696 -0.0205,-23.980875 0.0596,-43.471825 0.18103,-44.085785 z m 16.88369,6.96148 c 12.89097,0.0665 13.21473,0.0799 13.88083,0.57738 1.69434,1.26536 1.69363,1.26219 1.77158,7.96931 l 0.0708,6.09681 5.60909,5.6202 5.6091,5.6202 3.954667,0.002 c 2.175086,7.6e-4 4.399376,0.12063 4.942856,0.2664 0.81297,0.21802 1.94158,1.21423 6.36561,5.61882 4.04726,4.029455 5.43715,5.567685 5.61883,6.218445 0.14903,0.53382 0.24192,9.48988 0.24277,23.40722 l 0.001,22.54258 h 3.33506 3.33507 v -22.76097 c 0,-15.93346 0.0821,-23.03491 0.27362,-23.67421 0.15049,-0.5023 1.30461,-2.330075 2.56471,-4.061705 l 2.29109,-3.14846 -0.83598,-1.24223 c -1.22008,-1.81305 -1.65466,-3.55348 -1.525,-6.10751 0.13413,-2.64231 0.95671,-4.52126 2.77482,-6.33827 5.94073,-5.93715 16.07312,-2.22586 16.85756,6.17459 0.5967,6.38991 -5.42629,11.78545 -11.675,10.45876 -0.93984,-0.19954 -1.88609,-0.44051 -2.10279,-0.53549 -0.30068,-0.13181 -0.91506,0.54685 -2.59394,2.865285 l -2.19994,3.03799 -0.0656,22.6661 -0.0656,22.6661 h 4.93973 4.93973 l 0.0667,-17.27494 c 0.0656,-17.00959 0.0745,-17.28544 0.57601,-17.95704 1.24683,-1.66969 1.34446,-1.69347 7.28987,-1.77592 l 5.41753,-0.0752 V 89.055025 66.464055 h -8.27508 -8.27506 l -3.00334,2.6557 c -4.48263,3.96376 -4.70813,4.14982 -5.6448,4.65749 -0.76608,0.41521 -1.53034,0.47749 -6.70459,0.54632 l -5.83995,0.0777 -0.52199,1.43159 c -2.43099,6.66725 -11.04979,8.53553 -16.096163,3.48916 -3.80738,-3.80737 -3.79851,-10.04879 0.0196,-13.80714 2.730277,-2.68756 7.023763,-3.59722 10.491453,-2.22284 2.51658,0.99742 4.86908,3.44217 5.68969,5.91279 l 0.40253,1.21192 5.47683,-0.002 5.47683,-0.002 3.93084,-3.48582 c 2.16192,-1.9172 4.32971,-3.66719 4.81727,-3.88885 0.75386,-0.34275 2.17413,-0.41448 9.49452,-0.47951 l 8.60805,-0.0765 -0.0851,-2.29066 c -0.0758,-2.03903 -0.16724,-2.42342 -0.83276,-3.49911 -0.4629,-0.74818 -1.20823,-1.49319 -1.95693,-1.95609 l -1.20928,-0.74766 -42.88117,-0.0727 c -29.059853,-0.0493 -43.166913,0.01 -43.767713,0.18326 -1.45617,0.42041 -2.81731,1.57953 -3.52684,3.00335 -0.60114,1.20636 -0.65097,1.54793 -0.65097,4.46311 v 3.15676 z m -6.83749,19.51088 c 6.13029,0.0708 6.40618,0.095 7.59653,0.66645 0.94751,0.45487 3.47929,2.82442 10.86984,10.17331 l 9.63463,9.580295 1.85282,-0.62765 c 5.82313,-1.97263 11.675513,1.46051 12.861933,7.54512 0.82438,4.22779 -1.85187,9.09078 -5.883836,10.6915 -2.015777,0.80027 -5.517317,0.80027 -7.533117,0 -3.97588,-1.57847 -6.65077,-6.37589 -5.88784,-10.55993 0.14604,-0.80094 0.59593,-2.12327 0.99974,-2.93852 l 0.7342,-1.48225 -9.19475,-9.207625 c -5.92252,-5.93082 -9.55219,-9.38157 -10.19915,-9.69639 -0.91056,-0.44309 -1.52793,-0.48875 -6.60837,-0.48875 h -5.60397 v 8.64646 8.646465 h 8.11586 c 8.00975,0 8.12653,0.007 8.93255,0.55584 1.8392,1.25175 1.84205,1.26365 1.92365,8.04634 l 0.0734,6.0968 5.60659,5.62021 5.60658,5.6202 h 4.39928 c 3.3443,0 4.55925,0.0849 5.06637,0.35406 0.36691,0.19474 3.05723,2.75227 5.978513,5.68343 l 5.3114,5.32938 0.0819,3.08655 0.0819,3.08656 h 3.06788 3.06787 v -22.41668 -22.41667 l -4.62959,-4.634405 -4.6296,-4.63441 h -4.148336 c -3.188447,0 -4.360837,-0.0885 -5.066787,-0.38315 -1.10809,-0.46225 -12.70164,-11.9166 -13.26674,-13.10745 -0.30162,-0.63564 -0.37439,-1.922 -0.37439,-6.61888 v -5.82991 h -12.59914 -12.59913 v 7.77012 7.77012 z m -0.0983,47.876055 c 6.08832,0 6.28583,0.0155 7.07974,0.55584 0.44919,0.30571 1.04927,0.86946 1.3335,1.25276 0.49125,0.66247 0.52056,1.04418 0.59267,7.72006 l 0.0758,7.02314 h 16.04373 16.043593 v -2.28764 -2.28765 l -4.571933,-4.56775 -4.57193,-4.56779 -4.81457,-0.12356 -4.81457,-0.12356 -6.55183,-6.54661 c -4.98267,-4.97868 -6.6097,-6.7537 -6.79337,-7.41125 -0.13289,-0.47557 -0.24214,-3.33816 -0.24289,-6.36135 l -9.4e-4,-5.49666 h -7.53477 -7.53478 v 11.61095 11.61099 z m -5.39185,13.7248 c 0.46202,0.74659 1.20918,1.49381 1.95568,1.95581 1.18175,0.73142 1.2877,0.7494 4.87254,0.82722 l 3.66452,0.0795 v -6.44087 -6.44089 h -5.69754 -5.69757 l 0.0775,4.4055 0.0773,4.4055 z m 33.03064,-30.67754 c 0.17581,0.58683 0.77514,1.50158 1.42049,2.16813 4.36191,4.50512 11.585123,0.13357 9.885953,-5.98306 -0.32323,-1.16349 -1.778146,-2.83346 -3.052433,-3.50359 -1.41651,-0.74492 -3.84179,-0.74492 -5.2583,0 -1.21106,0.63689 -2.72988,2.33048 -3.03692,3.38639 -0.32186,1.10683 -0.30433,2.77882 0.0412,3.93213 z m 7.9794,-40.675135 c 1.06368,2.54574 3.213213,3.9005 5.915683,3.72842 6.0361,-0.38435 7.64951,-8.34946 2.27931,-11.25254 -1.08216,-0.58501 -4.19815,-0.5895 -5.27367,-0.008 -1.124286,0.60828 -2.318193,1.88036 -2.837303,3.02309 -0.55381,1.21916 -0.59245,3.2918 -0.0841,4.50863 z m 33.176763,16.52564 c 1.56735,3.04215 4.94598,4.15599 7.96385,2.62546 5.65326,-2.86705 3.58774,-11.17864 -2.77802,-11.17864 -2.58071,0 -4.77608,1.7218 -5.66778,4.44515 -0.31182,0.95236 -0.0665,3.04356 0.48195,4.10803 z m 13.09478,57.614125 c 2.47438,-0.0773 2.76743,-0.14002 3.88438,-0.83128 0.74749,-0.46258 1.49316,-1.20864 1.95576,-1.95673 l 0.74766,-1.2091 0.0674,-14.65682 0.0675,-14.65683 h -4.69949 -4.6995 v 16.6972 16.69719 z"
       id="path1" />
  </g>
</svg>
