<?xml version="1.0" encoding="UTF-8" standalone="no"?>
<!-- Created with Inkscape (http://www.inkscape.org/) -->

<svg
   width="125mm"
   height="88mm"
   viewBox="0 0 125 88"
   version="1.1"
   id="svg1"
   xml:space="preserve"
   xmlns="http://www.w3.org/2000/svg"
   xmlns:svg="http://www.w3.org/2000/svg"><defs
     id="defs1"><marker
       style="overflow:visible"
       id="marker20"
       refX="0"
       refY="0"
       orient="auto-start-reverse"
       markerWidth="1"
       markerHeight="1"
       viewBox="0 0 1 1"
       preserveAspectRatio="xMidYMid"><path
         style="fill:none;stroke:context-stroke;stroke-width:1;stroke-linecap:butt"
         d="M 3,-3 0,0 3,3"
         transform="rotate(180,0.125,0)"
         id="path20" /></marker></defs><g
     id="layer1"><path
       style="fill:#000000;stroke-width:0.264583"
       d="M 20.922139,40.271187 2.3596396,40.113877"
       id="path2" /></g><g
     id="layer6"><g
       id="g21"
       transform="translate(-62.017073,-64.594212)"><path
         id="rect3"
         style="fill:#3cae5e;fill-opacity:1;stroke:#000000;stroke-width:1.765"
         d="m 64.745208,163.84897 h 57.962302 a 2.5544339,2.5544339 44.679427 0 1 2.55428,2.52585 l 0.04,3.57739 a 1.3647404,1.3647404 44.679427 0 0 1.36465,1.34947 h 23.24635 a 1.3345358,1.3345358 134.67943 0 0 1.33445,-1.34947 l -0.0528,-4.72124 a 1.3667087,1.3667087 134.67943 0 1 1.36662,-1.382 h 7.90043 a 3.4260227,3.4260227 45 0 1 3.42602,3.42602 v 29.16569 30.0657 a 2.5260083,2.5260083 135 0 1 -2.52601,2.52601 h -12.49291 l -0.0437,-5.17882 a 1.3696774,1.3696774 44.940439 0 0 -1.36092,-1.35809 l -9.88498,-0.0629 a 1.1477131,1.1477131 135.61133 0 0 -1.15488,1.1305 l -0.089,5.94118 -70.114617,-0.44645 a 4.0269428,4.0269428 45.182421 0 1 -4.001302,-4.02686 l 1.8e-5,-58.65599 a 2.5260091,2.5260091 135.00001 0 1 2.526009,-2.52601 z"
         transform="translate(13.527012,-84.940949)" /><rect
         style="fill:#fccd50;fill-opacity:1;stroke:#000000;stroke-width:1.69805;stroke-dasharray:none;stroke-opacity:1"
         id="rect5"
         width="26.564701"
         height="7.9324117"
         x="81.817856"
         y="129.69102" /><rect
         style="fill:#fccd50;fill-opacity:1;stroke:#000000;stroke-width:1.43294;stroke-dasharray:none;stroke-opacity:1"
         id="rect9"
         width="5.6852036"
         height="10.388673"
         x="168.13943"
         y="82.923233" /><rect
         style="fill:#fccd50;fill-opacity:1;stroke:#000000;stroke-width:1.43294;stroke-dasharray:none;stroke-opacity:1"
         id="rect9-4"
         width="5.6852036"
         height="10.388673"
         x="152.33084"
         y="98.112511" /><rect
         style="fill:#fccd50;fill-opacity:1;stroke:#000000;stroke-width:1.43294;stroke-dasharray:none;stroke-opacity:1"
         id="rect9-4-0"
         width="5.6852036"
         height="10.388673"
         x="134.82516"
         y="97.66851" /><rect
         style="fill:#fccd50;fill-opacity:1;stroke:#000000;stroke-width:1.37741;stroke-dasharray:none;stroke-opacity:1"
         id="rect12"
         width="29.97867"
         height="0.83252352"
         x="147.03436"
         y="119.4525" /><ellipse
         style="fill:#fccd50;fill-opacity:1;stroke:#000000;stroke-width:1.8211;stroke-dasharray:none;stroke-opacity:1"
         id="path11"
         cx="145.58673"
         cy="119.57887"
         rx="3.3934255"
         ry="3.2504299" /><rect
         style="fill:#fccd50;fill-opacity:1;stroke:#000000;stroke-width:1.24246;stroke-dasharray:none;stroke-opacity:1"
         id="rect12-6"
         width="20.989681"
         height="0.96747565"
         x="156.42162"
         y="129.56297" /><ellipse
         style="fill:#fccd50;fill-opacity:1;stroke:#000000;stroke-width:1.8211;stroke-dasharray:none;stroke-opacity:1"
         id="path11-3"
         cx="155.35608"
         cy="129.91414"
         rx="3.3934255"
         ry="3.2504299" /><rect
         style="fill:#fccd50;fill-opacity:1;stroke:#000000;stroke-width:1.765;stroke-dasharray:none;stroke-opacity:1"
         id="rect13"
         width="40.489353"
         height="38.709599"
         x="80.935089"
         y="84.580391" /><rect
         style="fill:#000000;fill-opacity:1;stroke:#000000;stroke-width:1.40827;stroke-dasharray:none;stroke-opacity:1"
         id="rect14"
         width="2.5814209"
         height="0.1342625"
         x="141.10144"
         y="99.752411" /><rect
         style="fill:#000000;fill-opacity:1;stroke:#000000;stroke-width:1.40827;stroke-dasharray:none;stroke-opacity:1"
         id="rect14-3"
         width="2.5814209"
         height="0.1342625"
         x="141.27611"
         y="105.24463" /><rect
         style="fill:#000000;fill-opacity:1;stroke:#000000;stroke-width:1.40827;stroke-dasharray:none;stroke-opacity:1"
         id="rect14-32"
         width="2.5814209"
         height="0.1342625"
         x="131.55659"
         y="105.76512" /><rect
         style="fill:#000000;fill-opacity:1;stroke:#000000;stroke-width:1.40827;stroke-dasharray:none;stroke-opacity:1"
         id="rect14-4"
         width="2.5814209"
         height="0.1342625"
         x="131.48491"
         y="99.647217" /><rect
         style="fill:#000000;fill-opacity:1;stroke:#000000;stroke-width:1.40827;stroke-dasharray:none;stroke-opacity:1"
         id="rect14-40"
         width="2.5814209"
         height="0.1342625"
         x="149.03458"
         y="99.679703" /><rect
         style="fill:#000000;fill-opacity:1;stroke:#000000;stroke-width:1.40827;stroke-dasharray:none;stroke-opacity:1"
         id="rect14-5"
         width="2.5814209"
         height="0.1342625"
         x="149.00626"
         y="105.22792" /><rect
         style="fill:#000000;fill-opacity:1;stroke:#000000;stroke-width:1.40827;stroke-dasharray:none;stroke-opacity:1"
         id="rect14-8"
         width="2.5814209"
         height="0.1342625"
         x="148.86479"
         y="105.22246" /><rect
         style="fill:#000000;fill-opacity:1;stroke:#000000;stroke-width:1.40827;stroke-dasharray:none;stroke-opacity:1"
         id="rect14-84"
         width="2.5814209"
         height="0.1342625"
         x="158.48431"
         y="99.472351" /><rect
         style="fill:#000000;fill-opacity:1;stroke:#000000;stroke-width:1.40827;stroke-dasharray:none;stroke-opacity:1"
         id="rect14-1"
         width="2.5814209"
         height="0.1342625"
         x="158.63927"
         y="105.24142" /><rect
         style="fill:#fccd50;fill-opacity:1;stroke:#000000;stroke-width:1.30711;stroke-dasharray:none;stroke-opacity:1"
         id="rect4"
         width="6.1308579"
         height="7.4656725"
         x="81.707283"
         y="71.6707"
         ry="0.16685173" /><rect
         style="fill:#fa9f43;fill-opacity:1;stroke:#000000;stroke-width:1.30711;stroke-dasharray:none;stroke-opacity:1"
         id="rect4-5"
         width="6.1308579"
         height="7.4656725"
         x="87.840919"
         y="71.664413" /><rect
         style="fill:#fccd50;fill-opacity:1;stroke:#000000;stroke-width:1.30711;stroke-dasharray:none;stroke-opacity:1"
         id="rect4-7"
         width="6.1308579"
         height="7.4656725"
         x="93.98317"
         y="71.66597" /><rect
         style="fill:#fa9f43;fill-opacity:1;stroke:#000000;stroke-width:1.30711;stroke-dasharray:none;stroke-opacity:1"
         id="rect4-5-3"
         width="6.1308579"
         height="7.4656725"
         x="100.12507"
         y="71.673004" /><rect
         style="fill:#fccd50;fill-opacity:1;stroke:#000000;stroke-width:1.30711;stroke-dasharray:none;stroke-opacity:1"
         id="rect4-1"
         width="6.1308579"
         height="7.4656725"
         x="106.2766"
         y="71.66954" /><rect
         style="fill:#fa9f43;fill-opacity:1;stroke:#000000;stroke-width:1.30711;stroke-dasharray:none;stroke-opacity:1"
         id="rect4-5-5"
         width="6.1308579"
         height="7.4656725"
         x="112.41024"
         y="71.663254" /><rect
         style="fill:#fccd50;fill-opacity:1;stroke:#000000;stroke-width:1.30711;stroke-dasharray:none;stroke-opacity:1"
         id="rect4-7-5"
         width="6.1308579"
         height="7.4656725"
         x="118.55248"
         y="71.66481" /><rect
         style="fill:#fa9f43;fill-opacity:1;stroke:#000000;stroke-width:1.30711;stroke-dasharray:none;stroke-opacity:1"
         id="rect4-5-3-8"
         width="6.1308579"
         height="7.4656725"
         x="124.69439"
         y="71.671844"
         ry="0.27808622" /><rect
         style="fill:#fa9f43;fill-opacity:1;stroke:#000000;stroke-width:1.18955;stroke-dasharray:none;stroke-opacity:1"
         id="rect4-5-5-4"
         width="6.1700015"
         height="6.1439247"
         x="86.365608"
         y="-75.578377"
         transform="matrix(0.00206462,0.99999787,-0.99999523,0.00308756,0,0)" /><rect
         style="fill:#fccd50;fill-opacity:1;stroke:#000000;stroke-width:1.18955;stroke-dasharray:none;stroke-opacity:1"
         id="rect4-7-5-8"
         width="6.1700015"
         height="6.1439247"
         x="92.547089"
         y="-75.57711"
         transform="matrix(0.00206462,0.99999787,-0.99999523,0.00308756,0,0)" /><rect
         style="fill:#fa9f43;fill-opacity:1;stroke:#000000;stroke-width:1.18955;stroke-dasharray:none;stroke-opacity:1"
         id="rect4-5-3-8-0"
         width="6.1700015"
         height="6.1439247"
         x="98.72821"
         y="-75.57132"
         ry="0.2288529"
         transform="matrix(0.00206462,0.99999787,-0.99999523,0.00308756,0,0)" /><path
         style="fill:none;fill-opacity:1;stroke:#000000;stroke-width:0.594202;stroke-dasharray:none;stroke-dashoffset:0;stroke-opacity:1;marker-start:url(#marker20)"
         d="m 115.97599,117.50695 -30.359254,-0.007"
         id="path15-9" /><path
         style="fill:none;fill-opacity:1;stroke:#000000;stroke-width:1.074;stroke-dasharray:none;stroke-dashoffset:0;stroke-opacity:1"
         d="m 85.116126,110.48153 2.37816,0.004 -0.0402,-6.19046 3.13587,0.004 -0.08,-11.236324 2.85099,0.0197 0.0353,3.95097 2.36045,-0.0225 -0.014,-1.30085 2.63542,-0.0343 0.12169,3.92573 1.4846,0.0172 1.497954,5.628644"
         id="path17" /><path
         style="fill:none;fill-opacity:1;stroke:#000000;stroke-width:1.187;stroke-dasharray:1.187, 1.187;stroke-dashoffset:0;stroke-opacity:1"
         d="m 101.57586,104.73293 1.94371,7.17724 3.14619,-0.004 1.62745,-1.98718 0.81912,-4.94791 0.89875,-3.56251 0.52753,-3.882424 1.18078,-3.3035 1.10116,-1.70832 c 0.4558,-1.70419 4.51359,0.0786 4.51359,0.0786"
         id="path21" /><ellipse
         style="fill:#ffffff;fill-opacity:1;stroke:#000000;stroke-width:0.83244;stroke-dasharray:none;stroke-dashoffset:0;stroke-opacity:1"
         id="path16"
         cx="101.51998"
         cy="104.80542"
         rx="2.0713782"
         ry="2.1107056" /></g></g></svg>
